<svg width="127" height="160" viewBox="0 0 127 160" fill="none" xmlns="http://www.w3.org/2000/svg">
<g clip-path="url(#clip0_111_55)">
<path d="M98.0113 149.737C101.581 147.413 104.909 144.751 107.996 141.749C108.092 141.652 108.14 141.604 108.237 141.507C109.636 140.151 110.938 138.651 112.192 137.15C112.337 136.956 112.53 136.763 112.723 136.569C115.424 133.229 117.884 129.549 119.958 125.58C125.698 114.493 127.772 102.536 126.807 90.917C125.263 72.5206 115.81 55.1893 100.037 44.1031C100.471 43.5705 100.857 43.038 101.195 42.4087C103.124 38.6326 105.536 35.9215 101.05 32.2907C102.883 31.2256 104.619 29.4828 106.018 27.9336C106.5 27.4495 106.935 26.9654 107.32 26.5781C109.25 24.6901 111.999 21.7854 113.736 18.1061C116.003 13.3134 116.388 6.48734 112.096 2.08189C111.179 1.16208 110.263 0.532726 109.298 0.242257C107.996 -0.193446 106.5 -0.0966232 104.861 0.435903C101.388 1.59778 98.3007 4.50247 96.1302 8.52062C94.4902 11.5705 93.4291 15.153 92.9467 19.1227C92.6091 21.8822 92.3197 25.271 92.8503 28.0305C87.4963 26.5297 86.5798 30.0153 84.6505 33.743C84.3128 34.4208 84.0717 35.1469 83.8787 35.8247C68.6368 30.5963 52.4302 31.4677 38.2976 37.5675C38.2976 37.5675 38.2976 37.5675 38.2494 37.5675C36.3201 38.3905 34.4389 39.3587 32.606 40.3754C32.606 40.3754 32.606 40.3754 32.5578 40.3754C28.6991 42.5055 25.0815 45.1197 21.7052 48.0728C21.3193 48.4117 20.9817 48.7506 20.5958 49.0895C19.2452 50.3482 17.9429 51.6553 16.6888 53.0108C16.2065 53.4949 15.7724 54.0274 15.3383 54.5115C14.1807 55.8671 13.1195 57.271 12.0584 58.7233C11.6725 59.2559 11.2384 59.7884 10.8525 60.3693C9.50197 62.4026 8.19965 64.4843 7.09027 66.7112C6.9938 66.9049 6.94557 67.0985 6.8491 67.2438C5.78795 69.3739 4.87151 71.5524 4.05153 73.7309C3.95506 74.0214 3.8586 74.3118 3.76213 74.6023C3.08685 76.5388 2.45981 78.5236 1.97747 80.5085C1.92924 80.7506 1.881 81.041 1.78454 81.2831C1.3022 83.3648 0.916324 85.4465 0.626921 87.5282C0.626921 87.6734 0.578687 87.8187 0.578687 87.9639C-0.385992 95.3708 -0.144823 102.633 1.35043 109.604C1.78454 111.589 2.31511 113.574 2.89392 115.51C4.0033 118.947 5.40208 122.288 7.09027 125.531C9.16433 129.598 11.6243 133.422 14.5665 137.005C16.0136 138.748 17.6053 140.442 19.2452 142.04C23.5863 146.251 28.5544 149.931 34.1978 152.884C35.693 153.658 37.2365 154.336 38.7317 154.965C58.7006 163.389 80.7918 160.92 98.0113 149.737ZM96.0819 19.5584C96.516 15.976 97.4807 12.7324 98.9277 10.0698C100.712 6.7294 103.172 4.40565 105.873 3.48583C106.886 3.14695 107.706 3.09854 108.382 3.29218C108.526 3.34059 108.623 3.389 108.767 3.43742C109.153 3.63106 109.539 3.92153 109.925 4.30882C113.157 7.64922 112.723 13.1197 110.986 16.799C109.829 19.268 108.044 21.5917 105.198 24.3512C104.764 24.7869 104.33 25.271 103.799 25.8035C102.304 27.3527 100.278 29.5312 98.6866 30.0153C98.2525 30.1606 97.9631 30.1606 97.7219 30.1606C97.529 30.0637 97.4325 29.9669 97.2395 29.8701C97.0948 29.7733 96.9501 29.7249 96.8054 29.6764C96.1302 28.8535 95.2137 26.5297 96.0819 19.5584Z" fill="#D03139"/>
<path d="M34.2461 152.883C35.7413 153.658 37.2848 154.336 38.7801 154.965C58.6525 163.437 80.7919 160.92 98.0114 149.785C49.3433 163.582 21.2229 116.091 29.7121 82.3479C40.8541 38.2451 83.9271 35.9213 83.9271 35.9213C68.6851 30.6929 52.4785 31.5643 38.346 37.6641C38.346 37.6641 38.346 37.6641 38.2977 37.6641C36.3684 38.4871 34.4873 39.4554 32.6544 40.472C32.6544 40.472 32.6544 40.472 32.6061 40.472C28.7474 42.6505 25.1299 45.2163 21.7535 48.1694C21.3676 48.5083 21.03 48.8472 20.6441 49.1861C19.2936 50.4448 17.9912 51.7519 16.7372 53.1074C16.2548 53.5915 15.8207 54.124 15.3866 54.6082C14.229 55.9637 13.1678 57.3676 12.1067 58.82C11.7208 59.3525 11.2867 59.885 10.9009 60.4659C9.5503 62.4992 8.24799 64.5809 7.1386 66.8078C7.04214 67.0015 6.9939 67.1951 6.89743 67.3404C5.83629 69.4705 4.91984 71.649 4.09986 73.8275C4.0034 74.118 3.90693 74.4085 3.81046 74.6989C3.13519 76.6354 2.50814 78.6203 2.0258 80.6051C1.97757 80.8472 1.92934 81.1377 1.83287 81.3797C1.35053 83.4614 0.964657 85.5431 0.675253 87.6248C0.675253 87.77 0.627019 87.9153 0.627019 88.0605C-0.385894 95.3706 -0.144724 102.632 1.35053 109.604C1.78463 111.588 2.31521 113.573 2.89402 115.51C4.0034 118.947 5.40218 122.287 7.09037 125.531C9.16443 129.598 11.6244 133.422 14.5666 137.005C16.0137 138.747 17.6054 140.442 19.2453 142.039C23.6346 146.251 28.6027 149.93 34.2461 152.883Z" fill="#AA2A30"/>
<path d="M117.739 128.968C118.414 127.806 119.331 126.838 119.958 125.579C122.032 121.61 123.431 117.446 124.588 113.331L113.784 116.188L104.475 89.174L78.2354 105.15L66.7075 72.9561L39.8894 85.882L28.4579 49.7186L15.6277 54.3661C15.5312 54.4629 15.4348 54.6082 15.3383 54.705C14.1807 56.0605 13.1195 57.4644 12.0584 58.9168C11.6725 59.4493 11.2384 59.9818 10.8526 60.5628C9.502 62.5961 8.19968 64.6778 7.0903 66.9047C6.99383 67.0983 6.9456 67.292 6.84913 67.4372C5.98092 69.1316 5.30565 70.8744 4.63037 72.6172L20.017 67.0499L31.8343 104.617L59.183 91.4493L71.1932 125.095L97.2878 109.216L105.246 132.309L117.739 128.968Z" fill="#F0CAC9"/>
<path d="M98.0113 149.737C101.581 147.413 104.909 144.751 107.996 141.749C108.092 141.652 108.14 141.604 108.237 141.507C109.636 140.151 110.938 138.651 112.192 137.15C112.337 136.956 112.53 136.763 112.723 136.569C115.424 133.229 117.884 129.549 119.958 125.58C125.698 114.493 127.772 102.536 126.807 90.917C125.263 72.5206 115.81 55.1893 100.037 44.1031C100.471 43.5705 100.857 43.038 101.195 42.4087C103.124 38.6326 105.536 35.9215 101.05 32.2907C102.883 31.2256 104.619 29.4828 106.018 27.9336C106.5 27.4495 106.935 26.9654 107.32 26.5781C109.25 24.6901 111.999 21.7854 113.736 18.1061C116.003 13.3134 116.388 6.48734 112.096 2.08189C111.179 1.16208 110.263 0.532726 109.298 0.242257C107.996 -0.193446 106.5 -0.0966232 104.861 0.435903C101.388 1.59778 98.3007 4.50247 96.1302 8.52062C94.4902 11.5705 93.4291 15.153 92.9467 19.1227C92.6091 21.8822 92.3197 25.271 92.8503 28.0305C87.4963 26.5297 86.5798 30.0153 84.6505 33.743C84.3128 34.4208 84.0717 35.1469 83.8787 35.8247C68.6368 30.5963 52.4302 31.4677 38.2976 37.5675C38.2976 37.5675 38.2976 37.5675 38.2494 37.5675C36.3201 38.3905 34.4389 39.3587 32.606 40.3754C32.606 40.3754 32.606 40.3754 32.5578 40.3754C28.6991 42.5055 25.0815 45.1197 21.7052 48.0728C21.3193 48.4117 20.9817 48.7506 20.5958 49.0895C19.2452 50.3482 17.9429 51.6553 16.6888 53.0108C16.2065 53.4949 15.7724 54.0274 15.3383 54.5115C14.1807 55.8671 13.1195 57.271 12.0584 58.7233C11.6725 59.2559 11.2384 59.7884 10.8525 60.3693C9.50197 62.4026 8.19965 64.4843 7.09027 66.7112C6.9938 66.9049 6.94557 67.0985 6.8491 67.2438C5.78795 69.3739 4.87151 71.5524 4.05153 73.7309C3.95506 74.0214 3.8586 74.3118 3.76213 74.6023C3.08685 76.5388 2.45981 78.5236 1.97747 80.5085C1.92924 80.7506 1.881 81.041 1.78454 81.2831C1.3022 83.3648 0.916324 85.4465 0.626921 87.5282C0.626921 87.6734 0.578687 87.8187 0.578687 87.9639C-0.385992 95.3708 -0.144823 102.633 1.35043 109.604C1.78454 111.589 2.31511 113.574 2.89392 115.51C4.0033 118.947 5.40208 122.288 7.09027 125.531C9.16433 129.598 11.6243 133.422 14.5665 137.005C16.0136 138.748 17.6053 140.442 19.2452 142.04C23.5863 146.251 28.5544 149.931 34.1978 152.884C35.693 153.658 37.2365 154.336 38.7317 154.965C58.7006 163.389 80.7918 160.92 98.0113 149.737ZM96.0819 19.5584C96.516 15.976 97.4807 12.7324 98.9277 10.0698C100.712 6.7294 103.172 4.40565 105.873 3.48583C106.886 3.14695 107.706 3.09854 108.382 3.29218C108.526 3.34059 108.623 3.389 108.767 3.43742C109.153 3.63106 109.539 3.92153 109.925 4.30882C113.157 7.64922 112.723 13.1197 110.986 16.799C109.829 19.268 108.044 21.5917 105.198 24.3512C104.764 24.7869 104.33 25.271 103.799 25.8035C102.304 27.3527 100.278 29.5312 98.6866 30.0153C98.2525 30.1606 97.9631 30.1606 97.7219 30.1606C97.529 30.0637 97.4325 29.9669 97.2395 29.8701C97.0948 29.7733 96.9501 29.7249 96.8054 29.6764C96.1302 28.8535 95.2137 26.5297 96.0819 19.5584Z" fill="#283664"/>
<path d="M34.2461 152.883C35.7413 153.658 37.2848 154.336 38.7801 154.965C58.6525 163.437 80.7919 160.92 98.0114 149.785C49.3433 163.582 21.2229 116.091 29.7121 82.3479C40.8541 38.2451 83.9271 35.9213 83.9271 35.9213C68.6851 30.6929 52.4785 31.5643 38.346 37.6641C38.346 37.6641 38.346 37.6641 38.2977 37.6641C36.3684 38.4871 34.4873 39.4554 32.6544 40.472C32.6544 40.472 32.6544 40.472 32.6061 40.472C28.7474 42.6505 25.1299 45.2163 21.7535 48.1694C21.3676 48.5083 21.03 48.8472 20.6441 49.1861C19.2936 50.4448 17.9912 51.7519 16.7372 53.1074C16.2548 53.5915 15.8207 54.124 15.3866 54.6082C14.229 55.9637 13.1678 57.3676 12.1067 58.82C11.7208 59.3525 11.2867 59.885 10.9009 60.4659C9.5503 62.4992 8.24799 64.5809 7.1386 66.8078C7.04214 67.0015 6.9939 67.1951 6.89743 67.3404C5.83629 69.4705 4.91984 71.649 4.09986 73.8275C4.0034 74.118 3.90693 74.4085 3.81046 74.6989C3.13519 76.6354 2.50814 78.6203 2.0258 80.6051C1.97757 80.8472 1.92934 81.1377 1.83287 81.3797C1.35053 83.4614 0.964657 85.5431 0.675253 87.6248C0.675253 87.77 0.627019 87.9153 0.627019 88.0605C-0.385894 95.3706 -0.144724 102.632 1.35053 109.604C1.78463 111.588 2.31521 113.573 2.89402 115.51C4.0034 118.947 5.40218 122.287 7.09037 125.531C9.16443 129.598 11.6244 133.422 14.5666 137.005C16.0137 138.747 17.6054 140.442 19.2453 142.039C23.6346 146.251 28.6027 149.93 34.2461 152.883Z" fill="#232E54"/>
<path d="M100.037 44.1029C100.471 43.5703 100.857 43.0378 101.195 42.4085C101.581 41.6339 84.361 34.7595 84.361 34.7595C84.2163 35.1467 84.0234 35.534 83.9269 35.9213C77.3671 33.6944 70.6144 32.7746 63.9099 32.7262L53.5396 41.6823L54.456 41.7791C77.8977 44.2965 99.8442 54.705 116.63 71.3101L112.578 56.0121C109.009 51.5582 104.86 47.4917 100.037 44.1029Z" fill="#E8E7C4"/>
<path d="M115.424 90.1422C111.71 91.7882 106.5 88.0605 103.751 81.8154C101.002 75.5703 101.725 69.18 105.439 67.534C109.153 65.888 114.363 69.6157 117.112 75.8608C119.861 82.1059 119.138 88.4962 115.424 90.1422Z" fill="#3C519C"/>
</g>
<path d="M70.8955 68.9V127H57.4495V79.69H45.8295V68.9H70.8955Z" fill="white"/>
<defs>
<clipPath id="clip0_111_55">
<rect width="127" height="160" fill="white"/>
</clipPath>
</defs>
</svg>
