<svg width="127" height="160" viewBox="0 0 127 160" fill="none" xmlns="http://www.w3.org/2000/svg">
<g clip-path="url(#clip0_111_58)">
<path d="M28.9887 149.737C25.4194 147.413 22.0913 144.751 19.0043 141.749C18.9078 141.652 18.8596 141.604 18.7631 141.507C17.3643 140.151 16.062 138.651 14.8079 137.15C14.6632 136.956 14.4703 136.763 14.2774 136.569C11.5763 133.229 9.11633 129.549 7.04226 125.58C1.30242 114.493 -0.771637 102.536 0.193039 90.917C1.73653 72.5206 11.1904 55.1893 26.9629 44.103C26.5288 43.5705 26.1429 43.038 25.8053 42.4086C23.8759 38.6325 21.4642 35.9215 25.95 32.2906C24.1171 31.2256 22.3807 29.4828 20.9819 27.9336C20.4995 27.4495 20.0654 26.9654 19.6796 26.5781C17.7502 24.69 15.0009 21.7853 13.2644 18.1061C10.9974 13.3133 10.6116 6.48731 14.9044 2.08186C15.8208 1.16205 16.7373 0.532696 17.702 0.242227C19.0043 -0.193477 20.4995 -0.0966537 22.1395 0.435873C25.6123 1.59775 28.6993 4.50244 30.8698 8.52059C32.5098 11.5705 33.5709 15.153 34.0533 19.1227C34.3909 21.8822 34.6803 25.271 34.1497 28.0304C39.5037 26.5297 40.4202 30.0153 42.3495 33.743C42.6872 34.4207 42.9283 35.1469 43.1213 35.8247C58.3632 30.5962 74.5698 31.4676 88.7024 37.5675C88.7024 37.5675 88.7024 37.5675 88.7506 37.5675C90.6799 38.3905 92.5611 39.3587 94.394 40.3754C94.394 40.3754 94.394 40.3754 94.4422 40.3754C98.3009 42.5055 101.918 45.1197 105.295 48.0728C105.681 48.4117 106.018 48.7505 106.404 49.0894C107.755 50.3481 109.057 51.6552 110.311 53.0108C110.794 53.4949 111.228 54.0274 111.662 54.5115C112.819 55.867 113.88 57.271 114.942 58.7233C115.328 59.2558 115.762 59.7884 116.147 60.3693C117.498 62.4026 118.8 64.4843 119.91 66.7112C120.006 66.9049 120.054 67.0985 120.151 67.2437C121.212 69.3738 122.128 71.5524 122.948 73.7309C123.045 74.0213 123.141 74.3118 123.238 74.6023C123.913 76.5387 124.54 78.5236 125.023 80.5085C125.071 80.7505 125.119 81.041 125.215 81.2831C125.698 83.3648 126.084 85.4465 126.373 87.5282C126.373 87.6734 126.421 87.8186 126.421 87.9639C127.386 95.3708 127.145 102.633 125.65 109.604C125.215 111.589 124.685 113.574 124.106 115.51C122.997 118.947 121.598 122.288 119.91 125.531C117.836 129.598 115.376 133.422 112.433 137.005C110.986 138.748 109.395 140.442 107.755 142.04C103.414 146.251 98.4456 149.931 92.8022 152.884C91.307 153.658 89.7635 154.336 88.2682 154.965C68.2994 163.389 46.2082 160.92 28.9887 149.737ZM30.9181 19.5584C30.484 15.976 29.5193 12.7324 28.0723 10.0698C26.2876 6.72937 23.8277 4.40562 21.1266 3.4858C20.1137 3.14692 19.2937 3.09851 18.6184 3.29215C18.4737 3.34056 18.3772 3.38897 18.2325 3.43739C17.8467 3.63103 17.4608 3.9215 17.0749 4.30879C13.8433 7.64919 14.2774 13.1197 16.0138 16.799C17.1714 19.2679 18.956 21.5917 21.8018 24.3512C22.236 24.7869 22.6701 25.271 23.2006 25.8035C24.6959 27.3527 26.7217 29.5312 28.3134 30.0153C28.7475 30.1605 29.0369 30.1605 29.2781 30.1605C29.471 30.0637 29.5675 29.9669 29.7605 29.8701C29.9052 29.7732 30.0499 29.7248 30.1946 29.6764C30.8698 28.8534 31.7863 26.5297 30.9181 19.5584Z" fill="#D03139"/>
<path d="M92.7539 152.883C91.2587 153.658 89.7152 154.336 88.2199 154.965C68.3475 163.437 46.2081 160.92 28.9886 149.785C77.6567 163.582 105.777 116.091 97.2879 82.3479C86.1459 38.2451 43.0729 35.9213 43.0729 35.9213C58.3149 30.6929 74.5215 31.5643 88.654 37.6641C88.654 37.6641 88.654 37.6641 88.7023 37.6641C90.6316 38.4871 92.5127 39.4554 94.3456 40.472C94.3456 40.472 94.3456 40.472 94.3939 40.472C98.2526 42.6505 101.87 45.2163 105.247 48.1694C105.632 48.5083 105.97 48.8472 106.356 49.1861C107.706 50.4448 109.009 51.7519 110.263 53.1074C110.745 53.5915 111.179 54.124 111.613 54.6082C112.771 55.9637 113.832 57.3676 114.893 58.82C115.279 59.3525 115.713 59.885 116.099 60.4659C117.45 62.4992 118.752 64.5809 119.861 66.8078C119.958 67.0015 120.006 67.1951 120.103 67.3404C121.164 69.4705 122.08 71.649 122.9 73.8275C122.997 74.118 123.093 74.4085 123.19 74.6989C123.865 76.6354 124.492 78.6203 124.974 80.6051C125.022 80.8472 125.071 81.1377 125.167 81.3797C125.649 83.4614 126.035 85.5431 126.325 87.6248C126.325 87.77 126.373 87.9153 126.373 88.0605C127.386 95.3706 127.145 102.632 125.649 109.604C125.215 111.588 124.685 113.573 124.106 115.51C122.997 118.947 121.598 122.287 119.91 125.531C117.836 129.598 115.376 133.422 112.433 137.005C110.986 138.747 109.395 140.442 107.755 142.039C103.365 146.251 98.3973 149.93 92.7539 152.883Z" fill="#AA2A30"/>
<path d="M9.261 128.968C8.58572 127.806 7.66929 126.838 7.04224 125.579C4.96819 121.61 3.5694 117.446 2.41179 113.331L13.2162 116.188L22.5253 89.1739L48.7646 105.15L60.2925 72.9561L87.1106 85.882L98.5421 49.7186L111.372 54.3661C111.469 54.4629 111.565 54.6081 111.662 54.705C112.819 56.0605 113.88 57.4644 114.942 58.9168C115.327 59.4493 115.762 59.9818 116.147 60.5627C117.498 62.596 118.8 64.6777 119.91 66.9046C120.006 67.0983 120.054 67.2919 120.151 67.4372C121.019 69.1316 121.694 70.8744 122.37 72.6172L106.983 67.0499L95.1657 104.617L67.817 91.4493L55.8068 125.095L29.7122 109.216L21.7536 132.309L9.261 128.968Z" fill="#F0CAC9"/>
<path d="M28.9887 149.737C25.4194 147.413 22.0913 144.751 19.0043 141.749C18.9078 141.652 18.8596 141.604 18.7631 141.507C17.3643 140.151 16.062 138.651 14.8079 137.15C14.6632 136.956 14.4703 136.763 14.2774 136.569C11.5763 133.229 9.11633 129.549 7.04226 125.58C1.30242 114.493 -0.771637 102.536 0.193039 90.917C1.73653 72.5206 11.1904 55.1893 26.9629 44.103C26.5288 43.5705 26.1429 43.038 25.8053 42.4086C23.8759 38.6325 21.4642 35.9215 25.95 32.2906C24.1171 31.2256 22.3807 29.4828 20.9819 27.9336C20.4995 27.4495 20.0654 26.9654 19.6796 26.5781C17.7502 24.69 15.0009 21.7853 13.2644 18.1061C10.9974 13.3133 10.6116 6.48731 14.9044 2.08186C15.8208 1.16205 16.7373 0.532696 17.702 0.242227C19.0043 -0.193477 20.4995 -0.0966537 22.1395 0.435873C25.6123 1.59775 28.6993 4.50244 30.8698 8.52059C32.5098 11.5705 33.5709 15.153 34.0533 19.1227C34.3909 21.8822 34.6803 25.271 34.1497 28.0304C39.5037 26.5297 40.4202 30.0153 42.3495 33.743C42.6872 34.4207 42.9283 35.1469 43.1213 35.8247C58.3632 30.5962 74.5698 31.4676 88.7024 37.5675C88.7024 37.5675 88.7024 37.5675 88.7506 37.5675C90.6799 38.3905 92.5611 39.3587 94.394 40.3754C94.394 40.3754 94.394 40.3754 94.4422 40.3754C98.3009 42.5055 101.918 45.1197 105.295 48.0728C105.681 48.4117 106.018 48.7505 106.404 49.0894C107.755 50.3481 109.057 51.6552 110.311 53.0108C110.794 53.4949 111.228 54.0274 111.662 54.5115C112.819 55.867 113.88 57.271 114.942 58.7233C115.328 59.2558 115.762 59.7884 116.147 60.3693C117.498 62.4026 118.8 64.4843 119.91 66.7112C120.006 66.9049 120.054 67.0985 120.151 67.2437C121.212 69.3738 122.128 71.5524 122.948 73.7309C123.045 74.0213 123.141 74.3118 123.238 74.6023C123.913 76.5387 124.54 78.5236 125.023 80.5085C125.071 80.7505 125.119 81.041 125.215 81.2831C125.698 83.3648 126.084 85.4465 126.373 87.5282C126.373 87.6734 126.421 87.8186 126.421 87.9639C127.386 95.3708 127.145 102.633 125.65 109.604C125.215 111.589 124.685 113.574 124.106 115.51C122.997 118.947 121.598 122.288 119.91 125.531C117.836 129.598 115.376 133.422 112.433 137.005C110.986 138.748 109.395 140.442 107.755 142.04C103.414 146.251 98.4456 149.931 92.8022 152.884C91.307 153.658 89.7635 154.336 88.2682 154.965C68.2994 163.389 46.2082 160.92 28.9887 149.737ZM30.9181 19.5584C30.484 15.976 29.5193 12.7324 28.0723 10.0698C26.2876 6.72937 23.8277 4.40562 21.1266 3.4858C20.1137 3.14692 19.2937 3.09851 18.6184 3.29215C18.4737 3.34056 18.3772 3.38897 18.2325 3.43739C17.8467 3.63103 17.4608 3.9215 17.0749 4.30879C13.8433 7.64919 14.2774 13.1197 16.0138 16.799C17.1714 19.2679 18.956 21.5917 21.8018 24.3512C22.236 24.7869 22.6701 25.271 23.2006 25.8035C24.6959 27.3527 26.7217 29.5312 28.3134 30.0153C28.7475 30.1605 29.0369 30.1605 29.2781 30.1605C29.471 30.0637 29.5675 29.9669 29.7605 29.8701C29.9052 29.7732 30.0499 29.7248 30.1946 29.6764C30.8698 28.8534 31.7863 26.5297 30.9181 19.5584Z" fill="#283664"/>
<path d="M92.7539 152.883C91.2587 153.658 89.7152 154.336 88.2199 154.965C68.3475 163.437 46.2081 160.92 28.9886 149.785C77.6567 163.582 105.777 116.091 97.2879 82.3479C86.1459 38.2451 43.0729 35.9213 43.0729 35.9213C58.3149 30.6929 74.5215 31.5643 88.654 37.6641C88.654 37.6641 88.654 37.6641 88.7023 37.6641C90.6316 38.4871 92.5127 39.4554 94.3456 40.472C94.3456 40.472 94.3456 40.472 94.3939 40.472C98.2526 42.6505 101.87 45.2163 105.247 48.1694C105.632 48.5083 105.97 48.8472 106.356 49.1861C107.706 50.4448 109.009 51.7519 110.263 53.1074C110.745 53.5915 111.179 54.124 111.613 54.6082C112.771 55.9637 113.832 57.3676 114.893 58.82C115.279 59.3525 115.713 59.885 116.099 60.4659C117.45 62.4992 118.752 64.5809 119.861 66.8078C119.958 67.0015 120.006 67.1951 120.103 67.3404C121.164 69.4705 122.08 71.649 122.9 73.8275C122.997 74.118 123.093 74.4085 123.19 74.6989C123.865 76.6354 124.492 78.6203 124.974 80.6051C125.022 80.8472 125.071 81.1377 125.167 81.3797C125.649 83.4614 126.035 85.5431 126.325 87.6248C126.325 87.77 126.373 87.9153 126.373 88.0605C127.386 95.3706 127.145 102.632 125.649 109.604C125.215 111.588 124.685 113.573 124.106 115.51C122.997 118.947 121.598 122.287 119.91 125.531C117.836 129.598 115.376 133.422 112.433 137.005C110.986 138.747 109.395 140.442 107.755 142.039C103.365 146.251 98.3973 149.93 92.7539 152.883Z" fill="#232E54"/>
<path d="M26.9629 44.1028C26.5288 43.5703 26.1429 43.0378 25.8053 42.4084C25.4194 41.6339 42.639 34.7594 42.639 34.7594C42.7837 35.1467 42.9766 35.534 43.0731 35.9213C49.6329 33.6944 56.3856 32.7745 63.0901 32.7261L73.4604 41.6823L72.544 41.7791C49.1023 44.2965 27.1558 54.705 10.3704 71.3101L14.4221 56.0121C17.9914 51.5582 22.1395 47.4916 26.9629 44.1028Z" fill="#E8E7C4"/>
<path d="M11.5763 90.1421C15.2904 91.7881 20.4996 88.0604 23.249 81.8154C25.9983 75.5703 25.2748 69.18 21.5608 67.534C17.8468 65.888 12.6375 69.6157 9.88815 75.8607C7.13882 82.1058 7.86233 88.4962 11.5763 90.1421Z" fill="#3C519C"/>
</g>
<path d="M88.8277 114.799H79.3657V127H66.2517V114.799H34.9607V105.752L62.3507 68.9H76.4607L51.0627 103.843H66.6667V92.97H79.3657V103.843H88.8277V114.799Z" fill="white"/>
<defs>
<clipPath id="clip0_111_58">
<rect width="127" height="160" fill="white" transform="matrix(-1 0 0 1 127 0)"/>
</clipPath>
</defs>
</svg>
