<svg width="440" height="505" viewBox="0 0 440 505" fill="none" xmlns="http://www.w3.org/2000/svg">
<path d="M162.7 77.0999C157.2 77.0999 152.7 72.7999 152.7 67.4999C152.7 62.1999 157.2 57.8999 162.7 57.8999C168.2 57.8999 172.7 62.1999 172.7 67.4999C172.7 72.7999 168.2 77.0999 162.7 77.0999Z" fill="white"/>
<path d="M237.1 30.9C232.6 30.9 229 27.4 229 23.2C229 18.9 232.6 15.5 237.1 15.5C241.6 15.5 245.2 19 245.2 23.2C245.2 27.5 241.6 30.9 237.1 30.9Z" fill="white"/>
<path d="M397.9 461.2C393.4 461.2 389.8 457.7 389.8 453.5C389.8 449.2 393.4 445.8 397.9 445.8C402.4 445.8 406 449.3 406 453.5C406 457.7 402.4 461.2 397.9 461.2Z" fill="white"/>
<path d="M351.7 142.6C348 140.1 346.9 135.3 349.2 131.7C351.6 128.1 356.5 127.2 360.2 129.7C363.9 132.2 365 137 362.7 140.6C360.4 144.2 355.5 145.1 351.7 142.6Z" fill="white"/>
<path d="M272.5 290C268.8 287.5 267.7 282.7 270 279.1C272.4 275.5 277.3 274.6 281 277.1C284.7 279.6 285.8 284.4 283.5 288C281.1 291.6 276.2 292.5 272.5 290Z" fill="white"/>
<path d="M126.5 15.5C124.3 15.5 122.5 13.8 122.5 11.6C122.5 9.49995 124.3 7.69995 126.5 7.69995C128.7 7.69995 130.5 9.39995 130.5 11.6C130.5 13.7 128.7 15.5 126.5 15.5Z" fill="white"/>
<path d="M356 504.9C353.8 504.9 352 503.2 352 501C352 498.9 353.8 497.1 356 497.1C358.2 497.1 360 498.8 360 501C360 503.1 358.2 504.9 356 504.9Z" fill="white"/>
<path d="M361.4 59.3999C359.5 58.1999 359 55.6999 360.2 53.9999C361.4 52.1999 363.8 51.7999 365.7 52.9999C367.6 54.1999 368.1 56.6999 366.9 58.4999C365.7 60.0999 363.3 60.5999 361.4 59.3999Z" fill="white"/>
<path d="M-3.08542e-05 7.7C-3.104e-05 11.9526 3.62647 15.4 8.09997 15.4C12.5735 15.4 16.2 11.9526 16.2 7.7C16.2 3.4474 12.5735 -1.58518e-07 8.09998 -3.54061e-07C3.62647 -5.49604e-07 -3.06683e-05 3.4474 -3.08542e-05 7.7Z" fill="white"/>
<path d="M408.7 77.1C408.7 85.329 415.684 92 424.3 92C432.916 92 439.9 85.329 439.9 77.1C439.9 68.8709 432.916 62.2 424.3 62.2C415.684 62.2 408.7 68.8709 408.7 77.1Z" fill="white"/>
</svg>
