<svg width="523" height="368" viewBox="0 0 523 368" fill="none" xmlns="http://www.w3.org/2000/svg">
<path d="M0 117.2C1.2 119.1 2.3 121 3.4 123C113.3 64.2 263.7 45.9 415.5 99C415.6 96.5 415.7 94 415.7 91.4C262.6 38.7 110.9 57.6 0 117.2Z" fill="#5B64A5"/>
<path d="M522.3 144.6C521.8 142.2 426.3 119.8 398 98.8C368 75.1 458.2 92.5 522.3 144.6Z" fill="#5B64A5"/>
<path d="M449.6 39.8C449.3 39.6 389.7 83.4 363.3 80.7C336.4 78.3 393.4 44.3 449.6 39.8Z" fill="#5B64A5"/>
<path d="M416.9 149.3C418.1 148.9 380.2 89.1 359 82.6C339.4 75.7 384.1 117.5 416.9 149.3Z" fill="#5B64A5"/>
<path d="M373.4 17.5C373.2 17.5 323.4 70.2 296.9 68.2C270 66.7 319.7 26.7 373.4 17.5Z" fill="#5B64A5"/>
<path d="M305.3 8C305.1 8 263 64 237.8 64.6C212.3 65.5 255.6 22.2 305.3 8Z" fill="#5B64A5"/>
<path d="M238.9 6.19995C238.8 6.19995 204.4 64.6 180.7 67.3C156.7 70.4 193.4 24.6 238.9 6.19995Z" fill="#5B64A5"/>
<path d="M174.8 11.6C174.7 11.7 148 71.4 125.9 75.9C103.7 80.9 133.8 33.5 174.8 11.6Z" fill="#5B64A5"/>
<path d="M113.7 23.7C113.6 23.8 94.5 83.9 74.1 90C53.7 96.6 77.4 48.4 113.7 23.7Z" fill="#5B64A5"/>
<path d="M56.3001 41.8999C56.3001 41.9999 44.5001 101.6 25.9001 109C7.10009 117 24.6001 68.6999 56.3001 41.8999Z" fill="#5B64A5"/>
<path d="M375.6 147.9C377.8 147.3 326.8 70.5 296.8 67.5C270.1 63.7 331.3 111.3 375.6 147.9Z" fill="#5B64A5"/>
<path d="M317 131.2C319 130.6 266 63.2 237.7 63.6C212.4 63.2 272.6 102.4 317 131.2Z" fill="#5B64A5"/>
<path d="M259 122C260.8 121.3 206.7 62.5999 180.4 66.1999C156.8 68.7999 215.4 100.2 259 122Z" fill="#5B64A5"/>
<path d="M202.4 119.7C204 119 149.7 68.3 125.5 74.6C103.8 80 160.3 104.4 202.4 119.7Z" fill="#5B64A5"/>
<path d="M148 124C149.5 123.3 95.5001 80 73.6001 88.7C54.0001 96.3 108 114.5 148 124Z" fill="#5B64A5"/>
<path d="M96.3001 134.3C97.7001 133.5 44.5001 96.9999 25.1001 107.7C7.80006 117.3 58.8001 129.9 96.3001 134.3Z" fill="#5B64A5"/>
<path d="M68.5 1.9C70 1.3 71.6 0.7 73.1 0C109.1 78.2 187 149.5 298.8 180.3C297.7 181.8 296.6 183.3 295.4 184.7C183 153.2 104.6 81 68.5 1.9Z" fill="#EFDDCA"/>
<path d="M381.3 197.2C379.9 198.4 314.6 172.7 288.7 173.3C260.5 174.9 320.4 201.2 381.3 197.2Z" fill="#EFDDCA"/>
<path d="M291 228.1C290.7 228.1 276.7 178.9 260.3 169.7C243.8 160.2 260.8 202.8 291 228.1Z" fill="#EFDDCA"/>
<path d="M322.9 151.9C323.4 152.6 274 171.7 258.8 166.9C244.3 163 289.3 157 322.9 151.9Z" fill="#EFDDCA"/>
<path d="M236.9 210.2C236.8 210.1 232.5 159.7 216.4 150.1C200.3 140 210.3 183.2 236.9 210.2Z" fill="#EFDDCA"/>
<path d="M193.4 188.1C193.3 188 195 138.8 180.8 128.3C166.6 117.4 171.4 159.9 193.4 188.1Z" fill="#EFDDCA"/>
<path d="M154.4 162.3C154.3 162.2 161.6 114.8 149.2 103.7C136.9 92.2 136.8 133.4 154.4 162.3Z" fill="#EFDDCA"/>
<path d="M120.1 133.3C120.1 133.2 132.4 88.1 121.7 76.6C111.2 64.7 106.7 104.2 120.1 133.3Z" fill="#EFDDCA"/>
<path d="M90.6002 101.7C90.6002 101.6 107.4 59.2999 98.5002 47.5999C89.8002 35.4999 81.1002 72.7999 90.6002 101.7Z" fill="#EFDDCA"/>
<path d="M66.0001 68C66.0001 67.9 86.9001 28.9 79.6001 17.1C72.5001 5 60.2001 39.8 66.0001 68Z" fill="#EFDDCA"/>
<path d="M298.5 136.1C299.5 137.3 234.7 160.9 216.1 150.5C198.9 141.9 256.1 139.2 298.5 136.1Z" fill="#EFDDCA"/>
<path d="M257.1 121.9C257.9 123.1 196.3 140.4 180.3 128.8C165.5 118.8 218.3 120.6 257.1 121.9Z" fill="#EFDDCA"/>
<path d="M219.5 103.8C220.2 104.9 162 116.8 148.5 104.1C136.2 93.1 184.4 98.7 219.5 103.8Z" fill="#EFDDCA"/>
<path d="M186 82.3C186.6 83.4 132 90.5 121 77.1C110.9 65.3 154.7 74.1 186 82.3Z" fill="#EFDDCA"/>
<path d="M156.6 57.8C157.1 58.8 106.1 61.9 97.5001 48C89.9001 35.8 129.2 47.1 156.6 57.8Z" fill="#EFDDCA"/>
<path d="M131.7 31.1C132.1 32.1 84.7 31.6 78.5 17.6C73 5.09999 108.1 18.4 131.7 31.1Z" fill="#EFDDCA"/>
<path d="M48.8999 120.9C49.2999 119.6 49.6999 118.3 50.0999 117C119.3 142.4 186.6 208.2 214.9 305.7C213.7 306.8 212.4 307.9 211.2 309C183.8 212 117.3 146.3 48.8999 120.9Z" fill="#FF364D"/>
<path d="M234 265.9C237.2 266.8 240.5 268.1 242.8 271.9C245.1 275.7 245.8 282.7 243.5 287.2C242.1 289.9 239.9 291.1 237.9 291.6C230.3 293.8 222.9 290.2 216.2 285.4C212.7 282.7 196.7 273.6 206.4 264.8C212.8 258.9 227.2 263.9 234 265.9Z" fill="#FF364D"/>
<path d="M212.8 222.2C216.1 222.7 219.5 223.5 222.3 226.8C225 230.1 226.6 236.6 224.8 241C223.7 243.7 221.7 245 219.8 245.8C212.5 248.7 204.8 246.2 197.6 242.5C193.8 240.4 176.9 233.7 185.5 224.4C190.9 218.1 205.8 221 212.8 222.2Z" fill="#FF364D"/>
<path d="M186.8 183.8C190.1 183.9 193.6 184.2 196.7 187C199.8 189.7 202 195.7 200.7 200C199.9 202.7 198.1 204.1 196.2 205.1C189.3 208.7 181.3 207.3 173.8 204.7C169.8 203.2 152.2 199.1 159.8 189.3C164.7 182.6 179.8 183.6 186.8 183.8Z" fill="#FF364D"/>
<path d="M157.1 151C160.4 150.6 163.9 150.5 167.2 152.7C170.5 154.9 173.4 160.2 172.5 164.4C172 167 170.3 168.6 168.6 169.7C162.1 173.9 154.1 173.6 146.3 172.2C142.2 171.3 124.4 169.7 130.9 159.6C135.1 152.8 150.2 151.7 157.1 151Z" fill="#FF364D"/>
<path d="M124.5 124.1C127.7 123.3 131.1 122.7 134.6 124.3C138.1 125.9 141.4 130.5 141 134.6C140.8 137.1 139.3 138.9 137.7 140.1C131.7 145 123.7 145.7 116 145.4C111.8 145.1 94.0998 146.1 99.5998 135.7C103.1 128.9 117.8 125.7 124.5 124.1Z" fill="#FF364D"/>
<path d="M89.9999 103.2C93.0999 102 96.3999 100.9 99.8999 102C103.5 103 107.2 107 107.2 110.9C107.2 113.3 105.9 115.2 104.5 116.6C99.0999 122 91.2999 123.8 83.6999 124.7C79.5999 125 62.2999 128.5 66.6999 117.9C69.3999 110.8 83.4999 105.7 89.9999 103.2Z" fill="#FF364D"/>
<path d="M181.2 316.2C179.8 320.9 178.5 325.8 178.7 330.5C178.9 335.2 181.4 339.4 184.8 338.6C186.9 338.1 188.8 335.8 190.4 333.4C196.4 324.3 199.5 312.1 200.6 300.4C201.6 294.2 203.3 267 194.1 277.7C188.3 284.6 184.3 306.4 181.2 316.2Z" fill="#FF364D"/>
<path d="M166.4 274.9C165.6 279.4 164.9 284.1 165.8 288.4C166.6 292.7 169.6 296.4 172.9 295.2C174.9 294.5 176.5 292.2 177.8 289.8C182.6 280.7 184.1 269.1 183.8 258.1C184 252.2 182.6 226.7 174.6 237.8C169.6 244.9 168.3 265.5 166.4 274.9Z" fill="#FF364D"/>
<path d="M146.7 238.4C146.5 242.6 146.3 247.1 147.7 250.9C149.1 254.8 152.4 257.8 155.6 256.4C157.5 255.5 158.8 253.2 159.8 250.8C163.5 241.9 163.6 230.9 162.1 220.7C161.6 215.2 157.4 191.7 150.7 202.9C146.5 210.2 147.4 229.5 146.7 238.4Z" fill="#FF364D"/>
<path d="M123.1 207C123.3 210.9 123.6 215 125.4 218.4C127.2 221.8 130.9 224.2 133.8 222.6C135.6 221.6 136.6 219.3 137.3 217C140 208.3 138.9 198.1 136.3 188.8C135.2 183.8 128.7 162.4 123.2 173.7C119.8 181 122.8 198.7 123.1 207Z" fill="#FF364D"/>
<path d="M96.3998 181C96.9998 184.6 97.6998 188.3 99.7998 191.3C101.9 194.2 105.8 196 108.6 194.1C110.3 192.9 111.1 190.7 111.5 188.4C113.2 180 111.2 170.7 107.7 162.4C106.1 157.9 97.5998 138.7 93.2998 150.1C90.6998 157.3 95.2998 173.4 96.3998 181Z" fill="#FF364D"/>
<path d="M67.4999 160.6C68.3999 163.9 69.4999 167.2 71.7999 169.6C74.0999 172 78.1999 173.1 80.6999 171C82.1999 169.7 82.7999 167.5 83.0999 165.4C83.9999 157.4 81.0999 149 76.8999 141.7C74.8999 137.7 64.8999 121 61.6999 132.2C59.7999 139.4 65.7999 153.7 67.4999 160.6Z" fill="#FF364D"/>
<path d="M229.9 340.8C230.7 345.7 231.3 351.1 229.9 356.7C228.6 362.3 224.8 367.9 221.4 367.8C219.4 367.7 218 365.6 216.9 363.4C212.9 354.9 211.8 343.1 211.1 331.4C211.1 325.1 207.2 299 217.2 304.6C224 308 228.4 330.4 229.9 340.8Z" fill="#FF364D"/>
</svg>
