<svg width="227" height="285" viewBox="0 0 227 285" fill="none" xmlns="http://www.w3.org/2000/svg">
<g clip-path="url(#clip0_4_539)">
<path d="M175.186 266.719C181.566 262.579 187.515 257.837 193.032 252.49C193.205 252.318 193.291 252.231 193.463 252.059C195.963 249.644 198.291 246.971 200.533 244.298C200.791 243.953 201.136 243.608 201.481 243.263C206.309 237.313 210.706 230.759 214.413 223.688C224.673 203.941 228.38 182.641 226.655 161.946C223.897 129.177 206.999 98.3056 178.807 78.5582C179.583 77.6097 180.273 76.6611 180.876 75.5401C184.325 68.8139 188.635 63.9849 180.617 57.5174C183.894 55.6203 186.997 52.5159 189.497 49.7564C190.36 48.8941 191.136 48.0318 191.825 47.3419C195.274 43.9788 200.188 38.8048 203.292 32.2511C207.344 23.7141 208.033 11.5552 200.36 3.708C198.722 2.06957 197.084 0.948542 195.36 0.431144C193.032 -0.344953 190.36 -0.172487 187.428 0.776076C181.221 2.84567 175.703 8.01965 171.824 15.177C168.892 20.6097 166.996 26.9909 166.134 34.062C165.53 38.9773 165.013 45.0136 165.961 49.9289C156.391 47.2557 154.753 53.4644 151.305 60.1044C150.701 61.3116 150.27 62.6051 149.925 63.8124C122.682 54.4992 93.7143 56.0514 68.4538 66.9168C68.4538 66.9168 68.4538 66.9168 68.3676 66.9168C64.919 68.3827 61.5567 70.1074 58.2806 71.9183C58.2806 71.9183 58.2806 71.9183 58.1944 71.9183C51.2973 75.7125 44.8313 80.3691 38.7963 85.6293C38.1066 86.233 37.5031 86.8366 36.8134 87.4402C34.3995 89.6823 32.0717 92.0106 29.8301 94.4251C28.968 95.2874 28.1921 96.236 27.4162 97.0983C25.347 99.5128 23.4503 102.014 21.5536 104.601C20.8639 105.549 20.088 106.498 19.3983 107.533C16.9843 111.154 14.6566 114.862 12.6737 118.829C12.5012 119.174 12.415 119.519 12.2426 119.778C10.3459 123.572 8.70784 127.452 7.24221 131.333C7.06979 131.85 6.89736 132.368 6.72493 132.885C5.51795 136.334 4.39717 139.87 3.53504 143.405C3.44882 143.837 3.36261 144.354 3.19018 144.785C2.32805 148.493 1.63834 152.201 1.12106 155.909C1.12106 156.168 1.03485 156.427 1.03485 156.685C-0.689423 169.879 -0.258356 182.814 2.41426 195.231C3.19018 198.767 4.13853 202.303 5.17309 205.752C7.156 211.874 9.65619 217.824 12.6737 223.602C16.3808 230.846 20.7777 237.658 26.0367 244.039C28.6232 247.144 31.4682 250.162 34.3995 253.008C42.1587 260.51 51.0387 267.064 61.1256 272.324C63.7982 273.703 66.5571 274.911 69.2297 276.032C104.922 291.036 144.408 286.638 175.186 266.719ZM171.737 34.8381C172.513 28.4569 174.238 22.6793 176.824 17.9364C180.014 11.9864 184.411 7.84718 189.239 6.20875C191.049 5.60512 192.515 5.51889 193.722 5.86382C193.981 5.95006 194.153 6.03629 194.412 6.12252C195.101 6.46745 195.791 6.98485 196.481 7.67471C202.257 13.6248 201.481 23.3691 198.377 29.9228C196.308 34.3207 193.118 38.4599 188.032 43.3752C187.256 44.1513 186.48 45.0136 185.532 45.9622C182.859 48.7216 179.238 52.6021 176.393 53.4644C175.617 53.7231 175.1 53.7231 174.669 53.7231C174.324 53.5507 174.151 53.3782 173.807 53.2057C173.548 53.0333 173.289 52.947 173.031 52.8608C171.824 51.3948 170.186 47.2557 171.737 34.8381Z" fill="#D03139"/>
<path d="M61.2118 272.324C63.8844 273.703 66.6432 274.911 69.3159 276.032C104.836 291.122 144.408 286.638 175.186 266.805C88.1966 291.381 37.9342 206.787 53.1077 146.682C73.023 68.124 150.012 63.9848 150.012 63.9848C122.768 54.6717 93.8005 56.2239 68.5399 67.0892C68.5399 67.0892 68.5399 67.0892 68.4537 67.0892C65.0052 68.5552 61.6429 70.2798 58.3668 72.0907C58.3668 72.0907 58.3668 72.0907 58.2805 72.0907C51.3835 75.9712 44.9175 80.5416 38.8825 85.8018C38.1928 86.4054 37.5893 87.009 36.8996 87.6127C34.4856 89.8547 32.1579 92.183 29.9163 94.5975C29.0542 95.4599 28.2783 96.4084 27.5023 97.2708C25.4332 99.6853 23.5365 102.186 21.6398 104.773C20.9501 105.722 20.1742 106.67 19.4845 107.705C17.0705 111.327 14.7428 115.035 12.7598 119.001C12.5874 119.346 12.5012 119.691 12.3288 119.95C10.4321 123.744 8.79402 127.625 7.3284 131.505C7.15597 132.023 6.98354 132.54 6.81111 133.057C5.60413 136.507 4.48335 140.042 3.62122 143.578C3.535 144.009 3.44879 144.526 3.27636 144.958C2.41423 148.666 1.72452 152.374 1.20724 156.082C1.20724 156.34 1.12103 156.599 1.12103 156.858C-0.689456 169.879 -0.258389 182.814 2.41423 195.231C3.19015 198.767 4.1385 202.303 5.17306 205.752C7.15597 211.874 9.65616 217.824 12.6736 223.602C16.3808 230.846 20.7777 237.658 26.0367 244.039C28.6231 247.144 31.4682 250.162 34.3994 253.008C42.2448 260.51 51.1248 267.063 61.2118 272.324Z" fill="#AA2A30"/>
<path d="M210.447 229.725C211.654 227.655 213.292 225.93 214.413 223.688C218.12 216.617 220.62 209.201 222.69 201.871L203.378 206.959L186.739 158.841L139.838 187.298L119.233 129.953L71.2988 152.977L50.8662 88.5613L27.9334 96.8397C27.761 97.0121 27.5885 97.2708 27.4161 97.4433C25.347 99.8578 23.4503 102.359 21.5536 104.946C20.8639 105.894 20.088 106.843 19.3983 107.877C16.9843 111.499 14.6565 115.207 12.6736 119.174C12.5012 119.519 12.415 119.864 12.2426 120.123C10.6907 123.141 9.48372 126.245 8.27673 129.349L35.7788 119.433L56.9011 186.349L105.784 162.894L127.251 222.826L173.893 194.542L188.118 235.675L210.447 229.725Z" fill="#F0CAC9"/>
<path d="M175.186 266.719C181.566 262.579 187.515 257.837 193.032 252.49C193.205 252.318 193.291 252.231 193.463 252.059C195.963 249.644 198.291 246.971 200.533 244.298C200.791 243.953 201.136 243.608 201.481 243.263C206.309 237.313 210.706 230.759 214.413 223.688C224.673 203.941 228.38 182.641 226.655 161.946C223.897 129.177 206.999 98.3056 178.807 78.5582C179.583 77.6097 180.273 76.6611 180.876 75.5401C184.325 68.8139 188.635 63.9849 180.617 57.5174C183.894 55.6203 186.997 52.5159 189.497 49.7564C190.36 48.8941 191.136 48.0318 191.825 47.3419C195.274 43.9788 200.188 38.8048 203.292 32.2511C207.344 23.7141 208.033 11.5552 200.36 3.708C198.722 2.06957 197.084 0.948542 195.36 0.431144C193.032 -0.344953 190.36 -0.172487 187.428 0.776076C181.221 2.84567 175.703 8.01965 171.824 15.177C168.892 20.6097 166.996 26.9909 166.134 34.062C165.53 38.9773 165.013 45.0136 165.961 49.9289C156.391 47.2557 154.753 53.4644 151.305 60.1044C150.701 61.3116 150.27 62.6051 149.925 63.8124C122.682 54.4992 93.7143 56.0514 68.4538 66.9168C68.4538 66.9168 68.4538 66.9168 68.3676 66.9168C64.919 68.3827 61.5567 70.1074 58.2806 71.9183C58.2806 71.9183 58.2806 71.9183 58.1944 71.9183C51.2973 75.7125 44.8313 80.3691 38.7963 85.6293C38.1066 86.233 37.5031 86.8366 36.8134 87.4402C34.3995 89.6823 32.0717 92.0106 29.8301 94.4251C28.968 95.2874 28.1921 96.236 27.4162 97.0983C25.347 99.5128 23.4503 102.014 21.5536 104.601C20.8639 105.549 20.088 106.498 19.3983 107.533C16.9843 111.154 14.6566 114.862 12.6737 118.829C12.5012 119.174 12.415 119.519 12.2426 119.778C10.3459 123.572 8.70784 127.452 7.24221 131.333C7.06979 131.85 6.89736 132.368 6.72493 132.885C5.51795 136.334 4.39717 139.87 3.53504 143.405C3.44882 143.837 3.36261 144.354 3.19018 144.785C2.32805 148.493 1.63834 152.201 1.12106 155.909C1.12106 156.168 1.03485 156.427 1.03485 156.685C-0.689423 169.879 -0.258356 182.814 2.41426 195.231C3.19018 198.767 4.13853 202.303 5.17309 205.752C7.156 211.874 9.65619 217.824 12.6737 223.602C16.3808 230.846 20.7777 237.658 26.0367 244.039C28.6232 247.144 31.4682 250.162 34.3995 253.008C42.1587 260.51 51.0387 267.064 61.1256 272.324C63.7982 273.703 66.5571 274.911 69.2297 276.032C104.922 291.036 144.408 286.638 175.186 266.719ZM171.737 34.8381C172.513 28.4569 174.238 22.6793 176.824 17.9364C180.014 11.9864 184.411 7.84718 189.239 6.20875C191.049 5.60512 192.515 5.51889 193.722 5.86382C193.981 5.95006 194.153 6.03629 194.412 6.12252C195.101 6.46745 195.791 6.98485 196.481 7.67471C202.257 13.6248 201.481 23.3691 198.377 29.9228C196.308 34.3207 193.118 38.4599 188.032 43.3752C187.256 44.1513 186.48 45.0136 185.532 45.9622C182.859 48.7216 179.238 52.6021 176.393 53.4644C175.617 53.7231 175.1 53.7231 174.669 53.7231C174.324 53.5507 174.151 53.3782 173.807 53.2057C173.548 53.0333 173.289 52.947 173.031 52.8608C171.824 51.3948 170.186 47.2557 171.737 34.8381Z" fill="#283664"/>
<path d="M61.2118 272.324C63.8844 273.703 66.6432 274.911 69.3159 276.032C104.836 291.122 144.408 286.638 175.186 266.805C88.1966 291.381 37.9342 206.787 53.1077 146.682C73.023 68.124 150.012 63.9848 150.012 63.9848C122.768 54.6717 93.8005 56.2239 68.5399 67.0892C68.5399 67.0892 68.5399 67.0892 68.4537 67.0892C65.0052 68.5552 61.6429 70.2798 58.3668 72.0907C58.3668 72.0907 58.3668 72.0907 58.2805 72.0907C51.3835 75.9712 44.9175 80.5416 38.8825 85.8018C38.1928 86.4054 37.5893 87.009 36.8996 87.6127C34.4856 89.8547 32.1579 92.183 29.9163 94.5975C29.0542 95.4599 28.2783 96.4084 27.5023 97.2708C25.4332 99.6853 23.5365 102.186 21.6398 104.773C20.9501 105.722 20.1742 106.67 19.4845 107.705C17.0705 111.327 14.7428 115.035 12.7598 119.001C12.5874 119.346 12.5012 119.691 12.3288 119.95C10.4321 123.744 8.79402 127.625 7.3284 131.505C7.15597 132.023 6.98354 132.54 6.81111 133.057C5.60413 136.507 4.48335 140.042 3.62122 143.578C3.535 144.009 3.44879 144.526 3.27636 144.958C2.41423 148.666 1.72452 152.374 1.20724 156.082C1.20724 156.34 1.12103 156.599 1.12103 156.858C-0.689456 169.879 -0.258389 182.814 2.41423 195.231C3.19015 198.767 4.1385 202.303 5.17306 205.752C7.15597 211.874 9.65616 217.824 12.6736 223.602C16.3808 230.846 20.7777 237.658 26.0367 244.039C28.6231 247.144 31.4682 250.162 34.3994 253.008C42.2448 260.51 51.1248 267.063 61.2118 272.324Z" fill="#232E54"/>
<path d="M210.447 229.725C211.654 227.655 213.292 225.93 214.413 223.688C218.12 216.617 220.62 209.201 222.69 201.871L203.378 206.959L186.739 158.841L139.838 187.298L119.233 129.953L71.2988 152.977L50.8662 88.5613L27.9334 96.8397C27.761 97.0121 27.5885 97.2708 27.4161 97.4433C25.347 99.8578 23.4503 102.359 21.5536 104.946C20.8639 105.894 20.088 106.843 19.3983 107.877C16.9843 111.499 14.6565 115.207 12.6736 119.174C12.5012 119.519 12.415 119.864 12.2426 120.123C10.6907 123.141 9.48372 126.245 8.27673 129.349L35.7788 119.433L56.9011 186.349L105.784 162.894L127.251 222.826L173.893 194.542L188.118 235.675L210.447 229.725Z" fill="#E8E7C4"/>
<path d="M178.807 78.5582C179.583 77.6096 180.273 76.6611 180.876 75.5401C181.566 74.1603 150.788 61.9152 150.788 61.9152C150.529 62.6051 150.184 63.295 150.012 63.9848C138.287 60.0181 126.217 58.3797 114.233 58.2935L95.6973 74.2466L97.3353 74.419C139.235 78.9031 178.462 97.4432 208.464 127.021L201.223 99.7715C194.843 91.8381 187.428 84.5945 178.807 78.5582Z" fill="#E8E7C4"/>
<path d="M206.309 160.566C199.671 163.498 190.36 156.858 185.445 145.734C180.531 134.61 181.824 123.227 188.463 120.295C195.101 117.363 204.412 124.003 209.327 135.127C214.241 146.251 212.947 157.634 206.309 160.566Z" fill="#3C519C"/>
</g>
<defs>
<clipPath id="clip0_4_539">
<rect width="227" height="285" fill="white" transform="translate(0.000244141)"/>
</clipPath>
</defs>
</svg>
