<svg width="228" height="271" viewBox="0 0 228 271" fill="none" xmlns="http://www.w3.org/2000/svg">
<path d="M227.241 148.792C226.682 141.257 225.453 133.777 223.33 126.41C223.274 126.242 223.219 126.019 223.219 125.851C222.269 122.502 221.096 119.209 219.811 115.916C219.643 115.47 219.531 115.079 219.364 114.632C216.459 107.544 212.883 100.623 208.414 93.9805C196.068 75.5613 179.252 62.0539 160.37 53.6815C160.37 53.6815 160.37 53.6815 160.314 53.6815C130.37 40.3973 95.2305 40.3415 64.5045 55.4676C64.0575 54.3513 63.5548 53.235 62.8285 52.1745C58.6386 45.9231 56.4598 39.8391 47.0186 43.7463C46.9627 40.0066 45.6778 35.7646 44.5046 32.2482C44.1135 31.0761 43.7783 30.0156 43.5549 29.0667C42.27 24.434 40.0912 17.6244 35.9013 11.8196C30.4265 4.22861 20.1472 -2.19021 9.58862 0.712214C7.354 1.32619 5.62216 2.21924 4.28139 3.50301C2.49369 5.17748 1.32051 7.57757 0.817724 10.6474C-0.299587 17.0663 1.48811 24.3781 5.90149 31.1319C9.25342 36.2669 13.8903 41.0113 19.6444 45.1975C23.6667 47.9883 28.6946 51.3372 33.4991 52.9001C26.5718 60.0445 31.2645 64.3981 35.3985 70.5937C36.1806 71.71 37.0745 72.7147 38.0242 73.5519C16.7953 92.8642 4.22552 118.93 1.59984 146.224V146.28C1.26465 150.02 1.09705 153.759 1.09705 157.499V157.555C1.15292 165.425 2.04677 173.295 3.7786 181.109C3.9462 182.002 4.22552 182.839 4.39312 183.732C5.17524 186.914 6.06909 190.096 7.13053 193.221C7.52159 194.338 7.91265 195.51 8.35958 196.626C9.47689 199.584 10.7059 202.487 12.1026 205.333C12.6054 206.45 13.1081 207.51 13.6109 208.626C15.5662 212.478 17.745 216.273 20.2031 219.901C20.4265 220.18 20.65 220.459 20.8735 220.794C23.2757 224.311 25.8455 227.604 28.527 230.729C28.8622 231.176 29.2533 231.511 29.6444 231.957C32.1024 234.692 34.6164 237.316 37.2979 239.827C37.6331 240.162 38.0242 240.441 38.3594 240.776C41.1527 243.344 44.0577 245.688 47.0744 247.921C47.2979 248.088 47.4655 248.2 47.6889 248.367C58.1358 255.958 69.6441 261.763 81.7669 265.391C85.2306 266.452 88.7501 267.289 92.3255 268.014C98.6383 269.242 105.063 269.856 111.487 270.024C119.588 270.247 127.688 269.689 135.733 268.126C139.755 267.345 143.666 266.34 147.632 265.112C157.912 261.931 167.912 257.298 177.297 250.991C179.811 249.316 182.157 247.53 184.448 245.688C214.727 221.855 229.811 185.184 227.241 148.792ZM22.9405 40.6206C17.6891 36.8251 13.5551 32.6389 10.5942 28.062C6.96294 22.4246 5.3987 16.5639 6.29255 11.5405C6.62774 9.69857 7.24226 8.30317 8.13611 7.46594C8.30371 7.29849 8.47131 7.13104 8.69477 7.01941C9.30929 6.6287 10.0914 6.2938 11.0411 6.01472C18.974 3.89372 27.1863 9.19623 31.4321 15.1127C34.2812 19.0198 36.3482 23.82 38.2477 30.5737C38.527 31.5784 38.918 32.7505 39.3091 33.9785C40.4823 37.6623 42.1024 42.6299 41.432 45.5324C41.2644 46.3138 41.0409 46.8161 40.8175 47.2068C40.5381 47.3743 40.3147 47.4859 39.9795 47.7092C39.7002 47.8766 39.5326 48.0441 39.2532 48.2115C37.4655 48.4906 33.0522 47.9325 22.9405 40.6206Z" fill="#D03139"/>
<path d="M177.353 250.99C179.867 249.316 182.213 247.53 184.504 245.688C214.727 221.855 229.811 185.239 227.241 148.847C207.017 236.646 108.973 239.995 63.7781 197.91C4.61646 142.819 38.0241 73.5518 38.0241 73.5518C16.7951 92.8641 4.2254 118.93 1.59971 146.224V146.28C1.26452 150.02 1.09692 153.759 1.09692 157.499V157.555C1.15279 165.425 2.04664 173.295 3.77847 181.109C3.94607 182.002 4.2254 182.839 4.39299 183.732C5.17511 186.914 6.06896 190.095 7.13041 193.221C7.52146 194.337 7.91252 195.509 8.35945 196.626C9.47676 199.584 10.7058 202.486 12.1024 205.333C12.6052 206.449 13.108 207.51 13.6108 208.626C15.5661 212.477 17.7449 216.273 20.203 219.901C20.4264 220.18 20.6499 220.459 20.8733 220.794C23.2756 224.31 25.8454 227.604 28.5269 230.729C28.8621 231.176 29.2532 231.511 29.6442 231.957C32.1023 234.692 34.6163 237.316 37.2978 239.827C37.633 240.162 38.0241 240.441 38.3593 240.776C41.1525 243.288 44.0576 245.688 47.0743 247.921C47.2978 248.088 47.4654 248.2 47.6888 248.367C58.1357 255.958 69.644 261.763 81.7668 265.391C85.2305 266.451 88.75 267.289 92.3254 268.014C98.6382 269.242 105.063 269.856 111.487 270.024C119.588 270.247 127.688 269.689 135.733 268.126C139.755 267.344 143.666 266.34 147.632 265.112C157.967 261.875 167.967 257.242 177.353 250.99Z" fill="#AA2A30"/>
<path d="M211.766 100.287C210.537 98.2223 209.755 95.9896 208.414 93.9803C204.001 87.3382 198.805 81.5891 193.274 76.2866L188.47 95.5989L138.526 87.0591L140.873 141.647L80.873 132.103L78.0238 185.016L11.879 171.899L8.13599 195.9C8.24772 196.123 8.30358 196.402 8.41531 196.626C9.53263 199.584 10.7617 202.486 12.1583 205.333C12.6611 206.393 13.1639 207.51 13.6667 208.626C15.622 212.477 17.8007 216.273 20.2588 219.901C20.4823 220.18 20.7057 220.459 20.9292 220.794C22.8286 223.585 24.9515 226.152 27.0185 228.72L31.4878 199.975L100.202 213.594L103.163 159.62L165.844 169.611L163.498 115.358L206.235 122.67L211.766 100.287Z" fill="#F0CAC9"/>
<path d="M227.241 148.792C226.682 141.257 225.453 133.777 223.33 126.41C223.274 126.242 223.219 126.019 223.219 125.851C222.269 122.502 221.096 119.209 219.811 115.916C219.643 115.47 219.531 115.079 219.364 114.632C216.459 107.544 212.883 100.623 208.414 93.9805C196.068 75.5613 179.252 62.0539 160.37 53.6815C160.37 53.6815 160.37 53.6815 160.314 53.6815C130.37 40.3973 95.2305 40.3415 64.5045 55.4676C64.0575 54.3513 63.5548 53.235 62.8285 52.1745C58.6386 45.9231 56.4598 39.8391 47.0186 43.7463C46.9627 40.0066 45.6778 35.7646 44.5046 32.2482C44.1135 31.0761 43.7783 30.0156 43.5549 29.0667C42.27 24.434 40.0912 17.6244 35.9013 11.8196C30.4265 4.22861 20.1472 -2.19021 9.58862 0.712214C7.354 1.32619 5.62216 2.21924 4.28139 3.50301C2.49369 5.17748 1.32051 7.57757 0.817724 10.6474C-0.299587 17.0663 1.48811 24.3781 5.90149 31.1319C9.25342 36.2669 13.8903 41.0113 19.6444 45.1975C23.6667 47.9883 28.6946 51.3372 33.4991 52.9001C26.5718 60.0445 31.2645 64.3981 35.3985 70.5937C36.1806 71.71 37.0745 72.7147 38.0242 73.5519C16.7953 92.8642 4.22552 118.93 1.59984 146.224V146.28C1.26465 150.02 1.09705 153.759 1.09705 157.499V157.555C1.15292 165.425 2.04677 173.295 3.7786 181.109C3.9462 182.002 4.22552 182.839 4.39312 183.732C5.17524 186.914 6.06909 190.096 7.13053 193.221C7.52159 194.338 7.91265 195.51 8.35958 196.626C9.47689 199.584 10.7059 202.487 12.1026 205.333C12.6054 206.45 13.1081 207.51 13.6109 208.626C15.5662 212.478 17.745 216.273 20.2031 219.901C20.4265 220.18 20.65 220.459 20.8735 220.794C23.2757 224.311 25.8455 227.604 28.527 230.729C28.8622 231.176 29.2533 231.511 29.6444 231.957C32.1024 234.692 34.6164 237.316 37.2979 239.827C37.6331 240.162 38.0242 240.441 38.3594 240.776C41.1527 243.344 44.0577 245.688 47.0744 247.921C47.2979 248.088 47.4655 248.2 47.6889 248.367C58.1358 255.958 69.6441 261.763 81.7669 265.391C85.2306 266.452 88.7501 267.289 92.3255 268.014C98.6383 269.242 105.063 269.856 111.487 270.024C119.588 270.247 127.688 269.689 135.733 268.126C139.755 267.345 143.666 266.34 147.632 265.112C157.912 261.931 167.912 257.298 177.297 250.991C179.811 249.316 182.157 247.53 184.448 245.688C214.727 221.855 229.811 185.184 227.241 148.792ZM22.9405 40.6206C17.6891 36.8251 13.5551 32.6389 10.5942 28.062C6.96294 22.4246 5.3987 16.5639 6.29255 11.5405C6.62774 9.69857 7.24226 8.30317 8.13611 7.46594C8.30371 7.29849 8.47131 7.13104 8.69477 7.01941C9.30929 6.6287 10.0914 6.2938 11.0411 6.01472C18.974 3.89372 27.1863 9.19623 31.4321 15.1127C34.2812 19.0198 36.3482 23.82 38.2477 30.5737C38.527 31.5784 38.918 32.7505 39.3091 33.9785C40.4823 37.6623 42.1024 42.6299 41.432 45.5324C41.2644 46.3138 41.0409 46.8161 40.8175 47.2068C40.5381 47.3743 40.3147 47.4859 39.9795 47.7092C39.7002 47.8766 39.5326 48.0441 39.2532 48.2115C37.4655 48.4906 33.0522 47.9325 22.9405 40.6206Z" fill="#DB344F"/>
<path d="M177.353 250.99C179.867 249.316 182.213 247.53 184.504 245.688C214.727 221.855 229.811 185.239 227.241 148.847C207.017 236.646 108.973 239.995 63.7781 197.91C4.61646 142.819 38.0241 73.5518 38.0241 73.5518C16.7951 92.8641 4.2254 118.93 1.59971 146.224V146.28C1.26452 150.02 1.09692 153.759 1.09692 157.499V157.555C1.15279 165.425 2.04664 173.295 3.77847 181.109C3.94607 182.002 4.2254 182.839 4.39299 183.732C5.17511 186.914 6.06896 190.095 7.13041 193.221C7.52146 194.337 7.91252 195.509 8.35945 196.626C9.47676 199.584 10.7058 202.486 12.1024 205.333C12.6052 206.449 13.108 207.51 13.6108 208.626C15.5661 212.477 17.7449 216.273 20.203 219.901C20.4264 220.18 20.6499 220.459 20.8733 220.794C23.2756 224.31 25.8454 227.604 28.5269 230.729C28.8621 231.176 29.2532 231.511 29.6442 231.957C32.1023 234.692 34.6163 237.316 37.2978 239.827C37.633 240.162 38.0241 240.441 38.3593 240.776C41.1525 243.288 44.0576 245.688 47.0743 247.921C47.2978 248.088 47.4654 248.2 47.6888 248.367C58.1357 255.958 69.644 261.763 81.7668 265.391C85.2305 266.451 88.75 267.289 92.3254 268.014C98.6382 269.242 105.063 269.856 111.487 270.024C119.588 270.247 127.688 269.689 135.733 268.126C139.755 267.344 143.666 266.34 147.632 265.112C157.967 261.875 167.967 257.242 177.353 250.99Z" fill="#C21B31"/>
<path d="M211.766 100.287C210.537 98.2223 209.755 95.9896 208.414 93.9803C204.001 87.3382 198.805 81.5891 193.274 76.2866L188.47 95.5989L138.526 87.0591L140.873 141.647L80.873 132.103L78.0238 185.016L11.879 171.899L8.13599 195.9C8.24772 196.123 8.30358 196.402 8.41531 196.626C9.53263 199.584 10.7617 202.486 12.1583 205.333C12.6611 206.393 13.1639 207.51 13.6667 208.626C15.622 212.477 17.8007 216.273 20.2588 219.901C20.4823 220.18 20.7057 220.459 20.9292 220.794C22.8286 223.585 24.9515 226.152 27.0185 228.72L31.4878 199.975L100.202 213.594L103.163 159.62L165.844 169.611L163.498 115.358L206.235 122.67L211.766 100.287Z" fill="#E8E7C4"/>
<path d="M64.5046 55.4674C64.0576 54.351 63.5549 53.2347 62.8286 52.1742C61.9348 50.8346 36.5159 71.8772 36.5159 71.8772C37.0187 72.4354 37.4656 73.0494 37.9684 73.5517C28.8065 81.8683 21.6557 91.6361 15.7898 102.018L20.8177 125.963L21.7674 124.567C45.7896 90.129 80.8173 64.7886 121.096 52.7324L93.7781 45.9229C83.8899 47.7648 74.0017 50.8346 64.5046 55.4674Z" fill="#E8E7C4"/>
<path d="M149.42 70.7611C148.805 77.9056 138.526 82.929 126.459 81.8685C114.392 80.8638 105.063 74.2217 105.677 67.0215C106.292 59.877 116.571 54.8536 128.638 55.9141C140.705 56.9746 150.034 63.5609 149.42 70.7611Z" fill="#DE5E73"/>
</svg>
