<svg width="408" height="573" viewBox="0 0 408 573" fill="none" xmlns="http://www.w3.org/2000/svg">
<g clip-path="url(#clip0_60_863)">
<path d="M392.05 460.403C391.44 459.789 390.831 459.176 390.221 458.563C378.944 447.222 367.972 435.983 358.727 422.802C351.006 411.665 345.723 398.382 336.072 388.675C328.554 381.114 317.785 380.501 307.727 379.48C288.831 377.538 269.731 377.743 250.733 377.947C239.761 378.049 228.383 378.253 218.528 383.158C212.737 386.019 207.861 390.412 204 395.521C200.139 390.31 195.263 386.019 189.472 383.158C179.618 378.253 168.239 378.049 157.267 377.947C138.269 377.743 119.169 377.538 100.273 379.48C90.2152 380.501 79.4462 381.114 71.9283 388.675C62.3785 398.382 57.0956 411.665 49.2729 422.802C40.0279 435.983 29.0558 447.222 17.7789 458.563C17.1693 459.176 16.5598 459.789 15.9502 460.403C8.02591 467.964 -2.03186 476.24 0.406387 488.501C4.47013 508.834 29.6654 499.944 41.4502 494.223C49.9841 490.136 58.6195 486.049 67.1534 481.962C57.9084 486.355 57.7052 499.025 63.496 506.382C71.1156 516.19 86.6594 513.84 97.1235 510.979C103.93 509.14 110.534 506.586 116.731 503.316C121.201 501.068 136.643 494.631 138.472 489.931C133.9 501.579 135.831 515.475 150.663 516.19C166.715 517.008 184.9 510.366 197.396 500.455C200.038 498.31 202.273 496.062 204.102 493.507C205.93 495.96 208.165 498.31 210.807 500.455C223.303 510.366 241.59 517.11 257.54 516.19C272.271 515.373 274.303 501.579 269.731 489.931C271.56 494.631 287.002 500.966 291.472 503.316C297.771 506.586 304.375 509.14 311.08 510.979C321.442 513.84 336.986 516.19 344.707 506.382C350.498 499.025 350.295 486.355 341.05 481.962C349.584 486.049 358.219 490.136 366.753 494.223C378.538 499.944 403.733 508.732 407.797 488.501C410.134 476.24 399.974 467.964 392.05 460.403Z" fill="#2A488A"/>
<path opacity="0.31" d="M378.436 446.507C371.426 439.048 364.62 431.283 358.727 422.7C351.006 411.563 345.723 398.28 336.072 388.573C328.554 381.012 317.785 380.399 307.727 379.377C288.831 377.436 269.731 377.64 250.733 377.845C239.761 377.947 228.382 378.151 218.528 383.056C212.737 385.917 207.861 390.31 204 395.419C200.139 390.208 195.263 385.917 189.472 383.056C179.617 378.151 168.239 377.947 157.267 377.845C138.269 377.64 119.169 377.436 100.273 379.377C90.2151 380.399 79.4462 381.012 71.9283 388.573C62.3785 398.28 57.0956 411.563 49.2729 422.7C43.2789 431.283 36.5737 438.946 29.5637 446.507C37.996 450.9 51.9143 445.791 59.5338 442.113C67.1534 438.435 74.7729 434.859 82.3924 431.18C74.1633 435.165 73.9601 446.302 79.1414 452.842C85.9482 461.526 99.7649 459.483 109.01 456.929C115.004 455.294 120.896 452.944 126.484 450.083C130.446 448.039 144.161 442.317 145.787 438.23C141.723 448.652 143.45 460.913 156.556 461.629C170.779 462.344 187.034 456.418 198.108 447.631C200.444 445.791 202.476 443.646 204.102 441.5C205.727 443.748 207.657 445.791 210.096 447.631C221.271 456.418 237.424 462.446 251.647 461.629C264.753 460.913 266.582 448.652 262.416 438.23C264.042 442.317 277.757 448.039 281.719 450.083C287.307 452.944 293.098 455.294 299.193 456.929C308.438 459.483 322.255 461.526 329.062 452.842C334.141 446.302 334.04 435.063 325.811 431.18C333.43 434.859 341.05 438.435 348.669 442.113C356.187 445.791 370.106 450.9 378.436 446.507Z" fill="#202774"/>
<path d="M371.122 389.595C370.512 389.084 370.004 388.471 369.496 387.96C359.438 377.845 349.685 367.832 341.558 356.184C334.649 346.273 329.976 334.522 321.442 325.837C314.737 319.094 305.187 318.583 296.247 317.663C279.383 315.926 262.416 316.131 245.552 316.233C235.799 316.335 225.741 316.539 216.902 320.831C211.721 323.385 207.454 327.268 204 331.866C200.546 327.268 196.279 323.385 191.098 320.831C182.361 316.539 172.201 316.335 162.448 316.233C145.584 316.029 128.618 315.926 111.753 317.663C102.813 318.583 93.263 319.094 86.5578 325.837C78.024 334.42 73.3507 346.273 66.4423 356.184C58.2132 367.934 48.5618 377.947 38.504 387.96C37.9961 388.471 37.3865 389.084 36.8785 389.595C29.8686 396.338 20.8268 403.695 23.0618 414.628C26.7192 432.713 49.0698 424.743 59.5339 419.737C67.1534 416.058 74.773 412.482 82.3925 408.804C74.1634 412.789 73.9602 423.926 79.1415 430.465C85.9483 439.15 99.765 437.106 109.01 434.552C115.004 432.917 120.896 430.567 126.484 427.706C130.446 425.663 144.161 419.941 145.787 415.854C141.723 426.276 143.45 438.537 156.556 439.252C170.779 439.967 187.034 434.041 198.108 425.254C200.444 423.415 202.476 421.269 204.102 419.124C205.727 421.371 207.657 423.415 210.096 425.254C221.271 434.041 237.424 440.07 251.647 439.252C264.753 438.537 266.582 426.276 262.416 415.854C264.042 419.941 277.757 425.663 281.719 427.706C287.307 430.567 293.098 432.917 299.193 434.552C308.438 437.106 322.255 439.15 329.062 430.465C334.141 423.926 334.04 412.687 325.811 408.804C333.43 412.482 341.05 416.058 348.669 419.737C359.235 424.743 381.586 432.713 385.142 414.628C387.173 403.695 378.132 396.441 371.122 389.595Z" fill="#202774"/>
<path opacity="0.25" d="M341.558 356.184C334.649 346.273 329.976 334.522 321.442 325.837C314.737 319.094 305.187 318.583 296.247 317.663C279.382 315.926 262.416 316.131 245.552 316.233C235.799 316.335 225.741 316.539 216.902 320.831C211.721 323.385 207.454 327.268 204 331.866C200.546 327.268 196.279 323.385 191.098 320.831C182.361 316.539 172.201 316.335 162.448 316.233C145.584 316.029 128.617 315.926 111.753 317.663C102.813 318.583 93.2629 319.094 86.5577 325.837C78.0239 334.42 73.3506 346.273 66.4422 356.184C63.9023 359.862 61.1593 363.336 58.3147 366.81C63.5976 376.006 78.8366 370.59 86.4561 366.912C92.6533 363.949 98.8506 360.986 105.048 358.023C98.3426 361.19 98.241 370.284 102.406 375.699C107.892 382.749 119.169 381.114 126.687 379.071C131.564 377.743 136.339 375.903 140.91 373.553C144.161 371.919 155.235 367.218 156.556 363.847C153.203 372.327 154.625 382.238 165.394 382.851C176.976 383.464 190.183 378.662 199.225 371.408C201.155 369.875 202.781 368.24 204.102 366.401C205.422 368.24 207.048 369.875 208.978 371.408C218.02 378.56 231.227 383.464 242.809 382.851C253.476 382.34 254.898 372.327 251.546 363.847C252.867 367.218 264.042 371.816 267.191 373.553C271.763 375.903 276.436 377.743 281.414 379.071C288.932 381.114 300.209 382.851 305.695 375.699C309.861 370.386 309.759 361.292 303.054 358.023C309.251 360.986 315.448 363.949 321.645 366.912C329.265 370.59 344.504 376.006 349.888 366.81C346.841 363.336 344.098 359.862 341.558 356.184Z" fill="#181B43"/>
<path d="M339.831 325.838C339.323 325.429 338.916 324.918 338.51 324.509C330.382 316.335 322.458 308.161 315.753 298.659C310.165 290.587 306.305 280.983 299.396 274.035C294.012 268.517 286.189 268.108 278.976 267.393C265.261 265.963 251.546 266.167 237.729 266.269C229.805 266.371 221.576 266.474 214.464 270.05C210.299 272.093 206.743 275.261 204 279.041C201.257 275.261 197.701 272.195 193.536 270.05C186.424 266.576 178.195 266.371 170.271 266.269C156.556 266.167 142.739 265.963 129.024 267.393C121.709 268.108 113.988 268.517 108.604 274.035C101.695 281.085 97.8346 290.689 92.247 298.659C85.5418 308.161 77.7191 316.335 69.49 324.509C69.0836 324.918 68.5756 325.429 68.1693 325.838C62.48 331.355 55.1653 337.281 56.8924 346.17C59.8386 360.884 78.0238 354.447 86.5577 350.36C92.7549 347.397 98.9521 344.434 105.149 341.47C98.4442 344.638 98.3426 353.731 102.508 359.147C107.994 366.197 119.271 364.562 126.789 362.519C131.665 361.19 136.44 359.351 141.012 357.001C144.263 355.366 155.337 350.666 156.657 347.294C153.305 355.775 154.727 365.686 165.394 366.299C176.976 366.912 190.183 362.11 199.225 354.855C201.155 353.323 202.781 351.688 204.102 349.849C205.422 351.688 207.048 353.323 208.978 354.855C218.02 362.008 231.227 366.912 242.809 366.299C253.476 365.788 254.898 355.775 251.546 347.294C252.866 350.666 264.042 355.264 267.191 357.001C271.763 359.351 276.436 361.19 281.414 362.519C288.932 364.562 300.209 366.299 305.695 359.147C309.86 353.834 309.759 344.74 303.054 341.47C309.251 344.434 315.448 347.397 321.645 350.36C330.179 354.447 348.364 360.884 351.311 346.17C352.936 337.281 345.621 331.355 339.831 325.838Z" fill="#2A488A"/>
<path opacity="0.31" d="M324.287 309.489C321.341 306.016 318.496 302.439 315.854 298.659C310.267 290.587 306.406 280.983 299.498 274.035C294.113 268.517 286.291 268.108 279.078 267.393C265.362 265.963 251.647 266.167 237.831 266.269C229.906 266.371 221.677 266.474 214.566 270.05C210.4 272.093 206.845 275.261 204.102 279.041C201.358 275.261 197.803 272.195 193.637 270.05C186.526 266.576 178.297 266.371 170.372 266.269C156.657 266.167 142.841 265.963 129.125 267.393C121.811 268.108 114.09 268.517 108.705 274.035C101.797 281.085 97.9362 290.689 92.3485 298.659C89.7071 302.439 86.8625 306.016 83.9163 309.489C88.3864 316.846 100.882 312.453 107.08 309.387C112.159 306.935 117.341 304.483 122.42 302.031C116.934 304.687 116.833 312.146 120.185 316.642C124.757 322.466 134.002 321.137 140.199 319.401C144.263 318.277 148.225 316.744 151.882 314.803C154.524 313.474 163.769 309.592 164.886 306.833C162.143 313.781 163.362 322.057 172.1 322.568C181.649 323.079 192.52 319.094 200.038 313.168C201.663 311.942 202.984 310.511 204 309.081C205.117 310.511 206.438 311.942 207.962 313.168C215.48 319.094 226.351 323.079 235.9 322.568C244.739 322.057 245.958 313.883 243.113 306.833C244.231 309.592 253.476 313.474 256.117 314.803C259.876 316.744 263.839 318.277 267.801 319.401C273.998 321.137 283.243 322.466 287.815 316.642C291.269 312.248 291.167 304.687 285.58 302.031C290.659 304.483 295.841 306.935 300.92 309.387C307.321 312.35 319.817 316.846 324.287 309.489Z" fill="#202774"/>
<path d="M316.261 274.137C315.855 273.728 315.55 273.421 315.144 273.013C308.438 266.269 301.835 259.526 296.349 251.658C291.675 245.017 288.526 237.047 282.837 231.325C278.367 226.829 271.966 226.421 265.972 225.808C254.695 224.684 243.317 224.786 231.938 224.888C225.436 224.99 218.63 225.092 212.737 227.953C209.283 229.69 206.337 232.245 204.102 235.412C201.765 232.347 198.92 229.69 195.466 227.953C189.574 225.092 182.767 224.888 176.265 224.888C164.887 224.786 153.508 224.684 142.231 225.808C136.237 226.421 129.837 226.727 125.367 231.325C119.677 237.149 116.528 245.017 111.855 251.658C106.369 259.526 99.765 266.269 93.0599 273.013C92.6535 273.421 92.3487 273.728 91.9423 274.137C87.1674 278.632 81.1734 283.639 82.5957 290.893C85.034 303.052 100.07 297.739 107.08 294.367C112.159 291.915 117.341 289.463 122.42 287.011C116.934 289.667 116.833 297.126 120.185 301.622C124.757 307.446 134.002 306.118 140.199 304.381C144.263 303.257 148.225 301.724 151.883 299.783C154.524 298.454 163.769 294.572 164.887 291.813C162.144 298.761 163.363 307.037 172.1 307.548C181.649 308.059 192.52 304.074 200.038 298.148C201.663 296.922 202.984 295.491 204 294.061C205.118 295.491 206.438 296.922 207.962 298.148C215.48 304.074 226.351 308.059 235.901 307.548C244.739 307.037 245.958 298.863 243.114 291.813C244.231 294.572 253.476 298.454 256.118 299.783C259.877 301.724 263.839 303.257 267.801 304.381C273.998 306.118 283.243 307.446 287.815 301.622C291.269 297.228 291.167 289.667 285.58 287.011C290.659 289.463 295.841 291.915 300.92 294.367C308.032 297.739 322.966 303.052 325.404 290.893C327.03 283.639 321.036 278.632 316.261 274.137Z" fill="#202774"/>
<path opacity="0.25" d="M296.349 251.658C291.675 245.017 288.526 237.047 282.837 231.325C278.367 226.829 271.966 226.421 265.972 225.808C254.695 224.684 243.317 224.786 231.938 224.888C225.436 224.99 218.629 225.092 212.737 227.953C209.283 229.69 206.337 232.245 204.102 235.412C201.765 232.347 198.92 229.69 195.466 227.953C189.574 225.092 182.767 224.888 176.265 224.888C164.886 224.786 153.508 224.684 142.231 225.808C136.237 226.421 129.837 226.727 125.367 231.325C119.677 237.149 116.528 245.017 111.855 251.658C110.229 254.008 108.502 256.154 106.775 258.299C109.01 259.423 111.55 260.139 113.582 260.241C127.602 261.058 141.012 254.621 153.61 248.388C149.546 253.395 149.952 261.569 154.524 266.167C158.892 270.561 165.902 271.378 171.795 269.641C177.687 267.904 182.767 264.021 187.44 259.934C190.996 256.767 194.45 253.497 197.701 250.023C196.584 251.249 228.179 282.106 249.209 270.152C256.422 266.065 254.289 249.819 249.006 244.914C259.572 254.825 277.757 258.197 292.082 259.832C294.723 260.139 297.466 260.445 300.108 259.73C300.92 259.526 301.631 259.219 302.343 258.913C300.108 256.767 298.177 254.315 296.349 251.658Z" fill="#181B43"/>
<path d="M298.177 224.377C297.872 224.071 297.568 223.764 297.263 223.458C291.574 217.736 286.088 212.116 281.516 205.577C277.655 200.059 275.014 193.316 270.137 188.514C266.378 184.733 260.994 184.427 255.914 183.916C246.466 182.894 236.916 182.996 227.366 183.098C221.88 183.201 216.191 183.303 211.213 185.653C208.267 187.083 205.829 189.229 203.898 191.885C201.968 189.331 199.53 187.083 196.584 185.653C191.707 183.201 185.916 183.098 180.43 183.098C170.88 182.996 161.331 182.894 151.882 183.916C146.803 184.427 141.418 184.733 137.659 188.514C132.884 193.418 130.243 200.059 126.281 205.577C121.709 212.218 116.223 217.838 110.534 223.458C110.229 223.764 109.924 224.071 109.619 224.377C106.572 227.34 100.578 232.04 101.695 237.047C102.711 241.645 109.111 243.893 113.175 244.199C127.195 245.017 140.606 238.58 153.203 232.347C149.139 237.354 149.546 245.528 154.117 250.125C158.486 254.519 165.496 255.336 171.388 253.599C177.281 251.862 182.36 247.98 187.034 243.893C190.59 240.725 194.044 237.456 197.295 233.982C196.177 235.208 227.773 266.065 248.803 254.11C256.016 250.023 253.882 233.777 248.6 228.873C259.165 238.784 277.351 242.156 291.675 243.791C294.317 244.097 297.06 244.404 299.701 243.688C312.096 240.725 303.155 229.18 298.177 224.377Z" fill="#2A488A"/>
<path opacity="0.31" d="M281.414 205.577C277.554 200.059 274.912 193.316 270.036 188.514C266.277 184.733 260.892 184.427 255.813 183.916C246.364 182.894 236.815 182.996 227.265 183.098C221.779 183.201 216.09 183.303 211.111 185.653C208.165 187.083 205.727 189.229 203.797 191.885C201.866 189.331 199.428 187.083 196.482 185.653C191.605 183.201 185.815 183.098 180.329 183.098C170.779 182.996 161.229 182.894 151.781 183.916C146.701 184.427 141.317 184.733 137.558 188.514C132.783 193.418 130.141 200.059 126.179 205.577C124.655 207.723 123.03 209.766 121.404 211.81C123.436 213.444 126.484 214.262 128.617 214.364C140.301 215.079 151.273 209.766 161.839 204.555C158.486 208.744 158.791 215.488 162.55 219.268C166.105 222.947 171.998 223.662 176.874 222.232C181.751 220.801 185.916 217.531 189.777 214.16C192.723 211.605 195.568 208.847 198.311 205.986C197.396 207.007 223.506 232.551 240.98 222.64C246.974 219.268 245.145 205.781 240.777 201.694C249.514 209.868 264.55 212.627 276.436 214.058C278.671 214.364 280.906 214.568 283.04 213.955C284.564 213.547 285.681 213.036 286.494 212.321C284.97 210.277 283.141 207.927 281.414 205.577Z" fill="#202774"/>
<path d="M281.922 186.675C281.618 186.47 281.414 186.164 281.11 185.959C276.436 181.259 271.865 176.559 268.106 171.144C264.855 166.546 262.721 161.028 258.759 157.044C255.61 153.876 245.45 144.987 241.285 144.578C233.462 143.761 205.524 127.924 203.898 130.069C202.273 127.924 175.351 143.761 167.528 144.476C163.363 144.885 152.391 153.774 149.241 156.941C145.279 160.926 143.044 166.444 139.895 171.042C136.034 176.457 131.564 181.157 126.891 185.857C126.687 186.061 126.383 186.368 126.078 186.572C123.538 189.025 118.56 192.907 119.474 197.096C120.287 200.877 125.671 202.818 128.922 203.023C140.606 203.738 151.578 198.425 162.144 193.214C158.791 197.403 159.096 204.147 162.855 207.927C166.41 211.605 172.303 212.321 177.179 210.89C182.056 209.46 186.221 206.19 190.082 202.818C193.028 200.264 195.873 197.505 198.616 194.644C197.701 195.666 223.811 221.21 241.285 211.299C247.279 207.927 245.45 194.44 241.082 190.353C249.819 198.527 264.855 201.286 276.741 202.716C278.976 203.023 281.211 203.227 283.345 202.614C293.504 200.162 286.088 190.659 281.922 186.675Z" fill="#202774"/>
<path d="M208.165 2.24771L214.667 15.5305C215.277 16.7566 216.394 17.574 217.715 17.7784L232.243 19.9241C235.596 20.4349 236.916 24.522 234.478 26.9742L223.912 37.2939C222.896 38.2135 222.49 39.6439 222.693 40.9722L225.233 55.5833C225.843 58.9551 222.287 61.5095 219.239 59.9768L206.235 53.1311C205.016 52.518 203.594 52.518 202.375 53.1311L189.371 59.9768C186.323 61.6117 182.869 58.9551 183.377 55.5833L185.916 40.9722C186.12 39.6439 185.713 38.3156 184.697 37.2939L174.132 26.9742C171.693 24.6241 173.014 20.4349 176.367 19.9241L190.894 17.7784C192.215 17.574 193.333 16.7566 193.942 15.5305L200.444 2.24771C202.273 -0.715381 206.641 -0.715381 208.165 2.24771Z" fill="#DDA7BC"/>
<g opacity="0.49">
<path d="M204.711 7.56091C205.93 8.58267 206.337 10.1153 206.845 11.5458C207.251 12.9762 207.962 14.3045 208.572 15.6328C208.876 16.4502 209.384 17.1654 209.588 17.8806C209.791 18.3915 209.892 18.9024 210.197 19.4133C210.807 20.3328 211.721 20.7415 212.635 21.1503C213.855 21.6611 214.972 22.4785 216.293 22.7851C217.614 22.9894 219.036 23.0916 220.357 23.3981C221.677 23.6025 222.896 23.6025 224.116 23.7046C225.335 23.8068 226.655 24.1133 227.874 24.1133C227.874 23.8068 227.874 23.6025 227.874 23.2959H227.773C227.265 23.2959 227.265 24.1133 227.773 24.1133H227.874C228.382 24.1133 228.382 23.3981 227.874 23.2959C226.655 23.2959 225.436 22.9894 224.319 22.8872C222.998 22.6829 221.677 22.7851 220.357 22.5807C219.239 22.3764 218.121 22.172 217.004 22.0698C215.582 21.8655 214.464 21.0481 213.245 20.5372C212.534 20.2307 211.823 20.0263 211.315 19.5154C210.705 19.0046 210.604 18.2893 210.299 17.5741C209.892 16.2458 209.181 15.0197 208.572 13.7936C208.267 13.0784 207.962 12.4653 207.759 11.7501C207.454 11.0349 207.353 10.3197 207.048 9.60442C206.641 8.68484 206.032 7.76526 205.321 7.05004C204.914 6.64133 204.406 7.15221 204.711 7.56091Z" fill="white"/>
</g>
<g opacity="0.49">
<path d="M179.211 23.7046C179.922 23.7046 180.633 23.5003 181.243 23.3981C181.548 23.3981 181.853 23.2959 182.157 23.1938C182.564 23.1938 182.97 23.1938 183.275 23.0916C183.58 23.0916 183.986 22.9894 184.291 22.8872C184.697 22.7851 185.002 22.8872 185.408 22.8872C186.221 22.8872 187.034 22.8872 187.847 22.8872C188.355 22.8872 188.355 22.0698 187.847 22.0698C187.034 22.0698 186.221 22.0698 185.51 22.0698C185.104 22.0698 184.799 22.0698 184.392 22.0698C184.088 22.0698 183.681 22.172 183.376 22.2742C182.97 22.3763 182.564 22.3763 182.157 22.3763C181.853 22.3763 181.548 22.4785 181.243 22.4785C180.532 22.5807 179.821 22.7851 179.11 22.7851C178.703 22.9894 178.703 23.7046 179.211 23.7046Z" fill="white"/>
</g>
<g opacity="0.49">
<path d="M219.645 48.1246C219.95 48.4311 219.95 49.0442 220.052 49.4529C220.153 49.9637 220.458 50.4746 220.56 50.9855C220.661 51.4964 220.865 52.1094 220.865 52.6203C220.865 53.2333 221.068 53.8464 221.169 54.4595C221.271 54.9703 221.982 54.766 221.881 54.2551C221.779 53.9486 221.779 53.642 221.677 53.3355C221.576 53.029 221.576 52.7225 221.576 52.4159C221.576 52.1094 221.474 51.8029 221.373 51.4964C221.271 51.1898 221.271 50.8833 221.169 50.5768C220.966 50.0659 220.763 49.555 220.661 48.942C220.56 48.4311 220.458 47.9202 220.153 47.5115C219.849 47.205 219.341 47.818 219.645 48.1246Z" fill="white"/>
</g>
<path opacity="0.25" d="M268.106 171.042C264.855 166.444 262.721 160.926 258.759 156.941C255.61 153.774 245.45 144.885 241.285 144.476C233.462 143.659 205.524 127.821 203.898 129.967C202.273 127.821 175.351 143.659 167.528 144.374C163.362 144.783 152.39 153.672 149.241 156.839C145.279 160.824 143.044 166.342 139.894 170.94C139.59 171.45 139.183 171.859 138.777 172.37C139.59 172.676 140.504 172.779 141.418 172.983C156.657 175.129 171.592 166.648 182.665 156.022C181.751 162.561 184.189 169.407 188.862 174.005C196.584 181.464 206.641 181.464 214.058 174.005C218.629 169.305 221.372 162.97 222.388 156.533C233.665 167.466 250.123 171.553 265.769 171.348C266.582 171.246 267.394 171.246 268.106 171.042C268.207 171.144 268.106 171.042 268.106 171.042Z" fill="#181B43"/>
<path d="M269.223 145.6C269.02 145.396 268.817 145.191 268.613 144.987C258.149 134.463 249.311 122.304 241.691 109.43C238.339 103.81 234.986 98.0884 231.633 92.4687C228.382 86.9512 225.03 81.4338 220.458 77.0402C215.886 72.6467 209.689 69.4792 203.39 69.9901C198.412 70.2966 193.739 72.851 189.98 76.2228C186.221 79.5946 183.275 83.6816 180.43 87.7686C172.912 98.4971 165.699 109.532 158.486 120.567C152.593 129.558 147.006 137.426 139.488 144.987C139.285 145.191 139.082 145.396 138.878 145.6C135.627 148.767 132.275 156.533 135.729 160.518C137.151 162.152 139.386 162.765 141.52 162.97C156.759 165.115 171.693 156.635 182.767 146.009C181.852 152.548 184.291 159.394 188.964 163.992C196.685 171.45 206.743 171.45 214.159 163.992C218.731 159.291 221.474 152.957 222.49 146.52C233.767 157.452 250.225 161.539 265.87 161.335C268.004 161.335 270.34 161.131 272.169 160.109C278.265 156.431 272.576 148.87 269.223 145.6Z" fill="#2A488A"/>
<path d="M171.388 161.233C171.388 167.057 166.715 171.655 161.026 171.655C155.235 171.655 150.663 166.955 150.663 161.233C150.663 155.409 155.337 150.811 161.026 150.811C166.715 150.811 171.388 155.409 171.388 161.233Z" fill="#75C4C0"/>
<path d="M163.058 168.283C157.267 168.283 152.695 163.583 152.695 157.861C152.695 156.533 153 155.204 153.406 154.081C151.679 155.92 150.562 158.474 150.562 161.233C150.562 167.057 155.235 171.655 160.924 171.655C165.293 171.655 169.153 168.896 170.576 165.013C168.747 167.057 166.106 168.283 163.058 168.283Z" fill="#5CADA7"/>
<g opacity="0.37">
<path d="M158.893 155.818C159.502 155.818 160.112 155.715 160.721 155.715C161.026 155.715 161.331 155.715 161.636 155.715C161.94 155.715 162.347 155.818 162.652 155.92C163.261 156.124 163.871 156.431 164.277 156.839C164.48 157.044 164.683 157.146 164.887 157.35C165.09 157.555 165.191 157.861 165.395 158.065C165.598 158.27 166.106 158.168 166.004 157.759V157.657C166.004 157.146 165.191 157.146 165.191 157.657V157.759C165.395 157.657 165.598 157.555 165.801 157.452C165.598 157.248 165.496 156.941 165.293 156.737C165.09 156.533 164.887 156.328 164.683 156.124C164.277 155.613 163.566 155.307 162.956 155.102C162.651 155 162.245 154.898 161.839 154.796C161.534 154.694 161.229 154.796 160.823 154.796C160.518 154.796 160.213 154.796 159.807 154.796C159.401 154.796 159.096 154.898 158.791 154.898C158.385 155.102 158.385 155.818 158.893 155.818Z" fill="white"/>
</g>
<path d="M250.936 200.162C253.984 205.066 252.46 211.503 247.584 214.568C242.707 217.634 236.307 216.101 233.259 211.197C230.211 206.292 231.735 199.855 236.611 196.79C241.488 193.725 247.888 195.257 250.936 200.162Z" fill="#75C4C0"/>
<path d="M247.583 210.481C242.707 213.547 236.307 212.014 233.259 207.11C232.548 205.986 232.141 204.76 231.938 203.533C231.43 206.088 231.836 208.847 233.259 211.197C236.307 216.101 242.707 217.634 247.583 214.568C251.342 212.218 253.07 207.927 252.358 203.738C251.647 206.497 250.123 208.949 247.583 210.481Z" fill="#5CADA7"/>
<g opacity="0.37">
<path d="M237.424 202.205C237.932 201.899 238.339 201.49 238.847 201.183C239.05 201.081 239.355 200.877 239.558 200.672C239.863 200.468 240.167 200.468 240.472 200.366C241.082 200.162 241.793 200.059 242.504 200.264C242.809 200.366 243.012 200.366 243.317 200.468C243.52 200.57 243.825 200.672 244.028 200.775C244.333 200.877 244.637 200.468 244.434 200.162C244.434 200.162 244.434 200.059 244.333 200.059C244.028 199.651 243.418 200.059 243.723 200.468C243.723 200.468 243.723 200.57 243.825 200.57C243.926 200.366 244.129 200.162 244.231 199.957C243.926 199.855 243.723 199.753 243.418 199.651C243.114 199.549 242.809 199.549 242.504 199.446C241.793 199.344 240.98 199.344 240.371 199.549C240.066 199.651 239.761 199.753 239.456 199.855C239.151 199.957 238.948 200.162 238.643 200.366C238.339 200.57 238.034 200.672 237.831 200.877C237.526 201.081 237.323 201.286 237.018 201.49C236.612 201.796 237.018 202.409 237.424 202.205Z" fill="white"/>
</g>
<path d="M132.58 304.585C135.628 309.489 134.104 315.926 129.227 318.992C124.351 322.057 117.95 320.524 114.902 315.62C111.855 310.716 113.379 304.278 118.255 301.213C123.132 298.148 129.532 299.681 132.58 304.585Z" fill="#75C4C0"/>
<path d="M129.227 314.905C124.351 317.97 117.95 316.437 114.903 311.533C114.191 310.409 113.785 309.183 113.582 307.957C113.074 310.511 113.48 313.27 114.903 315.62C117.95 320.524 124.351 322.057 129.227 318.992C132.986 316.642 134.713 312.35 134.002 308.161C133.393 310.818 131.767 313.372 129.227 314.905Z" fill="#5CADA7"/>
<g opacity="0.37">
<path d="M119.169 306.526C119.677 306.22 120.084 305.811 120.592 305.505C120.795 305.402 121.1 305.198 121.303 304.994C121.608 304.789 121.912 304.789 122.217 304.687C122.827 304.483 123.538 304.381 124.249 304.585C124.554 304.687 124.757 304.687 125.062 304.789C125.265 304.891 125.57 304.994 125.773 305.096C126.078 305.198 126.383 304.789 126.179 304.483L126.078 304.381C125.773 303.972 125.163 304.381 125.468 304.789C125.468 304.789 125.468 304.891 125.57 304.891C125.671 304.687 125.875 304.483 125.976 304.278C125.671 304.176 125.468 304.074 125.163 303.972C124.859 303.87 124.554 303.87 124.249 303.768C123.538 303.665 122.725 303.665 122.116 303.87C121.811 303.972 121.506 304.074 121.201 304.176C120.897 304.278 120.693 304.483 120.389 304.687C120.084 304.892 119.779 304.994 119.576 305.198C119.271 305.402 119.068 305.607 118.763 305.811C118.357 306.118 118.763 306.833 119.169 306.526Z" fill="white"/>
</g>
<path d="M336.275 401.141C340.745 404.819 341.355 411.358 337.697 415.854C334.04 420.35 327.538 420.963 323.068 417.284C318.598 413.606 317.988 407.067 321.645 402.571C325.303 398.178 331.906 397.462 336.275 401.141Z" fill="#75C4C0"/>
<path d="M336.478 412.074C332.821 416.569 326.319 417.182 321.849 413.504C320.833 412.687 320.02 411.665 319.41 410.541C319.715 413.095 321.036 415.548 323.169 417.285C327.639 420.963 334.141 420.248 337.799 415.854C340.643 412.38 340.847 407.68 338.815 404.104C339.12 406.863 338.408 409.724 336.478 412.074Z" fill="#5CADA7"/>
<g opacity="0.37">
<path d="M324.185 407.476C324.592 406.965 324.896 406.454 325.303 406.045C325.506 405.841 325.608 405.637 325.811 405.33C326.014 405.126 326.319 404.921 326.522 404.717C327.03 404.308 327.639 404.104 328.249 403.9C328.351 403.9 328.554 403.9 328.655 403.9C328.757 403.9 328.859 403.797 329.062 403.797C329.366 403.797 329.671 403.9 329.976 403.9C330.382 403.9 330.484 403.389 330.179 403.184C329.773 402.878 329.265 403.389 329.671 403.695C329.773 403.695 329.773 403.797 329.874 403.797C329.976 403.593 329.976 403.287 330.078 403.082C329.773 403.082 329.366 402.98 329.062 402.98C328.859 402.98 328.757 403.082 328.655 403.082C328.554 403.082 328.351 403.082 328.249 403.082C327.639 403.184 326.928 403.491 326.42 403.9C326.115 404.104 325.811 404.308 325.608 404.513C325.404 404.717 325.201 405.024 325.1 405.228C324.896 405.534 324.693 405.739 324.49 405.943C324.287 406.25 324.084 406.556 323.88 406.76C323.372 407.374 323.88 407.884 324.185 407.476Z" fill="white"/>
</g>
<path d="M312.502 478.896C312.604 484.72 308.133 489.421 302.343 489.625C296.552 489.727 291.878 485.231 291.675 479.407C291.574 473.583 296.044 468.883 301.835 468.679C307.625 468.475 312.4 473.072 312.502 478.896Z" fill="#75C4C0"/>
<path d="M304.476 486.151C298.685 486.253 294.012 481.757 293.809 475.933C293.809 474.605 294.012 473.277 294.418 472.153C292.691 474.094 291.675 476.649 291.675 479.407C291.777 485.231 296.552 489.727 302.343 489.625C306.711 489.523 310.47 486.662 311.892 482.677C310.064 484.72 307.422 486.049 304.476 486.151Z" fill="#5CADA7"/>
<g opacity="0.37">
<path d="M299.904 473.788C300.514 473.788 301.124 473.685 301.733 473.685C302.038 473.685 302.343 473.583 302.647 473.685C302.952 473.685 303.359 473.788 303.663 473.89C304.273 473.992 304.882 474.299 305.289 474.809C305.492 475.014 305.695 475.116 305.898 475.32C306.102 475.525 306.203 475.831 306.406 476.035C306.61 476.24 307.118 476.138 307.016 475.729V475.627C307.016 475.116 306.203 475.116 306.203 475.627V475.729C306.406 475.627 306.61 475.525 306.813 475.422C306.61 475.218 306.508 474.912 306.305 474.707C306.102 474.503 305.898 474.299 305.594 474.094C305.187 473.685 304.374 473.277 303.765 473.072C303.46 472.97 303.054 472.868 302.647 472.868C302.343 472.868 302.038 472.868 301.631 472.868C301.327 472.868 301.022 472.868 300.616 472.868C300.209 472.868 299.904 472.97 299.6 472.97C299.396 473.072 299.396 473.788 299.904 473.788Z" fill="white"/>
</g>
<path d="M79.9542 497.697C83.0021 502.601 81.4782 509.038 76.6017 512.103C71.7252 515.169 65.3248 513.636 62.277 508.732C59.2291 503.827 60.7531 497.39 65.6295 494.325C70.506 491.26 76.9064 492.792 79.9542 497.697Z" fill="#75C4C0"/>
<path d="M76.6018 508.016C71.7253 511.082 65.3249 509.549 62.2771 504.645C61.5659 503.521 61.1595 502.294 60.9564 501.068C60.4484 503.623 60.8548 506.381 62.2771 508.732C65.3249 513.636 71.7253 515.169 76.6018 512.103C80.3607 509.753 82.0878 505.462 81.3767 501.273C80.7671 503.929 79.1416 506.484 76.6018 508.016Z" fill="#5CADA7"/>
<g opacity="0.37">
<path d="M66.4424 499.638C66.9503 499.331 67.3567 498.923 67.8647 498.616C68.0679 498.514 68.3727 498.31 68.5758 498.105C68.8806 497.901 69.1854 497.901 69.4902 497.799C70.0997 497.594 70.8109 497.492 71.5221 497.697C71.8268 497.799 72.03 497.799 72.3348 497.901C72.538 498.003 72.8428 498.105 73.046 498.207C73.3507 498.31 73.6555 497.901 73.4523 497.594L73.3507 497.492C73.046 497.083 72.4364 497.492 72.7412 497.901C72.7412 497.901 72.7412 498.003 72.8428 498.003C72.9444 497.799 73.1476 497.594 73.2491 497.39C72.9444 497.288 72.7412 497.186 72.4364 497.083C72.1316 496.981 71.8268 496.981 71.5221 496.879C70.8109 496.777 69.9982 496.777 69.3886 496.981C69.0838 497.083 68.779 497.186 68.4742 497.288C68.1695 497.39 67.9663 497.594 67.6615 497.799C67.3567 498.003 67.0519 498.105 66.8488 498.31C66.544 498.514 66.3408 498.718 66.036 498.923C65.6296 499.229 66.036 499.944 66.4424 499.638Z" fill="white"/>
</g>
<path d="M189.167 267.598C190.793 273.115 187.643 278.939 182.157 280.574C176.671 282.209 170.881 279.041 169.255 273.524C167.63 268.006 170.779 262.182 176.265 260.547C181.751 258.913 187.542 262.08 189.167 267.598Z" fill="#DADCE4"/>
<path d="M183.275 276.691C177.789 278.326 171.998 275.159 170.373 269.641C169.966 268.313 169.865 267.087 169.966 265.861C168.849 268.211 168.442 270.867 169.255 273.626C170.881 279.143 176.671 282.311 182.158 280.676C186.424 279.45 189.167 275.669 189.574 271.48C188.355 273.83 186.12 275.874 183.275 276.691Z" fill="#C3C7D5"/>
<g opacity="0.37">
<path d="M175.655 266.065C176.265 265.86 176.773 265.656 177.382 265.452C177.687 265.35 177.992 265.247 178.297 265.145C178.602 265.043 178.906 265.043 179.211 265.043C179.821 265.043 180.532 265.145 181.141 265.452C181.345 265.554 181.649 265.656 181.853 265.861C182.056 266.065 182.259 266.269 182.462 266.371C182.767 266.576 183.173 266.269 183.072 265.963V265.861C182.869 265.35 182.157 265.554 182.361 266.065V266.167C182.564 266.065 182.767 265.861 182.97 265.758C182.767 265.656 182.564 265.35 182.259 265.247C182.056 265.043 181.751 265.043 181.446 264.839C180.837 264.532 180.024 264.328 179.313 264.328C179.008 264.328 178.602 264.328 178.297 264.43C177.992 264.532 177.687 264.634 177.281 264.737C176.976 264.839 176.671 264.941 176.367 265.043C176.062 265.145 175.757 265.35 175.452 265.35C174.944 265.452 175.147 266.167 175.655 266.065Z" fill="white"/>
</g>
<path d="M245.856 106.262C247.482 111.78 244.332 117.604 238.846 119.239C233.36 120.874 227.57 117.706 225.944 112.189C224.319 106.671 227.468 100.847 232.954 99.2123C238.338 97.5775 244.129 100.745 245.856 106.262Z" fill="#DADCE4"/>
<path d="M239.862 115.458C234.376 117.093 228.586 113.926 226.96 108.408C226.554 107.08 226.452 105.854 226.554 104.628C225.436 106.978 225.03 109.634 225.843 112.393C227.468 117.91 233.259 121.078 238.745 119.443C243.012 118.217 245.755 114.437 246.161 110.247C244.942 112.597 242.707 114.539 239.862 115.458Z" fill="#C3C7D5"/>
<g opacity="0.37">
<path d="M232.345 104.73C232.954 104.525 233.462 104.321 234.072 104.117C234.376 104.015 234.681 103.912 234.986 103.81C235.291 103.708 235.596 103.708 235.9 103.708C236.51 103.708 237.221 103.81 237.831 104.117C238.034 104.219 238.339 104.321 238.542 104.525C238.745 104.73 238.948 104.934 239.151 105.036C239.456 105.241 239.863 104.934 239.761 104.628V104.525C239.558 104.015 238.847 104.219 239.05 104.73V104.832C239.253 104.73 239.456 104.525 239.659 104.423C239.456 104.321 239.253 104.015 238.948 103.912C238.745 103.708 238.44 103.708 238.135 103.504C237.526 103.197 236.713 102.993 236.002 102.993C235.697 102.993 235.291 102.993 234.986 103.095C234.681 103.095 234.376 103.299 233.97 103.401C233.665 103.504 233.361 103.606 233.056 103.708C232.751 103.81 232.446 104.015 232.141 104.015C231.633 104.117 231.837 104.832 232.345 104.73Z" fill="white"/>
</g>
<path d="M101.797 433.02C101.695 438.844 96.9204 443.441 91.2311 443.339C85.4403 443.237 80.8686 438.435 80.9702 432.713C81.0718 426.889 85.8467 422.291 91.5359 422.393C97.3267 422.495 101.898 427.298 101.797 433.02Z" fill="#DADCE4"/>
<path d="M93.3646 439.968C87.5738 439.865 83.002 435.063 83.1036 429.341C83.1036 428.013 83.4084 426.787 83.9164 425.561C82.0877 427.4 80.9702 429.954 80.9702 432.713C80.8686 438.537 85.4403 443.237 91.2311 443.339C95.5997 443.441 99.4602 440.683 101.086 436.8C99.0538 438.844 96.4124 439.968 93.3646 439.968Z" fill="#C3C7D5"/>
<g opacity="0.37">
<path d="M89.4025 427.502C90.0121 427.502 90.6217 427.4 91.2312 427.502C91.536 427.502 91.8408 427.502 92.1456 427.502C92.4504 427.502 92.8567 427.706 93.1615 427.809C93.7711 428.013 94.3806 428.32 94.787 428.728C94.9902 428.933 95.1934 429.035 95.3966 429.239C95.5998 429.443 95.7014 429.75 95.9045 429.954C96.1077 430.159 96.5141 430.056 96.5141 429.648V429.546C96.5141 429.035 95.8029 429.035 95.7013 429.546V429.648C95.9045 429.546 96.1077 429.443 96.3109 429.341C96.1077 429.137 96.0061 428.83 95.8029 428.626C95.5998 428.422 95.3966 428.217 95.1934 428.013C94.787 427.502 94.0759 427.196 93.4663 426.991C93.1615 426.889 92.7551 426.787 92.3488 426.685C92.044 426.583 91.7392 426.685 91.3328 426.685C91.028 426.685 90.7233 426.685 90.3169 426.685C89.9105 426.685 89.6057 426.787 89.301 426.685C88.8946 426.685 88.8946 427.502 89.4025 427.502Z" fill="white"/>
</g>
<path d="M283.345 280.88C287.51 284.865 287.713 291.506 283.751 295.696C279.789 299.885 273.185 300.089 269.02 296.104C264.855 292.12 264.651 285.478 268.614 281.289C272.576 277.1 279.078 276.895 283.345 280.88Z" fill="#DADCE4"/>
<path d="M282.735 291.813C278.773 296.002 272.169 296.207 268.004 292.222C266.988 291.302 266.277 290.28 265.769 289.156C265.871 291.711 266.988 294.265 269.02 296.207C273.185 300.191 279.789 299.987 283.751 295.798C286.799 292.528 287.408 287.93 285.58 284.15C285.681 286.806 284.767 289.565 282.735 291.813Z" fill="#C3C7D5"/>
<g opacity="0.37">
<path d="M270.849 286.398C271.255 285.989 271.56 285.478 271.966 285.069C272.169 284.865 272.373 284.661 272.576 284.456C272.779 284.252 273.084 284.048 273.389 283.945C273.896 283.639 274.506 283.332 275.116 283.332C275.217 283.332 275.319 283.332 275.522 283.332C275.725 283.332 275.827 283.23 276.03 283.23C276.335 283.23 276.64 283.332 277.046 283.332C277.351 283.332 277.554 282.924 277.351 282.719L277.249 282.617C276.843 282.311 276.335 282.822 276.741 283.128L276.843 283.23C276.944 283.026 277.046 282.822 277.147 282.617C276.843 282.617 276.436 282.515 276.132 282.515C275.928 282.515 275.827 282.617 275.624 282.617C275.522 282.617 275.319 282.617 275.217 282.617C274.506 282.719 273.896 282.924 273.287 283.332C272.982 283.537 272.779 283.639 272.474 283.843C272.271 284.048 272.068 284.354 271.865 284.559C271.661 284.763 271.458 284.967 271.255 285.274C271.052 285.58 270.849 285.785 270.645 286.091C269.934 286.193 270.442 286.704 270.849 286.398Z" fill="white"/>
</g>
<path d="M250.733 406.25C252.359 411.767 249.209 417.591 243.723 419.226C238.237 420.861 232.446 417.693 230.821 412.176C229.195 406.658 232.345 400.834 237.831 399.2C243.317 397.565 249.108 400.732 250.733 406.25Z" fill="#DADCE4"/>
<path d="M244.841 415.445C239.355 417.08 233.564 413.913 231.938 408.395C231.532 407.067 231.43 405.841 231.532 404.615C230.414 406.965 230.008 409.621 230.821 412.38C232.446 417.898 238.237 421.065 243.723 419.43C247.99 418.204 250.733 414.424 251.14 410.235C249.819 412.585 247.685 414.526 244.841 415.445Z" fill="#C3C7D5"/>
<g opacity="0.37">
<path d="M237.221 404.717C237.831 404.513 238.339 404.308 238.948 404.104C239.253 404.002 239.558 403.9 239.862 403.797C240.167 403.695 240.472 403.695 240.777 403.695C241.386 403.695 242.098 403.797 242.707 404.104C242.91 404.206 243.215 404.308 243.418 404.513C243.621 404.717 243.825 404.921 244.028 405.023C244.333 405.228 244.739 404.921 244.637 404.615V404.513C244.434 404.002 243.723 404.206 243.926 404.717V404.819C244.129 404.717 244.333 404.513 244.536 404.41C244.333 404.308 244.129 404.002 243.825 403.9C243.621 403.695 243.317 403.695 243.012 403.491C242.402 403.184 241.59 402.98 240.878 402.98C240.574 402.98 240.167 402.98 239.862 403.082C239.558 403.082 239.253 403.287 238.847 403.389C238.542 403.491 238.237 403.593 237.932 403.695C237.627 403.797 237.323 404.002 237.018 404.002C236.51 404.104 236.713 404.819 237.221 404.717Z" fill="white"/>
</g>
<path d="M180.633 480.633C182.259 486.151 179.11 491.975 173.624 493.61C168.137 495.244 162.347 492.077 160.721 486.559C159.096 481.042 162.245 475.218 167.731 473.583C173.217 471.948 179.008 475.116 180.633 480.633Z" fill="#DADCE4"/>
<path d="M174.741 489.829C169.255 491.464 163.464 488.297 161.839 482.779C161.432 481.451 161.331 480.225 161.432 478.999C160.315 481.349 159.908 484.005 160.721 486.764C162.347 492.281 168.138 495.449 173.624 493.814C177.89 492.588 180.634 488.807 181.04 484.618C179.719 486.968 177.586 488.91 174.741 489.829Z" fill="#C3C7D5"/>
<g opacity="0.37">
<path d="M167.121 479.101C167.731 478.896 168.239 478.692 168.849 478.488C169.153 478.385 169.458 478.283 169.763 478.181C170.068 478.079 170.372 478.079 170.677 478.079C171.287 478.079 171.998 478.181 172.607 478.488C172.811 478.59 173.115 478.692 173.319 478.896C173.522 479.101 173.725 479.305 173.928 479.407C174.233 479.612 174.639 479.305 174.538 478.999V478.896C174.335 478.386 173.623 478.59 173.827 479.101V479.203C174.03 479.101 174.233 478.896 174.436 478.794C174.233 478.692 174.03 478.386 173.725 478.283C173.522 478.079 173.217 478.079 172.912 477.875C172.303 477.568 171.49 477.364 170.779 477.364C170.474 477.364 170.068 477.364 169.763 477.466C169.458 477.466 169.153 477.67 168.747 477.772C168.442 477.875 168.137 477.977 167.833 478.079C167.528 478.181 167.223 478.386 166.918 478.386C166.41 478.488 166.613 479.305 167.121 479.101Z" fill="white"/>
</g>
<path d="M164.886 107.999C168.137 117.502 178.297 122.815 187.847 125.676C208.47 131.806 231.024 131.398 251.444 124.552C244.129 143.352 222.185 155.102 202.578 150.709C202.07 161.028 195.873 170.429 187.542 176.355C179.211 182.281 168.849 184.938 158.689 185.551C150.359 186.061 141.012 184.733 135.627 178.398C134.408 183.201 136.339 188.309 139.59 191.988C142.841 195.666 147.006 198.527 151.476 200.468C172.404 209.766 197.193 203.431 197.193 203.431C197.193 203.431 207.454 227.851 230.516 230.61C251.444 233.062 273.185 227.647 290.253 215.079" stroke="#477C97" stroke-width="0.25" stroke-miterlimit="10" stroke-linecap="round" stroke-linejoin="round"/>
<path d="M106.775 256.562C107.384 270.152 116.223 282.822 128.211 289.259C140.199 295.696 154.829 296.207 167.731 291.813C169.966 307.446 182.665 320.32 197.396 325.633C212.229 330.946 228.789 329.414 243.723 324.509C271.661 315.211 295.333 291.813 307.219 264.737C306.914 278.326 304.273 293.55 301.53 306.833C297.669 324.918 293.605 345.659 278.57 357.921C265.972 368.24 248.396 372.532 232.751 367.934C232.345 373.349 228.586 377.845 224.623 381.625C212.331 393.478 196.482 401.754 179.617 403.389C162.753 405.023 144.974 399.404 133.088 387.143C123.436 398.484 106.165 400.119 92.0437 395.419C87.0656 393.784 82.1891 391.332 78.3286 387.654C69.9979 379.582 68.3724 366.912 67.2549 355.366" stroke="#477C97" stroke-width="0.25" stroke-miterlimit="10" stroke-linecap="round" stroke-linejoin="round"/>
<path d="M45.4124 427.809C50.5936 435.37 55.8765 443.033 62.6833 449.061C73.249 458.359 87.0657 463.468 100.984 465C114.902 466.533 129.126 464.898 142.841 461.935C159.096 458.461 174.944 453.25 189.98 446.405C193.333 455.805 204.102 459.994 213.855 461.322C233.056 463.979 253.07 459.79 269.629 449.776C273.896 457.031 281.821 461.322 289.948 463.672C317.988 472.051 351.209 458.87 367.769 434.654" stroke="#477C97" stroke-width="0.25" stroke-miterlimit="10" stroke-linecap="round" stroke-linejoin="round"/>
<path d="M181.243 114.743C179.922 117.093 177.992 118.421 176.874 117.808C175.859 117.195 176.062 114.845 177.382 112.495C178.703 110.145 180.633 108.817 181.751 109.43C182.767 110.043 182.564 112.393 181.243 114.743Z" fill="#DDA7BC"/>
<path d="M216.191 145.6C214.87 147.95 212.94 149.278 211.823 148.665C210.807 148.052 211.01 145.702 212.331 143.352C213.651 141.002 215.582 139.674 216.699 140.287C217.715 140.9 217.512 143.25 216.191 145.6Z" fill="#DDA7BC"/>
<path d="M258.251 224.479C256.93 226.829 255 228.158 253.882 227.545C252.867 226.932 253.07 224.582 254.39 222.232C255.711 219.881 257.641 218.553 258.759 219.166C259.775 219.881 259.572 222.232 258.251 224.479Z" fill="#DDA7BC"/>
<path d="M200.952 221.823C199.631 224.173 197.701 225.501 196.584 224.888C195.568 224.275 195.771 221.925 197.092 219.575C198.412 217.225 200.343 215.897 201.46 216.51C202.476 217.123 202.273 219.575 200.952 221.823Z" fill="#DDA7BC"/>
<path d="M118.356 266.984C117.036 269.334 115.105 270.663 113.988 270.05C112.972 269.437 113.175 267.087 114.496 264.737C115.817 262.386 117.747 261.058 118.864 261.671C119.88 262.284 119.677 264.634 118.356 266.984Z" fill="#DDA7BC"/>
<path d="M233.564 321.648C232.243 323.998 230.313 325.327 229.195 324.714C228.179 324.101 228.382 321.75 229.703 319.4C231.024 317.05 232.954 315.722 234.072 316.335C235.088 316.948 234.884 319.298 233.564 321.648Z" fill="#DDA7BC"/>
<path d="M192.215 409.519C190.894 411.869 188.964 413.198 187.847 412.585C186.831 411.971 187.034 409.621 188.355 407.271C189.675 404.921 191.606 403.593 192.723 404.206C193.739 404.819 193.536 407.169 192.215 409.519Z" fill="#DDA7BC"/>
<path d="M207.149 452.842C205.829 455.192 203.898 456.52 202.781 455.907C201.765 455.294 201.968 452.944 203.289 450.594C204.61 448.244 206.54 446.915 207.657 447.528C208.775 448.141 208.47 450.492 207.149 452.842Z" fill="#DDA7BC"/>
<path d="M175.655 190.864C174.335 193.214 172.404 194.542 171.287 193.929C170.271 193.316 170.474 190.966 171.795 188.616C173.115 186.266 175.046 184.937 176.163 185.551C177.281 186.164 176.976 188.616 175.655 190.864Z" fill="#DDA7BC"/>
<path d="M120.897 295.491C119.576 297.841 117.646 299.17 116.528 298.557C115.512 297.944 115.715 295.594 117.036 293.243C118.357 290.893 120.287 289.565 121.405 290.178C122.42 290.791 122.217 293.141 120.897 295.491Z" fill="#DDA7BC"/>
<path d="M234.681 239.499C233.36 241.849 231.43 243.178 230.313 242.565C229.297 241.951 229.5 239.601 230.821 237.251C232.141 234.901 234.072 233.573 235.189 234.186C236.205 234.799 236.002 237.149 234.681 239.499Z" fill="#DDA7BC"/>
<path d="M189.066 311.737C187.745 314.087 185.815 315.416 184.697 314.803C183.681 314.19 183.884 311.839 185.205 309.489C186.526 307.139 188.456 305.811 189.574 306.424C190.59 307.037 190.386 309.387 189.066 311.737Z" fill="#DDA7BC"/>
<path d="M165.394 395.521C164.074 397.871 162.143 399.199 161.026 398.586C160.01 397.973 160.213 395.623 161.534 393.273C162.854 390.923 164.785 389.595 165.902 390.208C166.918 390.821 166.715 393.273 165.394 395.521Z" fill="#DDA7BC"/>
<path d="M354.663 443.748C353.343 446.098 351.412 447.426 350.295 446.813C349.279 446.2 349.482 443.85 350.803 441.5C352.124 439.15 354.054 437.822 355.171 438.435C356.187 439.048 355.984 441.5 354.663 443.748Z" fill="#DDA7BC"/>
<path d="M144.771 455.702C143.45 458.052 141.52 459.381 140.402 458.768C139.386 458.155 139.59 455.805 140.91 453.455C142.231 451.104 144.161 449.776 145.279 450.389C146.295 451.002 146.092 453.352 144.771 455.702Z" fill="#DDA7BC"/>
<path d="M77.2112 369.466C75.8905 371.816 73.9602 373.145 72.8427 372.532C71.8268 371.919 72.03 369.568 73.3507 367.218C74.6714 364.868 76.6017 363.54 77.7192 364.153C78.7351 364.868 78.5319 367.218 77.2112 369.466Z" fill="#DDA7BC"/>
<path d="M60.2449 434.041C58.9242 436.391 56.9939 437.72 55.8764 437.107C54.8605 436.493 55.0636 434.143 56.3844 431.793C57.7051 429.443 59.6354 428.115 60.7529 428.728C61.7688 429.341 61.5656 431.691 60.2449 434.041Z" fill="#DDA7BC"/>
<path d="M295.333 278.224C296.044 280.778 295.637 283.128 294.52 283.435C293.301 283.741 291.777 281.902 291.066 279.348C290.355 276.793 290.761 274.443 291.878 274.137C293.098 273.83 294.621 275.669 295.333 278.224Z" fill="#DDA7BC"/>
<path d="M299.295 301.826C300.006 304.381 299.6 306.731 298.482 307.037C297.263 307.344 295.739 305.505 295.028 302.95C294.317 300.396 294.723 298.046 295.841 297.739C296.958 297.433 298.584 299.17 299.295 301.826Z" fill="#DDA7BC"/>
<path d="M289.847 330.435C291.574 332.479 292.082 334.829 291.167 335.646C290.253 336.464 288.12 335.34 286.393 333.296C284.665 331.253 284.158 328.903 285.072 328.085C285.986 327.37 288.12 328.392 289.847 330.435Z" fill="#DDA7BC"/>
<path d="M259.673 358.942C261.401 360.986 261.908 363.336 260.994 364.153C260.08 364.971 257.946 363.847 256.219 361.803C254.492 359.76 253.984 357.41 254.899 356.592C255.914 355.775 258.048 356.899 259.673 358.942Z" fill="#DDA7BC"/>
<path d="M137.659 200.877C136.339 203.227 134.408 204.555 133.291 203.942C132.275 203.329 132.478 200.979 133.799 198.629C135.12 196.279 137.05 194.951 138.167 195.564C139.183 196.177 138.98 198.527 137.659 200.877Z" fill="#DDA7BC"/>
<path d="M214.261 122.304C214.769 124.96 214.261 127.208 213.042 127.515C211.823 127.719 210.4 125.88 209.892 123.224C209.384 120.567 209.892 118.319 211.111 118.013C212.331 117.808 213.753 119.75 214.261 122.304Z" fill="#DDA7BC"/>
<path d="M187.135 169.1C187.643 171.757 187.135 174.005 185.916 174.311C184.697 174.516 183.275 172.676 182.767 170.02C182.259 167.363 182.767 165.115 183.986 164.809C185.205 164.605 186.627 166.546 187.135 169.1Z" fill="#DDA7BC"/>
<path d="M190.488 196.586C190.996 199.242 190.488 201.49 189.269 201.797C188.05 202.001 186.628 200.162 186.12 197.505C185.612 194.849 186.12 192.601 187.339 192.294C188.456 192.09 189.879 194.031 190.488 196.586Z" fill="#DDA7BC"/>
<path d="M236.815 152.65C237.323 155.307 236.815 157.555 235.596 157.861C234.377 158.065 232.954 156.226 232.446 153.57C231.938 150.913 232.446 148.665 233.665 148.359C234.783 148.154 236.205 149.994 236.815 152.65Z" fill="#DDA7BC"/>
<path d="M284.259 227.953C284.767 230.61 284.259 232.858 283.04 233.164C281.821 233.369 280.398 231.529 279.89 228.873C279.382 226.216 279.89 223.969 281.109 223.662C282.329 223.355 283.751 225.297 284.259 227.953Z" fill="#DDA7BC"/>
<path d="M222.084 219.473C222.592 222.129 222.084 224.377 220.864 224.684C219.645 224.888 218.223 223.049 217.715 220.392C217.207 217.736 217.715 215.488 218.934 215.182C220.052 214.977 221.474 216.918 222.084 219.473Z" fill="#DDA7BC"/>
<path d="M166.41 304.176C165.496 306.731 163.871 308.365 162.753 307.957C161.636 307.548 161.331 305.198 162.245 302.644C163.159 300.089 164.785 298.454 165.902 298.863C167.02 299.272 167.223 301.622 166.41 304.176Z" fill="#DDA7BC"/>
<path d="M138.066 400.528C137.151 403.082 135.526 404.717 134.408 404.308C133.291 403.9 132.986 401.549 133.9 398.995C134.815 396.441 136.44 394.806 137.558 395.215C138.675 395.623 138.878 398.076 138.066 400.528Z" fill="#DDA7BC"/>
<path d="M118.458 472.868C117.544 475.422 115.918 477.057 114.801 476.648C113.683 476.24 113.379 473.89 114.293 471.335C115.207 468.781 116.833 467.146 117.95 467.555C119.169 467.963 119.373 470.314 118.458 472.868Z" fill="#DDA7BC"/>
<path d="M80.4622 399.506C79.5478 402.06 77.9223 403.695 76.8048 403.286C75.6873 402.878 75.3825 400.528 76.2968 397.973C77.2112 395.419 78.8367 393.784 79.9542 394.193C81.0717 394.602 81.2749 397.054 80.4622 399.506Z" fill="#DDA7BC"/>
<path d="M271.865 461.016C270.95 463.57 269.325 465.205 268.207 464.796C267.09 464.387 266.785 462.037 267.699 459.483C268.614 456.929 270.239 455.294 271.357 455.702C272.474 456.111 272.677 458.461 271.865 461.016Z" fill="#DDA7BC"/>
<path d="M63.0896 461.016C62.1753 463.57 60.5498 465.205 59.4323 464.796C58.3147 464.387 58.0099 462.037 58.9243 459.483C59.8386 456.929 61.4641 455.294 62.5817 455.702C63.6992 456.111 64.004 458.461 63.0896 461.016Z" fill="#DDA7BC"/>
<path d="M258.454 327.881C257.54 330.435 255.914 332.07 254.797 331.661C253.679 331.253 253.374 328.903 254.289 326.348C255.203 323.794 256.829 322.159 257.946 322.568C259.064 322.977 259.267 325.429 258.454 327.881Z" fill="#DDA7BC"/>
<path d="M235.189 380.91C235.697 383.567 235.189 385.815 233.97 386.121C232.751 386.325 231.329 384.486 230.821 381.83C230.313 379.173 230.821 376.925 232.04 376.619C233.157 376.312 234.58 378.254 235.189 380.91Z" fill="#DDA7BC"/>
<path d="M334.243 469.19C334.751 471.846 334.243 474.094 333.024 474.401C331.805 474.605 330.382 472.766 329.874 470.109C329.367 467.453 329.874 465.205 331.094 464.898C332.313 464.694 333.735 466.635 334.243 469.19Z" fill="#DDA7BC"/>
<path d="M304.781 325.327C303.054 327.37 300.92 328.392 300.006 327.574C299.092 326.757 299.701 324.509 301.428 322.466C303.155 320.422 305.289 319.4 306.203 320.218C307.117 321.035 306.508 323.283 304.781 325.327Z" fill="#DDA7BC"/>
<path d="M152.695 177.785C153.203 180.442 152.695 182.69 151.476 182.996C150.257 183.201 148.835 181.361 148.327 178.705C147.819 176.048 148.327 173.8 149.546 173.494C150.765 173.29 152.187 175.129 152.695 177.785Z" fill="#DDA7BC"/>
<path d="M162.753 210.89C163.261 213.547 162.753 215.795 161.534 216.101C160.315 216.305 158.892 214.466 158.385 211.81C157.877 209.153 158.385 206.905 159.604 206.599C160.823 206.394 162.245 208.234 162.753 210.89Z" fill="#DDA7BC"/>
<path d="M148.428 287.011C148.936 289.667 148.428 291.915 147.209 292.222C145.99 292.426 144.568 290.587 144.06 287.93C143.552 285.274 144.06 283.026 145.279 282.719C146.498 282.515 147.92 284.456 148.428 287.011Z" fill="#DDA7BC"/>
<path d="M271.255 303.665C271.763 306.322 271.255 308.57 270.036 308.876C268.817 309.081 267.394 307.242 266.886 304.585C266.378 301.928 266.886 299.681 268.106 299.374C269.325 299.17 270.747 301.111 271.255 303.665Z" fill="#DDA7BC"/>
<path d="M210.502 334.522C211.01 337.179 210.502 339.427 209.283 339.733C208.064 339.938 206.641 338.099 206.134 335.442C205.626 332.785 206.134 330.538 207.353 330.231C208.47 329.925 209.892 331.866 210.502 334.522Z" fill="#DDA7BC"/>
<path d="M210.502 384.486C211.01 387.143 210.502 389.391 209.283 389.697C208.064 389.901 206.641 388.062 206.134 385.406C205.626 382.749 206.134 380.501 207.353 380.195C208.47 379.99 209.892 381.83 210.502 384.486Z" fill="#DDA7BC"/>
<path d="M300.616 456.826C301.124 459.483 300.616 461.731 299.396 462.037C298.177 462.242 296.755 460.403 296.247 457.746C295.739 455.089 296.247 452.842 297.466 452.535C298.584 452.229 300.006 454.17 300.616 456.826Z" fill="#DDA7BC"/>
<path d="M221.576 468.168C222.084 470.824 221.576 473.072 220.357 473.379C219.138 473.583 217.715 471.744 217.207 469.087C216.699 466.431 217.207 464.183 218.426 463.876C219.544 463.672 220.966 465.613 221.576 468.168Z" fill="#DDA7BC"/>
<path d="M177.586 459.79C178.094 462.446 177.586 464.694 176.366 465C175.147 465.205 173.725 463.366 173.217 460.709C172.709 458.053 173.217 455.805 174.436 455.498C175.655 455.192 177.078 457.133 177.586 459.79Z" fill="#DDA7BC"/>
<path d="M108.197 388.778C108.705 391.434 108.197 393.682 106.978 393.989C105.759 394.193 104.337 392.354 103.829 389.697C103.321 387.041 103.829 384.793 105.048 384.486C106.267 384.282 107.689 386.223 108.197 388.778Z" fill="#DDA7BC"/>
<path d="M247.279 451.615C247.787 454.272 247.279 456.52 246.06 456.826C244.841 457.031 243.418 455.192 242.91 452.535C242.402 449.878 242.91 447.631 244.13 447.324C245.349 447.12 246.771 448.959 247.279 451.615Z" fill="#DDA7BC"/>
<path d="M94.8885 454.987C95.3965 457.644 94.8885 459.892 93.6694 460.198C92.4503 460.403 91.028 458.563 90.52 455.907C90.012 453.25 90.52 451.002 91.7391 450.696C92.9583 450.492 94.3806 452.433 94.8885 454.987Z" fill="#DDA7BC"/>
<path d="M288.729 359.862C289.237 362.518 288.729 364.766 287.51 365.073C286.291 365.277 284.869 363.438 284.361 360.782C283.853 358.125 284.361 355.877 285.58 355.571C286.799 355.366 288.221 357.308 288.729 359.862Z" fill="#DDA7BC"/>
<path d="M192.926 133.85C193.231 136.506 192.418 138.754 191.199 138.856C189.98 138.958 188.761 136.915 188.558 134.258C188.253 131.602 189.066 129.354 190.285 129.252C191.402 129.15 192.621 131.193 192.926 133.85Z" fill="#DDA7BC"/>
<path d="M235.9 133.85C237.627 135.893 238.339 138.141 237.424 138.959C236.51 139.776 234.376 138.754 232.548 136.813C230.821 134.769 230.109 132.522 231.024 131.704C231.938 130.887 234.072 131.806 235.9 133.85Z" fill="#DDA7BC"/>
<path d="M207.353 163.685C209.08 165.729 209.791 167.976 208.877 168.794C207.962 169.611 205.829 168.589 204 166.648C202.273 164.605 201.562 162.357 202.476 161.539C203.492 160.722 205.626 161.642 207.353 163.685Z" fill="#DDA7BC"/>
<path d="M255.192 336.091C258.492 362.642 240.107 386.822 213.707 390.615C187.308 393.934 163.265 375.443 159.494 348.892C156.194 322.341 174.579 298.161 200.979 294.368C227.378 291.049 251.421 309.54 255.192 336.091Z" fill="#75C4C0"/>
<path d="M221.25 373.546C194.851 376.865 170.808 358.374 167.037 331.824C166.094 325.66 166.566 319.496 167.98 313.807C160.909 323.289 157.609 335.617 159.023 348.418C162.323 374.969 186.837 393.934 213.236 390.141C233.507 387.296 249.064 372.598 253.779 353.633C246.236 364.538 234.922 371.65 221.25 373.546Z" fill="#5CADA7"/>
<g opacity="0.37">
<path d="M193.908 319.024C196.737 318.55 199.094 318.076 201.922 317.602C203.337 317.602 204.751 317.127 205.694 317.127C207.108 317.127 208.994 317.127 210.408 317.602C213.236 318.076 216.536 319.024 218.894 320.92C219.836 321.869 221.251 322.343 222.193 323.291C223.136 324.239 223.608 325.187 225.022 326.136C226.436 327.084 228.322 326.136 227.85 324.239V323.765C227.379 321.394 224.079 322.343 224.551 324.713V325.187C225.493 324.713 226.436 324.239 227.379 323.291C226.436 322.343 225.493 320.92 224.551 319.972C223.608 319.024 222.193 318.55 221.251 317.602C218.894 315.705 215.122 314.283 212.294 313.809C210.879 313.809 208.994 313.334 207.579 313.334C206.165 313.334 204.751 313.809 202.865 313.809C201.451 314.283 200.037 314.283 198.622 314.283C196.737 314.757 195.322 315.231 193.908 315.231C192.022 315.705 192.022 319.498 193.908 319.024Z" fill="white"/>
</g>
<path d="M208.312 330.3L196.012 359H188.017L175.758 330.3H184.532L192.322 348.996L200.276 330.3H208.312ZM220.078 359.574C217.755 359.574 215.5 359.287 213.313 358.713C211.126 358.139 209.35 357.374 207.983 356.417L210.648 350.431C211.933 351.278 213.422 351.962 215.117 352.481C216.812 353 218.479 353.26 220.119 353.26C223.235 353.26 224.793 352.481 224.793 350.923C224.793 350.103 224.342 349.502 223.44 349.119C222.565 348.709 221.144 348.285 219.176 347.848C217.017 347.383 215.213 346.891 213.764 346.372C212.315 345.825 211.072 344.964 210.033 343.789C208.994 342.614 208.475 341.028 208.475 339.033C208.475 337.284 208.953 335.712 209.91 334.318C210.867 332.897 212.288 331.776 214.174 330.956C216.087 330.136 218.424 329.726 221.185 329.726C223.071 329.726 224.93 329.945 226.761 330.382C228.592 330.792 230.205 331.407 231.599 332.227L229.098 338.254C226.365 336.778 223.713 336.04 221.144 336.04C219.531 336.04 218.356 336.286 217.618 336.778C216.88 337.243 216.511 337.858 216.511 338.623C216.511 339.388 216.948 339.962 217.823 340.345C218.698 340.728 220.105 341.124 222.046 341.534C224.233 341.999 226.037 342.504 227.458 343.051C228.907 343.57 230.15 344.418 231.189 345.593C232.255 346.741 232.788 348.313 232.788 350.308C232.788 352.03 232.31 353.588 231.353 354.982C230.396 356.376 228.961 357.497 227.048 358.344C225.135 359.164 222.811 359.574 220.078 359.574Z" fill="#202774"/>
<path d="M60.7014 77.2959C59.1265 79.7942 55.8454 80.4516 53.6143 78.8738C51.2519 77.2959 50.7269 74.1403 52.3018 71.642C53.8768 69.1438 57.1578 68.4864 59.5202 70.0642C61.6201 71.642 62.2763 74.7977 60.7014 77.2959Z" fill="white"/>
<path d="M140.899 285.771V301H88.0335V288.972L113.448 265.207C115.905 262.879 117.554 260.907 118.395 259.29C119.235 257.609 119.656 255.927 119.656 254.246C119.656 252.047 118.912 250.334 117.425 249.105C115.937 247.876 113.771 247.262 110.926 247.262C108.404 247.262 106.076 247.844 103.942 249.008C101.872 250.107 100.159 251.724 98.8005 253.858L84.5415 245.904C87.1929 241.507 90.9112 238.047 95.6965 235.525C100.482 233.003 106.14 231.742 112.672 231.742C117.845 231.742 122.404 232.583 126.349 234.264C130.358 235.945 133.462 238.37 135.661 241.539C137.924 244.643 139.056 248.264 139.056 252.403C139.056 256.089 138.247 259.581 136.631 262.879C135.079 266.112 132.039 269.798 127.513 273.937L114.709 285.771H140.899ZM176.367 302.358C170.547 302.358 165.374 300.968 160.847 298.187C156.321 295.406 152.764 291.365 150.177 286.062C147.655 280.695 146.394 274.357 146.394 267.05C146.394 259.743 147.655 253.438 150.177 248.135C152.764 242.768 156.321 238.694 160.847 235.913C165.374 233.132 170.547 231.742 176.367 231.742C182.123 231.742 187.264 233.132 191.79 235.913C196.317 238.694 199.841 242.768 202.363 248.135C204.95 253.438 206.243 259.743 206.243 267.05C206.243 274.357 204.95 280.695 202.363 286.062C199.841 291.365 196.317 295.406 191.79 298.187C187.264 300.968 182.123 302.358 176.367 302.358ZM176.367 286.644C179.601 286.644 182.155 285.092 184.03 281.988C185.97 278.819 186.94 273.84 186.94 267.05C186.94 260.26 185.97 255.313 184.03 252.209C182.155 249.04 179.601 247.456 176.367 247.456C173.069 247.456 170.45 249.04 168.51 252.209C166.635 255.313 165.697 260.26 165.697 267.05C165.697 273.84 166.635 278.819 168.51 281.988C170.45 285.092 173.069 286.644 176.367 286.644ZM264.517 285.771V301H211.652V288.972L237.066 265.207C239.523 262.879 241.172 260.907 242.013 259.29C242.853 257.609 243.274 255.927 243.274 254.246C243.274 252.047 242.53 250.334 241.043 249.105C239.555 247.876 237.389 247.262 234.544 247.262C232.022 247.262 229.694 247.844 227.56 249.008C225.49 250.107 223.777 251.724 222.419 253.858L208.16 245.904C210.811 241.507 214.529 238.047 219.315 235.525C224.1 233.003 229.758 231.742 236.29 231.742C241.463 231.742 246.022 232.583 249.967 234.264C253.976 235.945 257.08 238.37 259.279 241.539C261.542 244.643 262.674 248.264 262.674 252.403C262.674 256.089 261.865 259.581 260.249 262.879C258.697 266.112 255.657 269.798 251.131 273.937L238.327 285.771H264.517ZM322.584 285.771V301H269.719V288.972L295.133 265.207C297.59 262.879 299.239 260.907 300.08 259.29C300.921 257.609 301.341 255.927 301.341 254.246C301.341 252.047 300.597 250.334 299.11 249.105C297.623 247.876 295.456 247.262 292.611 247.262C290.089 247.262 287.761 247.844 285.627 249.008C283.558 250.107 281.844 251.724 280.486 253.858L266.227 245.904C268.878 241.507 272.597 238.047 277.382 235.525C282.167 233.003 287.826 231.742 294.357 231.742C299.53 231.742 304.089 232.583 308.034 234.264C312.043 235.945 315.147 238.37 317.346 241.539C319.609 244.643 320.741 248.264 320.741 252.403C320.741 256.089 319.933 259.581 318.316 262.879C316.764 266.112 313.725 269.798 309.198 273.937L296.394 285.771H322.584Z" fill="white"/>
<path d="M94.3136 483.781V510H3.29857V489.292L47.0526 448.377C51.2832 444.369 54.1222 440.973 55.5696 438.19C57.0169 435.295 57.7406 432.401 57.7406 429.506C57.7406 425.721 56.4602 422.77 53.8996 420.655C51.3389 418.54 47.6092 417.482 42.7106 417.482C38.3686 417.482 34.3606 418.484 30.6866 420.488C27.1239 422.381 24.1736 425.164 21.8356 428.838L-2.71343 415.144C1.85124 407.573 8.25291 401.617 16.4916 397.275C24.7302 392.933 34.4719 390.762 45.7166 390.762C54.6232 390.762 62.4722 392.209 69.2636 395.104C76.1662 397.999 81.5102 402.174 85.2956 407.629C89.1922 412.973 91.1406 419.208 91.1406 426.333C91.1406 432.679 89.7489 438.691 86.9656 444.369C84.2936 449.936 79.0609 456.282 71.2676 463.407L49.2236 483.781H94.3136ZM155.378 512.338C145.358 512.338 136.452 509.944 128.658 505.157C120.865 500.37 114.742 493.411 110.288 484.282C105.946 475.041 103.775 464.131 103.775 451.55C103.775 438.969 105.946 428.114 110.288 418.985C114.742 409.744 120.865 402.73 128.658 397.943C136.452 393.156 145.358 390.762 155.378 390.762C165.287 390.762 174.138 393.156 181.931 397.943C189.725 402.73 195.792 409.744 200.134 418.985C204.588 428.114 206.814 438.969 206.814 451.55C206.814 464.131 204.588 475.041 200.134 484.282C195.792 493.411 189.725 500.37 181.931 505.157C174.138 509.944 165.287 512.338 155.378 512.338ZM155.378 485.284C160.945 485.284 165.343 482.612 168.571 477.268C171.911 471.813 173.581 463.24 173.581 451.55C173.581 439.86 171.911 431.343 168.571 425.999C165.343 420.544 160.945 417.816 155.378 417.816C149.7 417.816 145.191 420.544 141.851 425.999C138.623 431.343 137.008 439.86 137.008 451.55C137.008 463.24 138.623 471.813 141.851 477.268C145.191 482.612 149.7 485.284 155.378 485.284ZM307.141 483.781V510H216.126V489.292L259.88 448.377C264.11 444.369 266.949 440.973 268.397 438.19C269.844 435.295 270.568 432.401 270.568 429.506C270.568 425.721 269.287 422.77 266.727 420.655C264.166 418.54 260.436 417.482 255.538 417.482C251.196 417.482 247.188 418.484 243.514 420.488C239.951 422.381 237.001 425.164 234.663 428.838L210.114 415.144C214.678 407.573 221.08 401.617 229.319 397.275C237.557 392.933 247.299 390.762 258.544 390.762C267.45 390.762 275.299 392.209 282.091 395.104C288.993 397.999 294.337 402.174 298.123 407.629C302.019 412.973 303.968 419.208 303.968 426.333C303.968 432.679 302.576 438.691 299.793 444.369C297.121 449.936 291.888 456.282 284.095 463.407L262.051 483.781H307.141ZM376.718 439.86C386.404 441.864 393.808 445.872 398.929 451.884C404.162 457.785 406.778 464.966 406.778 473.427C406.778 480.33 404.886 486.731 401.1 492.632C397.426 498.533 391.748 503.32 384.066 506.994C376.496 510.557 367.088 512.338 355.843 512.338C347.605 512.338 339.422 511.336 331.294 509.332C323.278 507.328 316.32 504.489 310.419 500.815L322.443 475.932C327.008 479.049 332.129 481.443 337.807 483.113C343.597 484.783 349.275 485.618 354.841 485.618C360.519 485.618 365.028 484.56 368.368 482.445C371.708 480.33 373.378 477.324 373.378 473.427C373.378 465.856 367.422 462.071 355.509 462.071H341.648V441.196L362.523 418.651H316.431V393.1H400.933V413.808L376.718 439.86Z" fill="white"/>
</g>
<defs>
<clipPath id="clip0_60_863">
<rect width="408" height="573" fill="white"/>
</clipPath>
</defs>
</svg>
