<svg width="743" height="503" viewBox="0 0 743 503" fill="none" xmlns="http://www.w3.org/2000/svg">
<path d="M622.927 95.1326C609.158 73.7958 588.089 62.9348 567.482 54.6928C529.594 39.4413 490.598 29.8898 451.601 20.3383C405.119 8.93817 358.083 -2.46199 310.77 0.46508C268.262 3.16106 226.77 17.4113 186.111 33.4331C137.134 52.6131 86.5864 76.1837 52.2103 124.942C32.4348 152.981 19.2203 187.797 10.0719 223.769C2.86399 251.962 -2.03368 281.849 0.830995 311.273C5.35903 357.028 28.646 397.16 57.6624 424.274C86.6788 451.31 121.24 466.87 155.801 479.272C193.411 492.829 232.038 503.227 271.127 502.996C320.011 502.688 367.694 485.819 415.931 475.497C465.647 464.867 516.195 461.093 565.634 448.537C615.072 435.982 664.419 413.644 702.399 371.047C722.082 349.017 738.808 320.286 742.319 287.009C745.553 256.198 736.959 224.771 723.006 199.275C709.052 173.855 690.201 153.674 670.795 135.033C651.481 116.392 631.429 99.061 610.729 82.9621" fill="#F7E4C4"/>
</svg>
