<svg width="440" height="962" viewBox="0 0 440 962" fill="none" xmlns="http://www.w3.org/2000/svg">
<g clip-path="url(#clip0_55_256)">
<path d="M155.8 863.9C146.9 863.9 139.7 857 139.7 848.4C139.7 839.8 146.9 833 155.8 833C164.7 833 171.9 839.9 171.9 848.5C171.9 857.1 164.7 863.9 155.8 863.9Z" fill="white"/>
<path d="M286.6 960.6C282.9 958.1 281.8 953.3 284.1 949.7C286.5 946.1 291.4 945.2 295.1 947.7C298.8 950.2 299.9 955 297.6 958.6C295.2 962.2 290.3 963.1 286.6 960.6Z" fill="white"/>
<path d="M82.6999 954.1C80.4999 954.1 78.6999 952.4 78.6999 950.2C78.6999 948.1 80.4999 946.3 82.6999 946.3C84.8999 946.3 86.6999 948 86.6999 950.2C86.7999 952.4 84.9999 954.1 82.6999 954.1Z" fill="white"/>
<path d="M41.1999 776.3C38.9999 776.3 37.1999 774.6 37.1999 772.4C37.1999 770.3 38.9999 768.5 41.1999 768.5C43.3999 768.5 45.1999 770.2 45.1999 772.4C45.2999 774.5 43.4999 776.3 41.1999 776.3Z" fill="white"/>
<path d="M397.9 851.8C393.4 851.8 389.8 848.3 389.8 844.1C389.8 839.9 393.4 836.4 397.9 836.4C402.4 836.4 406 839.9 406 844.1C406 848.3 402.4 851.8 397.9 851.8Z" fill="white"/>
<path d="M331.5 816.8C323.5 816.8 317 810.6 317 802.9C317 795.2 323.5 789 331.5 789C339.5 789 346 795.2 346 802.9C346 810.6 339.5 816.8 331.5 816.8Z" fill="white"/>
<path d="M162.6 928.9C158.1 928.9 154.5 925.4 154.5 921.2C154.5 916.9 158.1 913.5 162.6 913.5C167.1 913.5 170.7 917 170.7 921.2C170.6 925.4 167 928.9 162.6 928.9Z" fill="white"/>
<path d="M229 14.8999C224.7 14.8999 221.2 11.5999 221.2 7.3999C221.2 3.2999 224.7 -0.100098 229 -0.100098C233.3 -0.100098 236.8 3.1999 236.8 7.3999C236.8 11.5999 233.3 14.8999 229 14.8999Z" fill="white"/>
</g>
<defs>
<clipPath id="clip0_55_256">
<rect width="962" height="439.9" fill="white" transform="translate(439.9) rotate(90)"/>
</clipPath>
</defs>
</svg>
