<svg width="786" height="463" viewBox="0 0 786 463" fill="none" xmlns="http://www.w3.org/2000/svg">
<path d="M696.247 110.152C696.247 117.423 690.609 123.304 683.583 123.304C676.556 123.304 671 117.423 671 110.152C671 102.882 676.638 97 683.664 97C690.691 97 696.247 102.882 696.247 110.152Z" fill="white"/>
<path d="M111.609 135.447C111.609 139.94 108.095 143.616 103.765 143.616C99.4347 143.616 95.9214 139.94 95.9214 135.447C95.9214 130.954 99.4347 127.278 103.765 127.278C108.095 127.278 111.609 130.954 111.609 135.447Z" fill="white"/>
<path d="M73.8611 74.669C73.8611 78.3451 71.0014 81.2859 67.5698 81.2859C64.0565 81.2859 61.2786 78.3451 61.2786 74.669C61.2786 70.9929 64.1382 68.052 67.5698 68.052C71.0831 68.052 73.8611 70.9929 73.8611 74.669Z" fill="white"/>
<path d="M534.583 103.617C534.583 107.293 531.723 110.234 528.291 110.234C524.778 110.234 522 107.293 522 103.617C522 99.9409 524.86 97 528.291 97C531.723 97 534.583 99.9409 534.583 103.617Z" fill="white"/>
<path d="M250.697 168.966C248.654 171.989 244.732 172.887 241.791 171.008C238.849 169.048 238.114 165.045 240.157 162.022C242.199 159 246.121 158.101 249.062 159.98C252.004 161.859 252.739 165.862 250.697 168.966Z" fill="white"/>
<path d="M306.697 459.966C304.654 462.989 300.732 463.887 297.791 462.008C294.849 460.048 294.114 456.045 296.157 453.022C298.199 450 302.121 449.101 305.062 450.98C308.004 452.941 308.739 456.944 306.697 459.966Z" fill="white"/>
<path d="M784.856 34.2321C782.814 37.2546 778.892 38.1532 775.95 36.2743C773.009 34.3137 772.274 30.3109 774.316 27.2883C776.359 24.2658 780.281 23.3672 783.222 25.2461C786.163 27.2066 786.899 31.2095 784.856 34.2321Z" fill="white"/>
<path d="M61.2785 145.019C61.2785 146.816 59.8895 148.287 58.092 148.287C56.3762 148.287 54.9055 146.816 54.9055 145.019C54.9055 143.222 56.2945 141.751 58.092 141.751C59.8078 141.751 61.2785 143.222 61.2785 145.019Z" fill="white"/>
<path d="M239.373 84.2676C239.373 86.0648 237.984 87.5353 236.187 87.5353C234.471 87.5353 233 86.0648 233 84.2676C233 82.4704 234.389 81 236.187 81C237.902 81 239.373 82.4704 239.373 84.2676Z" fill="white"/>
<path d="M779.545 200.8C779.545 202.597 778.156 204.067 776.359 204.067C774.643 204.067 773.172 202.597 773.172 200.8C773.172 199.002 774.561 197.532 776.359 197.532C778.156 197.45 779.545 198.921 779.545 200.8Z" fill="white"/>
<path d="M634.274 234.702C634.274 236.499 632.885 237.969 631.088 237.969C629.372 237.969 627.901 236.499 627.901 234.702C627.901 232.904 629.29 231.434 631.088 231.434C632.803 231.352 634.274 232.823 634.274 234.702Z" fill="white"/>
<path d="M541.583 407.617C541.583 411.293 538.723 414.234 535.291 414.234C531.86 414.234 529 411.293 529 407.617C529 403.941 531.86 401 535.291 401C538.723 401 541.583 403.941 541.583 407.617Z" fill="white"/>
<path d="M54.9055 268.358C58.3801 268.358 61.1968 265.396 61.1968 261.741C61.1968 258.087 58.3801 255.124 54.9055 255.124C51.431 255.124 48.6143 258.087 48.6143 261.741C48.6143 265.396 51.431 268.358 54.9055 268.358Z" fill="white"/>
<path d="M553.714 11.8452C553.714 18.3804 548.648 23.6904 542.357 23.6904C536.066 23.6904 531 18.3804 531 11.8452C531 5.30991 536.066 0 542.357 0C548.648 0 553.714 5.30991 553.714 11.8452Z" fill="white"/>
<path d="M758.956 135.529C758.956 139.205 756.096 142.146 752.664 142.146C749.151 142.146 746.373 139.205 746.373 135.529C746.373 131.853 749.233 128.912 752.664 128.912C756.096 128.994 758.956 131.934 758.956 135.529Z" fill="white"/>
<path d="M186.174 438.488C192.898 438.488 198.348 432.782 198.348 425.744C198.348 418.706 192.898 413 186.174 413C179.45 413 174 418.706 174 425.744C174 432.782 179.45 438.488 186.174 438.488Z" fill="white"/>
<path d="M12.1739 81.2859C12.1739 84.7986 9.47767 87.6578 6.04607 87.6578C2.69618 87.6578 -0.0817871 84.7986 -0.0817871 81.2859C-0.0817871 77.7732 2.61447 74.9141 6.04607 74.9141C9.47767 74.9141 12.1739 77.7732 12.1739 81.2859Z" fill="white"/>
</svg>
