<svg width="494" height="564" viewBox="0 0 494 564" fill="none" xmlns="http://www.w3.org/2000/svg">
<path d="M187.7 136.1C182.2 136.1 177.7 131.8 177.7 126.5C177.7 121.2 182.2 116.9 187.7 116.9C193.2 116.9 197.7 121.2 197.7 126.5C197.7 131.8 193.2 136.1 187.7 136.1Z" fill="white"/>
<path d="M262.1 89.9C257.6 89.9 254 86.4 254 82.2C254 77.9 257.6 74.5 262.1 74.5C266.6 74.5 270.2 78 270.2 82.2C270.2 86.5 266.6 89.9 262.1 89.9Z" fill="white"/>
<path d="M422.9 520.2C418.4 520.2 414.8 516.7 414.8 512.5C414.8 508.2 418.4 504.8 422.9 504.8C427.4 504.8 431 508.3 431 512.5C431 516.7 427.4 520.2 422.9 520.2Z" fill="white"/>
<path d="M376.7 201.6C373 199.1 371.9 194.3 374.2 190.7C376.6 187.1 381.5 186.2 385.2 188.7C388.9 191.2 390 196 387.7 199.6C385.4 203.2 380.5 204.1 376.7 201.6Z" fill="white"/>
<path d="M297.5 349C293.8 346.5 292.7 341.7 295 338.1C297.4 334.5 302.3 333.6 306 336.1C309.7 338.6 310.8 343.4 308.5 347C306.1 350.6 301.2 351.5 297.5 349Z" fill="white"/>
<path d="M151.5 74.5C149.3 74.5 147.5 72.8 147.5 70.6C147.5 68.5 149.3 66.7 151.5 66.7C153.7 66.7 155.5 68.4 155.5 70.6C155.5 72.7 153.7 74.5 151.5 74.5Z" fill="white"/>
<path d="M381 563.9C378.8 563.9 377 562.2 377 560C377 557.9 378.8 556.1 381 556.1C383.2 556.1 385 557.8 385 560C385 562.1 383.2 563.9 381 563.9Z" fill="white"/>
<path d="M386.4 118.4C384.5 117.2 384 114.7 385.2 113C386.4 111.2 388.8 110.8 390.7 112C392.6 113.2 393.1 115.7 391.9 117.5C390.7 119.1 388.3 119.6 386.4 118.4Z" fill="white"/>
<path d="M25 66.7C25 70.9526 28.6265 74.4 33.1 74.4C37.5735 74.4 41.2 70.9526 41.2 66.7C41.2 62.4474 37.5735 59 33.1 59C28.6265 59 25 62.4474 25 66.7Z" fill="white"/>
<path d="M433.7 136.1C433.7 144.329 440.684 151 449.3 151C457.916 151 464.9 144.329 464.9 136.1C464.9 127.871 457.916 121.2 449.3 121.2C440.684 121.2 433.7 127.871 433.7 136.1Z" fill="white"/>
</svg>
