<svg width="254" height="321" viewBox="0 0 254 321" fill="none" xmlns="http://www.w3.org/2000/svg">
<path d="M244.07 286.044C243.691 285.664 243.311 285.283 242.932 284.902C235.911 277.855 229.081 270.872 223.325 262.683C218.518 255.764 215.229 247.512 209.221 241.481C204.541 236.783 197.837 236.402 191.575 235.768C179.811 234.561 167.921 234.688 156.094 234.815C149.263 234.879 142.179 235.006 136.044 238.053C132.439 239.83 129.403 242.56 127 245.734C124.597 242.497 121.561 239.83 117.956 238.053C111.821 235.006 104.737 234.879 97.9063 234.815C86.0791 234.688 74.1887 234.561 62.4247 235.768C56.1633 236.402 49.4591 236.783 44.7788 241.481C38.8336 247.512 35.5447 255.764 30.6747 262.683C24.9192 270.872 18.0886 277.855 11.0681 284.902C10.6887 285.283 10.3092 285.664 9.92969 286.044C4.99642 290.742 -1.26503 295.884 0.252898 303.502C2.78278 316.134 18.468 310.611 25.8047 307.057C31.1174 304.517 36.4934 301.978 41.8062 299.439C36.0507 302.169 35.9242 310.04 39.5293 314.611C44.2728 320.705 53.9496 319.245 60.4641 317.467C64.7016 316.325 68.8127 314.738 72.6707 312.706C75.4536 311.31 85.0671 307.31 86.2056 304.39C83.3595 311.627 84.5612 320.261 93.7952 320.705C103.788 321.213 115.109 317.086 122.889 310.929C124.533 309.596 125.925 308.199 127.063 306.612C128.202 308.136 129.593 309.596 131.237 310.929C139.017 317.086 150.401 321.276 160.331 320.705C169.502 320.197 170.767 311.627 167.921 304.39C169.059 307.31 178.673 311.246 181.456 312.706C185.377 314.738 189.488 316.325 193.662 317.467C200.113 319.245 209.79 320.705 214.597 314.611C218.202 310.04 218.076 302.169 212.32 299.439C217.633 301.978 223.009 304.517 228.322 307.057C235.658 310.611 251.344 316.071 253.873 303.502C255.328 295.884 249.003 290.742 244.07 286.044Z" fill="#2A488A"/>
<path opacity="0.31" d="M235.595 277.411C231.231 272.777 226.993 267.952 223.325 262.62C218.518 255.7 215.229 247.448 209.221 241.417C204.541 236.72 197.837 236.339 191.575 235.704C179.811 234.498 167.921 234.625 156.094 234.752C149.263 234.815 142.179 234.942 136.044 237.989C132.439 239.767 129.403 242.496 127 245.67C124.597 242.433 121.561 239.767 117.956 237.989C111.821 234.942 104.737 234.815 97.9063 234.752C86.0791 234.625 74.1886 234.498 62.4247 235.704C56.1633 236.339 49.4591 236.72 44.7788 241.417C38.8336 247.448 35.5447 255.7 30.6747 262.62C26.9431 267.952 22.7688 272.713 18.4048 277.411C23.6543 280.14 32.3191 276.966 37.0627 274.681C41.8062 272.396 46.5497 270.174 51.2932 267.889C46.1702 270.364 46.0437 277.284 49.2693 281.347C53.5069 286.742 62.1085 285.473 67.864 283.886C71.5955 282.87 75.2639 281.41 78.7424 279.633C81.2091 278.363 89.7474 274.808 90.7594 272.269C88.2295 278.744 89.3047 286.362 97.4636 286.806C106.318 287.25 116.438 283.568 123.332 278.109C124.786 276.966 126.051 275.633 127.063 274.3C128.075 275.697 129.277 276.966 130.795 278.109C137.752 283.568 147.808 287.314 156.663 286.806C164.822 286.362 165.96 278.744 163.367 272.269C164.379 274.808 172.917 278.363 175.384 279.633C178.862 281.41 182.468 282.87 186.262 283.886C192.018 285.473 200.619 286.742 204.857 281.347C208.019 277.284 207.956 270.301 202.833 267.889C207.577 270.174 212.32 272.396 217.064 274.681C221.744 276.966 230.409 280.14 235.595 277.411Z" fill="#202774"/>
<path d="M231.041 242.052C230.662 241.735 230.346 241.354 230.029 241.036C223.768 234.752 217.696 228.531 212.636 221.294C208.336 215.136 205.426 207.836 200.114 202.44C195.939 198.25 189.994 197.933 184.428 197.362C173.929 196.282 163.367 196.409 152.868 196.473C146.796 196.536 140.535 196.663 135.032 199.33C131.807 200.917 129.15 203.329 127 206.185C124.85 203.329 122.193 200.917 118.968 199.33C113.528 196.663 107.204 196.536 101.132 196.473C90.633 196.346 80.0707 196.282 69.5717 197.362C64.006 197.933 58.0607 198.25 53.8864 202.44C48.5737 207.772 45.6643 215.136 41.3635 221.294C36.2405 228.594 30.2321 234.815 23.9706 241.036C23.6544 241.354 23.2749 241.735 22.9587 242.052C18.5946 246.242 12.9656 250.812 14.3571 257.605C16.634 268.841 30.5483 263.889 37.0627 260.779C41.8063 258.494 46.5498 256.272 51.2933 253.986C46.1703 256.462 46.0438 263.382 49.2694 267.444C53.507 272.84 62.1086 271.571 67.864 269.984C71.5956 268.968 75.2639 267.508 78.7425 265.73C81.2092 264.461 89.7475 260.906 90.7594 258.367C88.2296 264.842 89.3048 272.459 97.4636 272.904C106.318 273.348 116.438 269.666 123.332 264.207C124.786 263.064 126.051 261.731 127.063 260.398C128.075 261.795 129.277 263.064 130.795 264.207C137.752 269.666 147.808 273.412 156.663 272.904C164.822 272.459 165.96 264.842 163.367 258.367C164.379 260.906 172.917 264.461 175.384 265.73C178.863 267.508 182.468 268.968 186.262 269.984C192.018 271.571 200.62 272.84 204.857 267.444C208.019 263.382 207.956 256.399 202.833 253.986C207.577 256.272 212.32 258.494 217.064 260.779C223.641 263.889 237.556 268.841 239.769 257.605C241.034 250.812 235.405 246.305 231.041 242.052Z" fill="#202774"/>
<path opacity="0.25" d="M212.636 221.294C208.336 215.136 205.426 207.836 200.113 202.44C195.939 198.25 189.994 197.933 184.428 197.362C173.929 196.282 163.367 196.409 152.868 196.473C146.796 196.536 140.535 196.663 135.032 199.33C131.807 200.917 129.15 203.329 127 206.185C124.85 203.329 122.193 200.917 118.968 199.33C113.528 196.663 107.204 196.536 101.132 196.473C90.6329 196.346 80.0706 196.282 69.5716 197.362C64.0059 197.933 58.0607 198.25 53.8864 202.44C48.5736 207.772 45.6643 215.136 41.3635 221.294C39.7823 223.579 38.0746 225.738 36.3037 227.896C39.5926 233.609 49.0796 230.245 53.8231 227.959C57.6812 226.118 61.5393 224.277 65.3973 222.437C61.223 224.404 61.1598 230.054 63.7529 233.419C67.1683 237.799 74.1887 236.783 78.8689 235.514C81.9048 234.688 84.8774 233.546 87.7235 232.086C89.7474 231.07 96.6414 228.15 97.4636 226.055C95.3764 231.324 96.2619 237.481 102.966 237.862C110.176 238.243 118.398 235.26 124.027 230.753C125.229 229.8 126.241 228.785 127.063 227.642C127.885 228.785 128.897 229.8 130.099 230.753C135.728 235.196 143.95 238.243 151.16 237.862C157.801 237.545 158.687 231.324 156.6 226.055C157.422 228.15 164.379 231.006 166.34 232.086C169.186 233.546 172.095 234.688 175.194 235.514C179.874 236.783 186.895 237.862 190.31 233.419C192.903 230.118 192.84 224.468 188.666 222.437C192.524 224.277 196.382 226.118 200.24 227.959C204.984 230.245 214.471 233.609 217.823 227.896C215.925 225.738 214.218 223.579 212.636 221.294Z" fill="#181B43"/>
<path d="M211.561 202.44C211.245 202.186 210.992 201.869 210.739 201.615C205.679 196.536 200.746 191.458 196.572 185.554C193.093 180.539 190.69 174.572 186.389 170.255C183.037 166.828 178.167 166.574 173.676 166.129C165.138 165.24 156.599 165.367 147.998 165.431C143.065 165.494 137.942 165.558 133.514 167.78C130.921 169.049 128.708 171.017 127 173.366C125.292 171.017 123.079 169.113 120.485 167.78C116.058 165.621 110.935 165.494 106.002 165.431C97.4635 165.367 88.8619 165.24 80.3236 166.129C75.7698 166.574 70.963 166.828 67.6109 170.255C63.3101 174.636 60.9067 180.603 57.4281 185.554C53.2538 191.458 48.3838 196.536 43.2608 201.615C43.0078 201.869 42.6916 202.186 42.4386 202.44C38.8968 205.868 34.343 209.55 35.4182 215.073C37.2523 224.214 48.5736 220.215 53.8863 217.676C57.7444 215.835 61.6024 213.994 65.4605 212.153C61.2862 214.121 61.223 219.77 63.8161 223.135C67.2314 227.515 74.2519 226.499 78.9321 225.23C81.968 224.405 84.9406 223.262 87.7867 221.802C89.8106 220.786 96.7045 217.866 97.5267 215.771C95.4396 221.04 96.3251 227.198 102.966 227.579C110.176 227.959 118.398 224.976 124.027 220.469C125.229 219.517 126.241 218.501 127.063 217.358C127.885 218.501 128.897 219.517 130.099 220.469C135.728 224.912 143.95 227.959 151.16 227.579C157.801 227.261 158.687 221.04 156.599 215.771C157.422 217.866 164.379 220.723 166.339 221.802C169.186 223.262 172.095 224.405 175.194 225.23C179.874 226.499 186.895 227.579 190.31 223.135C192.903 219.834 192.84 214.184 188.666 212.153C192.524 213.994 196.382 215.835 200.24 217.676C205.553 220.215 216.874 224.214 218.708 215.073C219.72 209.55 215.166 205.868 211.561 202.44Z" fill="#2A488A"/>
<path opacity="0.31" d="M201.884 192.283C200.05 190.125 198.279 187.903 196.635 185.554C193.156 180.539 190.753 174.572 186.452 170.255C183.1 166.828 178.23 166.574 173.739 166.129C165.201 165.24 156.663 165.367 148.061 165.431C143.128 165.494 138.005 165.558 133.578 167.78C130.984 169.049 128.771 171.017 127.063 173.366C125.355 171.017 123.142 169.113 120.549 167.78C116.121 165.621 110.998 165.494 106.065 165.431C97.5268 165.367 88.9252 165.24 80.3869 166.129C75.8331 166.574 71.0263 166.828 67.6742 170.255C63.3734 174.636 60.97 180.603 57.4914 185.554C55.847 187.903 54.0761 190.125 52.2419 192.283C55.0248 196.854 62.8042 194.124 66.6623 192.22C69.8246 190.696 73.0502 189.173 76.2126 187.649C72.7972 189.3 72.734 193.934 74.8211 196.727C77.6672 200.345 83.4227 199.52 87.2808 198.441C89.8107 197.743 92.2773 196.79 94.5542 195.584C96.1986 194.759 101.954 192.347 102.65 190.633C100.942 194.949 101.701 200.091 107.14 200.409C113.086 200.726 119.853 198.25 124.533 194.569C125.545 193.807 126.367 192.918 127 192.029C127.696 192.918 128.518 193.807 129.467 194.569C134.147 198.25 140.914 200.726 146.859 200.409C152.362 200.091 153.121 195.013 151.35 190.633C152.046 192.347 157.801 194.759 159.446 195.584C161.786 196.79 164.252 197.743 166.719 198.441C170.577 199.52 176.333 200.345 179.179 196.727C181.329 193.997 181.266 189.3 177.787 187.649C180.95 189.173 184.175 190.696 187.338 192.22C191.322 194.061 199.102 196.854 201.884 192.283Z" fill="#202774"/>
<path d="M196.888 170.319C196.635 170.065 196.445 169.875 196.192 169.621C192.018 165.431 187.907 161.241 184.491 156.353C181.582 152.227 179.621 147.275 176.08 143.721C173.297 140.927 169.312 140.673 165.581 140.293C158.56 139.594 151.476 139.658 144.393 139.721C140.345 139.785 136.107 139.848 132.439 141.626C130.289 142.705 128.455 144.292 127.063 146.26C125.608 144.355 123.837 142.705 121.687 141.626C118.019 139.848 113.781 139.721 109.733 139.721C102.65 139.658 95.5661 139.594 88.5456 140.293C84.8141 140.673 80.8295 140.864 78.0466 143.721C74.5048 147.339 72.5442 152.227 69.6348 156.353C66.2195 161.241 62.1084 165.431 57.9341 169.621C57.6811 169.875 57.4914 170.065 57.2384 170.319C54.2658 173.112 50.5342 176.223 51.4197 180.73C52.9376 188.284 62.2981 184.983 66.6622 182.888C69.8245 181.365 73.0501 179.841 76.2125 178.318C72.7971 179.968 72.7339 184.602 74.821 187.395C77.6672 191.014 83.4226 190.188 87.2807 189.109C89.8106 188.411 92.2772 187.459 94.5541 186.253C96.1985 185.427 101.954 183.015 102.65 181.301C100.942 185.618 101.701 190.76 107.14 191.077C113.085 191.395 119.853 188.919 124.533 185.237C125.545 184.475 126.367 183.586 127 182.698C127.696 183.586 128.518 184.475 129.466 185.237C134.147 188.919 140.914 191.395 146.859 191.077C152.362 190.76 153.121 185.681 151.35 181.301C152.046 183.015 157.801 185.427 159.446 186.253C161.786 187.459 164.252 188.411 166.719 189.109C170.577 190.188 176.332 191.014 179.179 187.395C181.329 184.666 181.266 179.968 177.787 178.318C180.95 179.841 184.175 181.365 187.337 182.888C191.765 184.983 201.062 188.284 202.58 180.73C203.592 176.223 199.86 173.112 196.888 170.319Z" fill="#202774"/>
<path opacity="0.25" d="M184.491 156.353C181.582 152.227 179.621 147.275 176.079 143.721C173.297 140.927 169.312 140.673 165.58 140.293C158.56 139.594 151.476 139.658 144.393 139.721C140.345 139.785 136.107 139.848 132.439 141.626C130.289 142.705 128.454 144.292 127.063 146.26C125.608 144.355 123.837 142.705 121.687 141.626C118.019 139.848 113.781 139.721 109.733 139.721C102.65 139.658 95.566 139.594 88.5456 140.293C84.814 140.673 80.8295 140.864 78.0466 143.721C74.5048 147.339 72.5441 152.227 69.6348 156.353C68.6228 157.813 67.5476 159.146 66.4724 160.479C67.8638 161.178 69.445 161.622 70.71 161.686C79.4381 162.193 87.7867 158.194 95.6293 154.322C93.0994 157.432 93.3524 162.511 96.1985 165.367C98.9181 168.097 103.282 168.605 106.951 167.526C110.619 166.447 113.781 164.034 116.691 161.495C118.904 159.527 121.055 157.496 123.078 155.337C122.383 156.099 142.053 175.27 155.145 167.843C159.635 165.304 158.307 155.211 155.018 152.163C161.596 158.321 172.917 160.416 181.835 161.432C183.479 161.622 185.187 161.813 186.831 161.368C187.337 161.241 187.78 161.051 188.223 160.86C186.831 159.527 185.63 158.004 184.491 156.353Z" fill="#181B43"/>
<path d="M185.63 139.404C185.44 139.213 185.25 139.023 185.061 138.832C181.519 135.277 178.104 131.786 175.257 127.723C172.854 124.295 171.21 120.106 168.174 117.122C165.834 114.773 162.481 114.583 159.319 114.265C153.437 113.631 147.492 113.694 141.547 113.758C138.131 113.821 134.59 113.884 131.49 115.345C129.656 116.233 128.138 117.566 126.937 119.217C125.735 117.63 124.217 116.233 122.383 115.345C119.347 113.821 115.742 113.758 112.327 113.758C106.381 113.694 100.436 113.631 94.5542 114.265C91.3918 114.583 88.0398 114.773 85.6996 117.122C82.727 120.169 81.0826 124.295 78.616 127.723C75.7698 131.85 72.3545 135.341 68.8127 138.832C68.6229 139.023 68.4332 139.213 68.2434 139.404C66.346 141.245 62.6145 144.165 63.3102 147.275C63.9426 150.132 67.9272 151.529 70.4571 151.719C79.1852 152.227 87.5338 148.228 95.3764 144.355C92.8465 147.466 93.0995 152.544 95.9456 155.401C98.6653 158.131 103.029 158.638 106.698 157.559C110.366 156.48 113.528 154.068 116.438 151.529C118.651 149.561 120.802 147.529 122.826 145.371C122.13 146.133 141.8 165.304 154.892 157.877C159.382 155.337 158.054 145.244 154.765 142.197C161.343 148.355 172.664 150.449 181.582 151.465C183.227 151.656 184.934 151.846 186.579 151.402C194.295 149.561 188.729 142.387 185.63 139.404Z" fill="#2A488A"/>
<path opacity="0.31" d="M175.194 127.723C172.791 124.295 171.146 120.106 168.11 117.122C165.77 114.773 162.418 114.583 159.256 114.265C153.374 113.631 147.429 113.694 141.483 113.758C138.068 113.821 134.526 113.884 131.427 115.345C129.593 116.233 128.075 117.566 126.873 119.217C125.672 117.63 124.154 116.233 122.32 115.345C119.284 113.821 115.679 113.758 112.263 113.758C106.318 113.694 100.373 113.631 94.4909 114.265C91.3286 114.583 87.9765 114.773 85.6363 117.122C82.6637 120.169 81.0193 124.295 78.5527 127.723C77.604 129.056 76.592 130.326 75.5801 131.596C76.845 132.611 78.7424 133.119 80.0706 133.183C87.344 133.627 94.1747 130.326 100.752 127.088C98.6652 129.691 98.855 133.881 101.195 136.23C103.409 138.515 107.077 138.959 110.113 138.071C113.149 137.182 115.742 135.151 118.145 133.056C119.979 131.469 121.75 129.755 123.458 127.977C122.889 128.612 139.143 144.482 150.022 138.325C153.753 136.23 152.615 127.85 149.895 125.311C155.335 130.389 164.695 132.103 172.095 132.992C173.486 133.183 174.878 133.31 176.206 132.929C177.155 132.675 177.85 132.357 178.356 131.913C177.408 130.643 176.269 129.183 175.194 127.723Z" fill="#202774"/>
<path d="M175.51 115.979C175.321 115.852 175.194 115.662 175.004 115.535C172.095 112.615 169.249 109.695 166.909 106.33C164.885 103.474 163.557 100.046 161.09 97.57C159.129 95.6021 152.805 90.0793 150.212 89.8253C145.342 89.3175 127.949 79.478 126.937 80.8111C125.925 79.478 109.164 89.3175 104.294 89.7619C101.701 90.0158 94.8705 95.5386 92.9098 97.5065C90.4432 99.9823 89.0518 103.41 87.0911 106.267C84.6877 109.631 81.9049 112.551 78.9955 115.472C78.869 115.599 78.6793 115.789 78.4895 115.916C76.9083 117.439 73.8092 119.852 74.3785 122.454C74.8844 124.803 78.2365 126.009 80.2604 126.136C87.5338 126.581 94.3645 123.28 100.942 120.042C98.8551 122.645 99.0448 126.835 101.385 129.183C103.599 131.469 107.267 131.913 110.303 131.024C113.339 130.136 115.932 128.104 118.335 126.009C120.169 124.422 121.94 122.708 123.648 120.931C123.079 121.566 139.333 137.436 150.212 131.278C153.943 129.183 152.805 120.804 150.085 118.265C155.524 123.343 164.885 125.057 172.285 125.946C173.676 126.136 175.068 126.263 176.396 125.882C182.721 124.359 178.104 118.455 175.51 115.979Z" fill="#202774"/>
<path d="M129.593 1.39658L133.641 9.64907C134.02 10.4108 134.716 10.9187 135.538 11.0456L144.583 12.3787C146.67 12.6961 147.492 15.2354 145.974 16.7589L139.396 23.1705C138.764 23.7418 138.511 24.6305 138.637 25.4558L140.218 34.5335C140.598 36.6284 138.384 38.2154 136.487 37.2632L128.391 33.01C127.632 32.6291 126.747 32.6291 125.988 33.01L117.892 37.2632C115.995 38.2789 113.844 36.6284 114.161 34.5335L115.742 25.4558C115.868 24.6305 115.615 23.8053 114.983 23.1705L108.405 16.7589C106.887 15.2989 107.71 12.6961 109.797 12.3787L118.841 11.0456C119.663 10.9187 120.359 10.4108 120.738 9.64907L124.786 1.39658C125.925 -0.444366 128.644 -0.444366 129.593 1.39658Z" fill="#DDA7BC"/>
<g opacity="0.49">
<path d="M127.443 4.69762C128.202 5.33243 128.455 6.28464 128.771 7.17337C129.024 8.0621 129.467 8.88735 129.846 9.7126C130.036 10.2204 130.352 10.6648 130.479 11.1092C130.605 11.4266 130.668 11.744 130.858 12.0614C131.237 12.6327 131.807 12.8866 132.376 13.1406C133.135 13.458 133.831 13.9658 134.653 14.1563C135.475 14.2832 136.36 14.3467 137.183 14.5371C138.005 14.6641 138.764 14.6641 139.523 14.7276C140.282 14.7911 141.104 14.9815 141.863 14.9815C141.863 14.7911 141.863 14.6641 141.863 14.4737H141.8C141.483 14.4737 141.483 14.9815 141.8 14.9815H141.863C142.179 14.9815 142.179 14.5371 141.863 14.4737C141.104 14.4737 140.345 14.2832 139.649 14.2197C138.827 14.0928 138.005 14.1563 137.183 14.0293C136.487 13.9023 135.791 13.7754 135.096 13.7119C134.21 13.5849 133.514 13.0771 132.755 12.7597C132.313 12.5692 131.87 12.4423 131.554 12.1249C131.174 11.8075 131.111 11.3631 130.921 10.9187C130.668 10.0935 130.226 9.33172 129.846 8.56995C129.656 8.12558 129.467 7.7447 129.34 7.30033C129.15 6.85597 129.087 6.4116 128.897 5.96724C128.644 5.39591 128.265 4.82458 127.822 4.38022C127.569 4.12629 127.253 4.4437 127.443 4.69762Z" fill="white"/>
</g>
<g opacity="0.49">
<path d="M111.568 14.7276C112.01 14.7276 112.453 14.6006 112.832 14.5372C113.022 14.5372 113.212 14.4737 113.402 14.4102C113.655 14.4102 113.908 14.4102 114.097 14.3467C114.287 14.3467 114.54 14.2832 114.73 14.2198C114.983 14.1563 115.173 14.2198 115.426 14.2198C115.932 14.2198 116.438 14.2198 116.944 14.2198C117.26 14.2198 117.26 13.7119 116.944 13.7119C116.438 13.7119 115.932 13.7119 115.489 13.7119C115.236 13.7119 115.046 13.7119 114.793 13.7119C114.603 13.7119 114.35 13.7754 114.161 13.8389C113.908 13.9024 113.655 13.9024 113.402 13.9024C113.212 13.9024 113.022 13.9658 112.832 13.9658C112.39 14.0293 111.947 14.1563 111.504 14.1563C111.251 14.2832 111.251 14.7276 111.568 14.7276Z" fill="white"/>
</g>
<g opacity="0.49">
<path d="M136.74 29.8996C136.93 30.09 136.93 30.4709 136.993 30.7248C137.056 31.0422 137.246 31.3596 137.309 31.677C137.372 31.9945 137.499 32.3753 137.499 32.6927C137.499 33.0736 137.625 33.4545 137.689 33.8354C137.752 34.1528 138.195 34.0258 138.131 33.7084C138.068 33.518 138.068 33.3275 138.005 33.1371C137.942 32.9467 137.942 32.7562 137.942 32.5658C137.942 32.3753 137.878 32.1849 137.815 31.9945C137.752 31.804 137.752 31.6136 137.689 31.4231C137.562 31.1057 137.436 30.7883 137.372 30.4074C137.309 30.09 137.246 29.7726 137.056 29.5187C136.866 29.3283 136.55 29.7091 136.74 29.8996Z" fill="white"/>
</g>
<path opacity="0.25" d="M166.909 106.267C164.885 103.41 163.557 99.9823 161.09 97.5065C159.129 95.5386 152.805 90.0158 150.211 89.7619C145.341 89.254 127.949 79.4145 126.937 80.7476C125.925 79.4145 109.164 89.254 104.294 89.6984C101.701 89.9523 94.8704 95.4751 92.9097 97.443C90.4431 99.9188 89.0516 103.347 87.091 106.203C86.9012 106.521 86.6483 106.775 86.3953 107.092C86.9012 107.283 87.4705 107.346 88.0397 107.473C97.5267 108.806 106.824 103.537 113.718 96.9352C113.149 100.998 114.667 105.251 117.576 108.108C122.383 112.742 128.644 112.742 133.261 108.108C136.107 105.188 137.815 101.252 138.448 97.2526C145.468 104.045 155.714 106.584 165.454 106.457C165.96 106.394 166.466 106.394 166.909 106.267C166.909 106.267 166.972 106.33 166.909 106.267Z" fill="#181B43"/>
<path d="M167.604 90.46C167.478 90.3331 167.352 90.2061 167.225 90.0791C160.711 83.5406 155.208 75.9864 150.465 67.9878C148.377 64.4964 146.29 60.9415 144.203 57.45C142.179 54.0221 140.092 50.5941 137.246 47.8644C134.4 45.1348 130.542 43.1669 126.62 43.4843C123.521 43.6747 120.612 45.2617 118.272 47.3566C115.932 49.4515 114.098 51.9907 112.327 54.5299C107.646 61.1954 103.156 68.0513 98.6653 74.9072C94.9969 80.4935 91.5183 85.3816 86.8381 90.0791C86.7116 90.2061 86.5851 90.3331 86.4586 90.46C84.4347 92.4279 82.3475 97.2525 84.4979 99.7282C85.3834 100.744 86.7748 101.125 88.103 101.252C97.5901 102.585 106.887 97.3159 113.781 90.7139C113.212 94.7767 114.73 99.0299 117.639 101.887C122.446 106.521 128.708 106.521 133.325 101.887C136.171 98.9664 137.878 95.0306 138.511 91.0313C145.531 97.8238 155.777 100.363 165.517 100.236C166.846 100.236 168.3 100.109 169.439 99.4743C173.233 97.189 169.692 92.4914 167.604 90.46Z" fill="#2A488A"/>
<path d="M106.698 100.173C106.698 103.791 103.788 106.648 100.246 106.648C96.6413 106.648 93.7952 103.728 93.7952 100.173C93.7952 96.5544 96.7045 93.6978 100.246 93.6978C103.788 93.6978 106.698 96.5544 106.698 100.173Z" fill="#75C4C0"/>
<path d="M101.511 104.553C97.9062 104.553 95.0601 101.633 95.0601 98.078C95.0601 97.2528 95.2499 96.4275 95.5029 95.7292C94.4277 96.8719 93.7319 98.4589 93.7319 100.173C93.7319 103.791 96.6413 106.648 100.183 106.648C102.903 106.648 105.306 104.934 106.192 102.522C105.053 103.791 103.409 104.553 101.511 104.553Z" fill="#5CADA7"/>
<g opacity="0.37">
<path d="M98.9181 96.8083C99.2976 96.8083 99.6771 96.7448 100.057 96.7448C100.246 96.7448 100.436 96.7448 100.626 96.7448C100.816 96.7448 101.069 96.8083 101.258 96.8718C101.638 96.9987 102.017 97.1892 102.27 97.4431C102.397 97.5701 102.523 97.6335 102.65 97.7605C102.776 97.8875 102.839 98.0779 102.966 98.2049C103.092 98.3318 103.409 98.2683 103.345 98.0144V97.9509C103.345 97.6335 102.839 97.6335 102.839 97.9509V98.0144C102.966 97.9509 103.092 97.8875 103.219 97.824C103.092 97.697 103.029 97.5066 102.903 97.3796C102.776 97.2526 102.65 97.1257 102.523 96.9987C102.27 96.6813 101.827 96.4909 101.448 96.3639C101.258 96.3004 101.005 96.237 100.752 96.1735C100.563 96.11 100.373 96.1735 100.12 96.1735C99.9301 96.1735 99.7403 96.1735 99.4873 96.1735C99.2343 96.1735 99.0446 96.237 98.8549 96.237C98.6019 96.3639 98.6019 96.8083 98.9181 96.8083Z" fill="white"/>
</g>
<path d="M156.22 124.359C158.117 127.406 157.169 131.405 154.133 133.31C151.097 135.214 147.112 134.262 145.215 131.215C143.318 128.168 144.266 124.168 147.302 122.264C150.338 120.36 154.323 121.312 156.22 124.359Z" fill="#75C4C0"/>
<path d="M154.133 130.77C151.097 132.675 147.112 131.723 145.215 128.675C144.772 127.977 144.519 127.215 144.393 126.454C144.076 128.041 144.329 129.755 145.215 131.215C147.112 134.262 151.097 135.214 154.133 133.31C156.473 131.849 157.548 129.183 157.105 126.581C156.663 128.295 155.714 129.818 154.133 130.77Z" fill="#5CADA7"/>
<g opacity="0.37">
<path d="M147.808 125.628C148.124 125.438 148.377 125.184 148.693 124.994C148.82 124.93 149.01 124.803 149.136 124.676C149.326 124.549 149.516 124.549 149.705 124.486C150.085 124.359 150.528 124.295 150.97 124.422C151.16 124.486 151.287 124.486 151.476 124.549C151.603 124.613 151.793 124.676 151.919 124.74C152.109 124.803 152.299 124.549 152.172 124.359C152.172 124.359 152.172 124.295 152.109 124.295C151.919 124.041 151.54 124.295 151.729 124.549C151.729 124.549 151.729 124.613 151.793 124.613C151.856 124.486 151.982 124.359 152.046 124.232C151.856 124.168 151.729 124.105 151.54 124.041C151.35 123.978 151.16 123.978 150.97 123.914C150.528 123.851 150.022 123.851 149.642 123.978C149.452 124.041 149.263 124.105 149.073 124.168C148.883 124.232 148.757 124.359 148.567 124.486C148.377 124.613 148.187 124.676 148.061 124.803C147.871 124.93 147.745 125.057 147.555 125.184C147.302 125.375 147.555 125.755 147.808 125.628Z" fill="white"/>
</g>
<path d="M82.5373 189.236C84.4347 192.283 83.486 196.282 80.4502 198.187C77.4143 200.091 73.4298 199.139 71.5323 196.092C69.6349 193.045 70.5836 189.046 73.6195 187.141C76.6554 185.237 80.6399 186.189 82.5373 189.236Z" fill="#75C4C0"/>
<path d="M80.4501 195.648C77.4142 197.552 73.4296 196.6 71.5322 193.553C71.0895 192.854 70.8365 192.093 70.71 191.331C70.3938 192.918 70.6468 194.632 71.5322 196.092C73.4296 199.139 77.4142 200.091 80.4501 198.187C82.7902 196.727 83.8654 194.06 83.4227 191.458C83.0432 193.108 82.0312 194.695 80.4501 195.648Z" fill="#5CADA7"/>
<g opacity="0.37">
<path d="M74.1886 190.442C74.5048 190.252 74.7578 189.998 75.074 189.807C75.2005 189.744 75.3903 189.617 75.5168 189.49C75.7065 189.363 75.8963 189.363 76.086 189.3C76.4655 189.173 76.9082 189.109 77.3509 189.236C77.5407 189.3 77.6672 189.3 77.8569 189.363C77.9834 189.427 78.1732 189.49 78.2996 189.553C78.4894 189.617 78.6791 189.363 78.5526 189.173L78.4894 189.109C78.2996 188.855 77.9202 189.109 78.1099 189.363C78.1099 189.363 78.1099 189.427 78.1731 189.427C78.2364 189.3 78.3629 189.173 78.4261 189.046C78.2364 188.982 78.1099 188.919 77.9202 188.855C77.7304 188.792 77.5407 188.792 77.3509 188.728C76.9082 188.665 76.4022 188.665 76.0228 188.792C75.833 188.855 75.6433 188.919 75.4535 188.982C75.2638 189.046 75.1373 189.173 74.9476 189.3C74.7578 189.427 74.5681 189.49 74.4416 189.617C74.2518 189.744 74.1253 189.871 73.9356 189.998C73.6826 190.188 73.9356 190.633 74.1886 190.442Z" fill="white"/>
</g>
<path d="M209.347 249.225C212.13 251.511 212.51 255.574 210.233 258.367C207.956 261.16 203.908 261.541 201.125 259.255C198.342 256.97 197.963 252.907 200.24 250.114C202.517 247.385 206.628 246.94 209.347 249.225Z" fill="#75C4C0"/>
<path d="M209.474 256.018C207.197 258.811 203.149 259.192 200.366 256.907C199.734 256.399 199.228 255.764 198.848 255.066C199.038 256.653 199.86 258.176 201.189 259.255C203.971 261.541 208.019 261.096 210.296 258.367C212.067 256.208 212.194 253.288 210.929 251.066C211.118 252.78 210.676 254.558 209.474 256.018Z" fill="#5CADA7"/>
<g opacity="0.37">
<path d="M201.821 253.161C202.074 252.844 202.264 252.527 202.517 252.273C202.643 252.146 202.706 252.019 202.833 251.828C202.959 251.701 203.149 251.574 203.276 251.447C203.592 251.193 203.971 251.066 204.351 250.939C204.414 250.939 204.541 250.939 204.604 250.939C204.667 250.939 204.73 250.876 204.857 250.876C205.047 250.876 205.236 250.939 205.426 250.939C205.679 250.939 205.742 250.622 205.553 250.495C205.3 250.305 204.983 250.622 205.236 250.813C205.3 250.813 205.3 250.876 205.363 250.876C205.426 250.749 205.426 250.559 205.489 250.432C205.3 250.432 205.047 250.368 204.857 250.368C204.73 250.368 204.667 250.432 204.604 250.432C204.541 250.432 204.414 250.432 204.351 250.432C203.971 250.495 203.529 250.686 203.212 250.939C203.023 251.066 202.833 251.193 202.706 251.32C202.58 251.447 202.453 251.638 202.39 251.765C202.264 251.955 202.137 252.082 202.011 252.209C201.884 252.4 201.758 252.59 201.631 252.717C201.315 253.098 201.631 253.415 201.821 253.161Z" fill="white"/>
</g>
<path d="M194.548 297.534C194.611 301.153 191.828 304.073 188.223 304.2C184.618 304.263 181.709 301.47 181.582 297.852C181.519 294.233 184.302 291.313 187.907 291.186C191.512 291.059 194.484 293.916 194.548 297.534Z" fill="#75C4C0"/>
<path d="M189.551 302.041C185.946 302.105 183.037 299.312 182.91 295.693C182.91 294.868 183.037 294.043 183.29 293.344C182.214 294.551 181.582 296.138 181.582 297.852C181.645 301.47 184.618 304.263 188.223 304.2C190.943 304.136 193.283 302.359 194.168 299.883C193.03 301.153 191.385 301.978 189.551 302.041Z" fill="#5CADA7"/>
<g opacity="0.37">
<path d="M186.705 294.36C187.085 294.36 187.464 294.297 187.843 294.297C188.033 294.297 188.223 294.233 188.413 294.297C188.602 294.297 188.855 294.36 189.045 294.424C189.425 294.487 189.804 294.678 190.057 294.995C190.184 295.122 190.31 295.185 190.437 295.312C190.563 295.439 190.626 295.63 190.753 295.757C190.879 295.884 191.196 295.82 191.132 295.566V295.503C191.132 295.185 190.626 295.185 190.626 295.503V295.566C190.753 295.503 190.879 295.439 191.006 295.376C190.879 295.249 190.816 295.058 190.69 294.931C190.563 294.805 190.437 294.678 190.247 294.551C189.994 294.297 189.488 294.043 189.108 293.916C188.919 293.852 188.666 293.789 188.413 293.789C188.223 293.789 188.033 293.789 187.78 293.789C187.591 293.789 187.401 293.789 187.148 293.789C186.895 293.789 186.705 293.852 186.515 293.852C186.389 293.916 186.389 294.36 186.705 294.36Z" fill="white"/>
</g>
<path d="M49.7754 309.215C51.6728 312.262 50.7241 316.261 47.6882 318.166C44.6524 320.07 40.6678 319.118 38.7704 316.071C36.873 313.024 37.8217 309.024 40.8575 307.12C43.8934 305.216 47.8779 306.168 49.7754 309.215Z" fill="#75C4C0"/>
<path d="M47.6881 315.626C44.6523 317.531 40.6677 316.578 38.7703 313.531C38.3275 312.833 38.0746 312.071 37.9481 311.31C37.6318 312.897 37.8848 314.611 38.7703 316.071C40.6677 319.118 44.6523 320.07 47.6881 318.166C50.0282 316.705 51.1034 314.039 50.6607 311.437C50.2812 313.087 49.2693 314.674 47.6881 315.626Z" fill="#5CADA7"/>
<g opacity="0.37">
<path d="M41.3634 310.421C41.6796 310.231 41.9326 309.977 42.2489 309.786C42.3753 309.723 42.5651 309.596 42.6916 309.469C42.8813 309.342 43.0711 309.342 43.2608 309.278C43.6403 309.151 44.083 309.088 44.5257 309.215C44.7155 309.278 44.842 309.278 45.0317 309.342C45.1582 309.405 45.348 309.469 45.4745 309.532C45.6642 309.596 45.8539 309.342 45.7274 309.151L45.6642 309.088C45.4744 308.834 45.095 309.088 45.2847 309.342C45.2847 309.342 45.2847 309.405 45.348 309.405C45.4112 309.278 45.5377 309.151 45.6009 309.024C45.4112 308.961 45.2847 308.897 45.095 308.834C44.9052 308.77 44.7155 308.77 44.5257 308.707C44.083 308.643 43.577 308.644 43.1976 308.77C43.0078 308.834 42.8181 308.897 42.6283 308.961C42.4386 309.024 42.3121 309.151 42.1224 309.278C41.9326 309.405 41.7429 309.469 41.6164 309.596C41.4266 309.723 41.3001 309.85 41.1104 309.977C40.8574 310.167 41.1104 310.611 41.3634 310.421Z" fill="white"/>
</g>
<path d="M117.766 166.256C118.778 169.684 116.817 173.303 113.402 174.318C109.986 175.334 106.381 173.366 105.369 169.938C104.357 166.51 106.318 162.892 109.733 161.876C113.149 160.86 116.754 162.828 117.766 166.256Z" fill="#DADCE4"/>
<path d="M114.097 171.906C110.682 172.922 107.077 170.954 106.065 167.526C105.812 166.701 105.749 165.939 105.812 165.177C105.116 166.637 104.863 168.288 105.369 170.002C106.381 173.429 109.986 175.397 113.402 174.382C116.058 173.62 117.766 171.271 118.019 168.668C117.26 170.128 115.868 171.398 114.097 171.906Z" fill="#C3C7D5"/>
<g opacity="0.37">
<path d="M109.354 165.304C109.733 165.177 110.05 165.05 110.429 164.923C110.619 164.86 110.809 164.796 110.998 164.733C111.188 164.669 111.378 164.669 111.568 164.669C111.947 164.669 112.39 164.733 112.769 164.923C112.896 164.987 113.085 165.05 113.212 165.177C113.338 165.304 113.465 165.431 113.591 165.494C113.781 165.621 114.034 165.431 113.971 165.241V165.177C113.844 164.86 113.402 164.987 113.528 165.304V165.367C113.655 165.304 113.781 165.177 113.908 165.114C113.781 165.05 113.655 164.86 113.465 164.796C113.338 164.669 113.149 164.669 112.959 164.542C112.579 164.352 112.073 164.225 111.631 164.225C111.441 164.225 111.188 164.225 110.998 164.288C110.809 164.352 110.619 164.415 110.366 164.479C110.176 164.542 109.986 164.606 109.797 164.669C109.607 164.733 109.417 164.86 109.227 164.86C108.911 164.923 109.038 165.367 109.354 165.304Z" fill="white"/>
</g>
<path d="M153.058 66.0201C154.07 69.4481 152.109 73.0665 148.694 74.0822C145.278 75.0979 141.673 73.13 140.661 69.702C139.649 66.274 141.61 62.6556 145.025 61.6399C148.377 60.6242 151.982 62.5921 153.058 66.0201Z" fill="#DADCE4"/>
<path d="M149.326 71.7334C145.911 72.749 142.306 70.7811 141.294 67.3532C141.041 66.5279 140.977 65.7662 141.041 65.0044C140.345 66.4645 140.092 68.115 140.598 69.8289C141.61 73.2569 145.215 75.2248 148.63 74.2091C151.287 73.4473 152.994 71.0985 153.247 68.4958C152.488 69.9559 151.097 71.162 149.326 71.7334Z" fill="#C3C7D5"/>
<g opacity="0.37">
<path d="M144.646 65.0679C145.025 64.941 145.341 64.814 145.721 64.6871C145.911 64.6236 146.1 64.5601 146.29 64.4966C146.48 64.4331 146.67 64.4331 146.859 64.4331C147.239 64.4331 147.681 64.4966 148.061 64.6871C148.187 64.7505 148.377 64.814 148.504 64.941C148.63 65.0679 148.757 65.1949 148.883 65.2584C149.073 65.3853 149.326 65.1949 149.263 65.0045V64.941C149.136 64.6236 148.693 64.7505 148.82 65.0679V65.1314C148.946 65.0679 149.073 64.941 149.199 64.8775C149.073 64.814 148.946 64.6236 148.757 64.5601C148.63 64.4331 148.44 64.4331 148.251 64.3062C147.871 64.1157 147.365 63.9888 146.923 63.9888C146.733 63.9888 146.48 63.9888 146.29 64.0522C146.1 64.0522 145.911 64.1792 145.658 64.2427C145.468 64.3062 145.278 64.3697 145.088 64.4331C144.899 64.4966 144.709 64.6236 144.519 64.6236C144.203 64.6871 144.329 65.1314 144.646 65.0679Z" fill="white"/>
</g>
<path d="M63.3734 269.031C63.3102 272.65 60.3376 275.507 56.7957 275.443C53.1906 275.38 50.3445 272.396 50.4078 268.841C50.471 265.223 53.4436 262.366 56.9855 262.43C60.5905 262.493 63.4367 265.477 63.3734 269.031Z" fill="#DADCE4"/>
<path d="M58.1239 273.348C54.5188 273.285 51.6727 270.301 51.736 266.746C51.736 265.921 51.9257 265.159 52.2419 264.397C51.1035 265.54 50.4078 267.127 50.4078 268.841C50.3445 272.46 53.1906 275.38 56.7957 275.443C59.5153 275.507 61.9187 273.793 62.9307 271.38C61.6657 272.65 60.0213 273.348 58.1239 273.348Z" fill="#C3C7D5"/>
<g opacity="0.37">
<path d="M55.6574 265.604C56.0368 265.604 56.4163 265.54 56.7958 265.604C56.9856 265.604 57.1753 265.604 57.365 265.604C57.5548 265.604 57.8078 265.731 57.9975 265.794C58.377 265.921 58.7565 266.112 59.0095 266.365C59.136 266.492 59.2624 266.556 59.3889 266.683C59.5154 266.81 59.5787 267 59.7052 267.127C59.8317 267.254 60.0847 267.191 60.0847 266.937V266.873C60.0847 266.556 59.6419 266.556 59.5787 266.873V266.937C59.7052 266.873 59.8317 266.81 59.9582 266.746C59.8317 266.619 59.7684 266.429 59.6419 266.302C59.5154 266.175 59.3889 266.048 59.2624 265.921C59.0095 265.604 58.5667 265.413 58.1872 265.286C57.9975 265.223 57.7445 265.159 57.4915 265.096C57.3018 265.032 57.112 265.096 56.8591 265.096C56.6693 265.096 56.4796 265.096 56.2266 265.096C55.9736 265.096 55.7839 265.159 55.5941 265.096C55.3411 265.096 55.3411 265.604 55.6574 265.604Z" fill="white"/>
</g>
<path d="M176.396 174.509C178.989 176.984 179.115 181.111 176.649 183.713C174.182 186.316 170.071 186.443 167.478 183.967C164.885 181.492 164.758 177.365 167.225 174.763C169.692 172.16 173.739 172.033 176.396 174.509Z" fill="#DADCE4"/>
<path d="M176.016 181.301C173.55 183.904 169.439 184.031 166.846 181.555C166.213 180.984 165.77 180.349 165.454 179.651C165.517 181.238 166.213 182.825 167.478 184.031C170.071 186.507 174.182 186.38 176.649 183.777C178.546 181.745 178.926 178.889 177.787 176.54C177.851 178.191 177.281 179.905 176.016 181.301Z" fill="#C3C7D5"/>
<g opacity="0.37">
<path d="M168.616 177.937C168.869 177.683 169.059 177.365 169.312 177.111C169.439 176.984 169.565 176.858 169.692 176.731C169.818 176.604 170.008 176.477 170.198 176.413C170.514 176.223 170.893 176.032 171.273 176.032C171.336 176.032 171.399 176.032 171.526 176.032C171.652 176.032 171.716 175.969 171.842 175.969C172.032 175.969 172.222 176.032 172.475 176.032C172.664 176.032 172.791 175.778 172.664 175.651L172.601 175.588C172.348 175.397 172.032 175.715 172.285 175.905L172.348 175.969C172.411 175.842 172.475 175.715 172.538 175.588C172.348 175.588 172.095 175.524 171.905 175.524C171.779 175.524 171.716 175.588 171.589 175.588C171.526 175.588 171.399 175.588 171.336 175.588C170.893 175.651 170.514 175.778 170.134 176.032C169.945 176.159 169.818 176.223 169.628 176.35C169.502 176.477 169.375 176.667 169.249 176.794C169.122 176.921 168.996 177.048 168.869 177.238C168.743 177.429 168.616 177.556 168.49 177.746C168.047 177.81 168.364 178.127 168.616 177.937Z" fill="white"/>
</g>
<path d="M156.093 252.399C157.105 255.827 155.145 259.446 151.729 260.462C148.314 261.477 144.709 259.509 143.697 256.081C142.685 252.653 144.646 249.035 148.061 248.019C151.476 247.004 155.082 248.972 156.093 252.399Z" fill="#DADCE4"/>
<path d="M152.425 258.113C149.01 259.128 145.405 257.161 144.393 253.733C144.14 252.907 144.077 252.146 144.14 251.384C143.444 252.844 143.191 254.494 143.697 256.208C144.709 259.636 148.314 261.604 151.729 260.588C154.386 259.827 156.093 257.478 156.346 254.875C155.524 256.335 154.196 257.541 152.425 258.113Z" fill="#C3C7D5"/>
<g opacity="0.37">
<path d="M147.681 251.447C148.061 251.32 148.377 251.193 148.757 251.066C148.946 251.003 149.136 250.94 149.326 250.876C149.516 250.813 149.705 250.813 149.895 250.813C150.275 250.813 150.717 250.876 151.097 251.066C151.223 251.13 151.413 251.193 151.54 251.32C151.666 251.447 151.793 251.574 151.919 251.638C152.109 251.765 152.362 251.574 152.299 251.384V251.32C152.172 251.003 151.729 251.13 151.856 251.447V251.511C151.982 251.447 152.109 251.32 152.235 251.257C152.109 251.193 151.982 251.003 151.793 250.939C151.666 250.813 151.476 250.813 151.287 250.686C150.907 250.495 150.401 250.368 149.958 250.368C149.769 250.368 149.516 250.368 149.326 250.432C149.136 250.432 148.946 250.559 148.693 250.622C148.504 250.686 148.314 250.749 148.124 250.813C147.934 250.876 147.745 251.003 147.555 251.003C147.239 251.066 147.365 251.511 147.681 251.447Z" fill="white"/>
</g>
<path d="M112.453 298.613C113.465 302.041 111.504 305.66 108.089 306.675C104.674 307.691 101.069 305.723 100.057 302.295C99.0447 298.867 101.005 295.249 104.421 294.233C107.836 293.218 111.441 295.185 112.453 298.613Z" fill="#DADCE4"/>
<path d="M108.785 304.327C105.369 305.342 101.764 303.374 100.752 299.946C100.499 299.121 100.436 298.359 100.499 297.598C99.8037 299.058 99.5507 300.708 100.057 302.422C101.069 305.85 104.674 307.818 108.089 306.802C110.745 306.041 112.453 303.692 112.706 301.089C111.884 302.549 110.556 303.755 108.785 304.327Z" fill="#C3C7D5"/>
<g opacity="0.37">
<path d="M104.041 297.661C104.421 297.534 104.737 297.407 105.116 297.28C105.306 297.217 105.496 297.153 105.686 297.09C105.875 297.026 106.065 297.026 106.255 297.026C106.634 297.026 107.077 297.09 107.456 297.28C107.583 297.344 107.773 297.407 107.899 297.534C108.026 297.661 108.152 297.788 108.279 297.852C108.468 297.979 108.721 297.788 108.658 297.598V297.534C108.532 297.217 108.089 297.344 108.215 297.661V297.725C108.342 297.661 108.468 297.534 108.595 297.471C108.468 297.407 108.342 297.217 108.152 297.153C108.026 297.026 107.836 297.026 107.646 296.899C107.267 296.709 106.761 296.582 106.318 296.582C106.128 296.582 105.875 296.582 105.686 296.645C105.496 296.645 105.306 296.772 105.053 296.836C104.863 296.899 104.674 296.963 104.484 297.026C104.294 297.09 104.104 297.217 103.915 297.217C103.598 297.28 103.725 297.788 104.041 297.661Z" fill="white"/>
</g>
<path d="M102.65 67.0991C104.674 73.0028 110.998 76.3038 116.944 78.0813C129.783 81.8901 143.824 81.6362 156.536 77.383C151.983 89.0635 138.321 96.3637 126.114 93.6341C125.798 100.046 121.94 105.886 116.754 109.568C111.568 113.25 105.116 114.9 98.7918 115.281C93.6055 115.598 87.7868 114.773 84.4347 110.837C83.6757 113.821 84.8774 116.995 86.9013 119.28C88.9252 121.566 91.5184 123.343 94.3012 124.549C107.33 130.326 122.762 126.39 122.762 126.39C122.762 126.39 129.15 141.562 143.507 143.276C156.536 144.8 170.071 141.435 180.697 133.627" stroke="#477C97" stroke-width="0.25" stroke-miterlimit="10" stroke-linecap="round" stroke-linejoin="round"/>
<path d="M66.4725 159.4C66.852 167.843 72.3544 175.715 79.8176 179.714C87.2807 183.713 96.3883 184.031 104.421 181.301C105.812 191.014 113.718 199.012 122.889 202.313C132.123 205.614 142.432 204.662 151.729 201.615C169.122 195.838 183.859 181.301 191.259 164.479C191.069 172.922 189.425 182.38 187.717 190.633C185.314 201.869 182.784 214.755 173.423 222.373C165.581 228.785 154.639 231.451 144.899 228.594C144.646 231.959 142.306 234.752 139.839 237.101C132.186 244.464 122.32 249.606 111.821 250.622C101.322 251.638 90.2533 248.146 82.8534 240.529C76.845 247.575 66.093 248.591 57.3017 245.67C54.2026 244.655 51.1667 243.131 48.7633 240.846C43.5771 235.831 42.5651 227.959 41.8694 220.786" stroke="#477C97" stroke-width="0.25" stroke-miterlimit="10" stroke-linecap="round" stroke-linejoin="round"/>
<path d="M28.2712 265.794C31.4968 270.492 34.7857 275.253 39.0232 278.998C45.6009 284.775 54.2025 287.949 62.8674 288.901C71.5322 289.853 80.3868 288.837 88.9251 286.997C99.0446 284.838 108.911 281.601 118.272 277.347C120.359 283.188 127.063 285.79 133.135 286.616C145.088 288.266 157.548 285.663 167.857 279.442C170.514 283.949 175.447 286.616 180.507 288.076C197.963 293.281 218.645 285.092 228.954 270.047" stroke="#477C97" stroke-width="0.25" stroke-miterlimit="10" stroke-linecap="round" stroke-linejoin="round"/>
<path d="M112.832 71.2889C112.01 72.7489 110.809 73.5742 110.113 73.1933C109.48 72.8124 109.607 71.3523 110.429 69.8923C111.251 68.4322 112.453 67.607 113.149 67.9879C113.781 68.3687 113.655 69.8288 112.832 71.2889Z" fill="#DDA7BC"/>
<path d="M134.589 90.46C133.767 91.9201 132.565 92.7453 131.87 92.3644C131.237 91.9835 131.364 90.5235 132.186 89.0634C133.008 87.6034 134.21 86.7781 134.906 87.159C135.538 87.5399 135.412 88.9999 134.589 90.46Z" fill="#DDA7BC"/>
<path d="M160.774 139.467C159.951 140.927 158.75 141.752 158.054 141.372C157.422 140.991 157.548 139.531 158.37 138.071C159.192 136.61 160.394 135.785 161.09 136.166C161.722 136.61 161.596 138.071 160.774 139.467Z" fill="#DDA7BC"/>
<path d="M125.103 137.817C124.28 139.277 123.079 140.102 122.383 139.721C121.75 139.34 121.877 137.88 122.699 136.42C123.521 134.96 124.723 134.135 125.419 134.516C126.051 134.897 125.925 136.42 125.103 137.817Z" fill="#DDA7BC"/>
<path d="M73.6826 165.875C72.8604 167.335 71.6587 168.16 70.963 167.779C70.3305 167.399 70.457 165.939 71.2792 164.478C72.1014 163.018 73.3031 162.193 73.9988 162.574C74.6313 162.955 74.5048 164.415 73.6826 165.875Z" fill="#DDA7BC"/>
<path d="M145.405 199.837C144.583 201.297 143.381 202.123 142.685 201.742C142.053 201.361 142.179 199.901 143.001 198.441C143.824 196.981 145.025 196.156 145.721 196.536C146.353 196.917 146.227 198.377 145.405 199.837Z" fill="#DDA7BC"/>
<path d="M119.663 254.431C118.841 255.891 117.639 256.716 116.943 256.335C116.311 255.954 116.437 254.494 117.26 253.034C118.082 251.574 119.284 250.749 119.979 251.13C120.612 251.511 120.485 252.971 119.663 254.431Z" fill="#DDA7BC"/>
<path d="M128.96 281.347C128.138 282.807 126.937 283.632 126.241 283.251C125.608 282.87 125.735 281.41 126.557 279.95C127.379 278.49 128.581 277.665 129.277 278.046C129.972 278.427 129.783 279.887 128.96 281.347Z" fill="#DDA7BC"/>
<path d="M109.354 118.582C108.532 120.042 107.33 120.867 106.634 120.486C106.002 120.106 106.128 118.646 106.951 117.185C107.773 115.725 108.974 114.9 109.67 115.281C110.366 115.662 110.176 117.185 109.354 118.582Z" fill="#DDA7BC"/>
<path d="M75.2637 183.586C74.4414 185.046 73.2398 185.872 72.544 185.491C71.9116 185.11 72.0381 183.65 72.8603 182.19C73.6825 180.73 74.8842 179.904 75.5799 180.285C76.2124 180.666 76.0859 182.126 75.2637 183.586Z" fill="#DDA7BC"/>
<path d="M146.1 148.799C145.278 150.259 144.076 151.084 143.381 150.703C142.748 150.322 142.875 148.862 143.697 147.402C144.519 145.942 145.721 145.117 146.417 145.498C147.049 145.879 146.923 147.339 146.1 148.799Z" fill="#DDA7BC"/>
<path d="M117.703 193.68C116.88 195.14 115.679 195.965 114.983 195.584C114.351 195.203 114.477 193.743 115.299 192.283C116.121 190.823 117.323 189.998 118.019 190.379C118.651 190.76 118.525 192.22 117.703 193.68Z" fill="#DDA7BC"/>
<path d="M102.966 245.734C102.144 247.194 100.942 248.019 100.246 247.638C99.614 247.257 99.7405 245.797 100.563 244.337C101.385 242.877 102.587 242.052 103.282 242.433C103.915 242.814 103.788 244.337 102.966 245.734Z" fill="#DDA7BC"/>
<path d="M220.795 275.697C219.973 277.157 218.771 277.982 218.076 277.601C217.443 277.22 217.57 275.76 218.392 274.3C219.214 272.84 220.416 272.015 221.111 272.396C221.744 272.777 221.617 274.3 220.795 275.697Z" fill="#DDA7BC"/>
<path d="M90.1269 283.124C89.3047 284.584 88.103 285.409 87.4073 285.028C86.7748 284.648 86.9013 283.188 87.7236 281.727C88.5458 280.267 89.7475 279.442 90.4432 279.823C91.0756 280.204 90.9492 281.664 90.1269 283.124Z" fill="#DDA7BC"/>
<path d="M48.0676 229.546C47.2454 231.006 46.0437 231.832 45.348 231.451C44.7155 231.07 44.842 229.61 45.6642 228.15C46.4864 226.69 47.6881 225.865 48.3838 226.245C49.0163 226.69 48.8898 228.15 48.0676 229.546Z" fill="#DDA7BC"/>
<path d="M37.5054 269.666C36.6831 271.126 35.4815 271.951 34.7857 271.57C34.1533 271.19 34.2798 269.73 35.102 268.269C35.9242 266.809 37.1259 265.984 37.8216 266.365C38.4541 266.746 38.3276 268.206 37.5054 269.666Z" fill="#DDA7BC"/>
<path d="M183.859 172.858C184.302 174.445 184.049 175.905 183.353 176.096C182.594 176.286 181.645 175.143 181.202 173.556C180.76 171.969 181.013 170.509 181.708 170.319C182.467 170.128 183.416 171.271 183.859 172.858Z" fill="#DDA7BC"/>
<path d="M186.326 187.522C186.768 189.109 186.515 190.569 185.82 190.76C185.061 190.95 184.112 189.807 183.669 188.22C183.226 186.633 183.479 185.173 184.175 184.983C184.871 184.792 185.883 185.872 186.326 187.522Z" fill="#DDA7BC"/>
<path d="M180.444 205.297C181.519 206.566 181.835 208.026 181.266 208.534C180.697 209.042 179.368 208.344 178.293 207.074C177.218 205.805 176.902 204.345 177.471 203.837C178.04 203.392 179.368 204.027 180.444 205.297Z" fill="#DDA7BC"/>
<path d="M161.659 223.008C162.734 224.277 163.051 225.737 162.481 226.245C161.912 226.753 160.584 226.055 159.509 224.785C158.434 223.516 158.117 222.056 158.687 221.548C159.319 221.04 160.647 221.738 161.659 223.008Z" fill="#DDA7BC"/>
<path d="M85.6995 124.803C84.8772 126.263 83.6755 127.088 82.9798 126.707C82.3474 126.327 82.4739 124.866 83.2961 123.406C84.1183 121.946 85.32 121.121 86.0157 121.502C86.6482 121.883 86.5217 123.343 85.6995 124.803Z" fill="#DDA7BC"/>
<path d="M133.388 75.9864C133.704 77.6369 133.388 79.0335 132.629 79.2239C131.87 79.3509 130.984 78.2082 130.668 76.5577C130.352 74.9072 130.668 73.5107 131.427 73.3202C132.186 73.1932 133.071 74.3994 133.388 75.9864Z" fill="#DDA7BC"/>
<path d="M116.501 105.061C116.817 106.711 116.501 108.108 115.742 108.298C114.983 108.425 114.097 107.282 113.781 105.632C113.465 103.981 113.781 102.585 114.54 102.394C115.299 102.267 116.185 103.474 116.501 105.061Z" fill="#DDA7BC"/>
<path d="M118.588 122.137C118.904 123.788 118.588 125.184 117.829 125.375C117.07 125.502 116.185 124.359 115.868 122.708C115.552 121.058 115.868 119.661 116.627 119.471C117.323 119.344 118.208 120.55 118.588 122.137Z" fill="#DDA7BC"/>
<path d="M147.429 94.8401C147.745 96.4906 147.429 97.8872 146.67 98.0776C145.911 98.2046 145.025 97.0619 144.709 95.4114C144.393 93.7609 144.709 92.3644 145.468 92.1739C146.164 92.047 147.049 93.1896 147.429 94.8401Z" fill="#DDA7BC"/>
<path d="M176.965 141.625C177.281 143.276 176.965 144.673 176.206 144.863C175.447 144.99 174.562 143.847 174.245 142.197C173.929 140.546 174.245 139.15 175.004 138.959C175.763 138.769 176.649 139.975 176.965 141.625Z" fill="#DDA7BC"/>
<path d="M138.258 136.357C138.574 138.007 138.258 139.404 137.499 139.594C136.74 139.721 135.854 138.578 135.538 136.928C135.222 135.277 135.538 133.881 136.297 133.69C136.993 133.563 137.878 134.769 138.258 136.357Z" fill="#DDA7BC"/>
<path d="M103.599 188.982C103.029 190.569 102.017 191.585 101.322 191.331C100.626 191.077 100.436 189.617 101.005 188.03C101.575 186.443 102.587 185.427 103.282 185.681C103.978 185.935 104.104 187.395 103.599 188.982Z" fill="#DDA7BC"/>
<path d="M85.9525 248.844C85.3833 250.431 84.3713 251.447 83.6756 251.193C82.9799 250.939 82.7902 249.479 83.3594 247.892C83.9286 246.305 84.9405 245.29 85.6363 245.543C86.332 245.797 86.4585 247.321 85.9525 248.844Z" fill="#DDA7BC"/>
<path d="M73.746 293.789C73.1767 295.376 72.1648 296.391 71.4691 296.138C70.7734 295.884 70.5836 294.424 71.1528 292.837C71.7221 291.25 72.734 290.234 73.4297 290.488C74.1887 290.742 74.3152 292.202 73.746 293.789Z" fill="#DDA7BC"/>
<path d="M50.0914 248.21C49.5222 249.797 48.5102 250.812 47.8145 250.558C47.1188 250.305 46.9291 248.845 47.4983 247.257C48.0675 245.67 49.0795 244.655 49.7752 244.909C50.4709 245.163 50.5974 246.686 50.0914 248.21Z" fill="#DDA7BC"/>
<path d="M169.249 286.425C168.68 288.012 167.668 289.028 166.972 288.774C166.276 288.52 166.087 287.06 166.656 285.473C167.225 283.886 168.237 282.87 168.933 283.124C169.628 283.378 169.755 284.838 169.249 286.425Z" fill="#DDA7BC"/>
<path d="M39.2762 286.425C38.707 288.012 37.6951 289.028 36.9993 288.774C36.3036 288.52 36.1139 287.06 36.6831 285.473C37.2523 283.886 38.2643 282.87 38.96 283.124C39.6557 283.378 39.8455 284.838 39.2762 286.425Z" fill="#DDA7BC"/>
<path d="M160.9 203.71C160.331 205.297 159.319 206.312 158.623 206.058C157.928 205.805 157.738 204.344 158.307 202.757C158.876 201.17 159.888 200.155 160.584 200.409C161.28 200.663 161.406 202.186 160.9 203.71Z" fill="#DDA7BC"/>
<path d="M146.417 236.656C146.733 238.307 146.417 239.703 145.658 239.894C144.899 240.021 144.013 238.878 143.697 237.228C143.381 235.577 143.697 234.18 144.456 233.99C145.152 233.8 146.037 235.006 146.417 236.656Z" fill="#DDA7BC"/>
<path d="M208.083 291.503C208.399 293.154 208.083 294.551 207.324 294.741C206.565 294.868 205.679 293.725 205.363 292.075C205.047 290.424 205.363 289.028 206.122 288.837C206.881 288.71 207.766 289.916 208.083 291.503Z" fill="#DDA7BC"/>
<path d="M189.741 202.123C188.666 203.392 187.338 204.027 186.768 203.519C186.199 203.012 186.579 201.615 187.654 200.345C188.729 199.076 190.057 198.441 190.626 198.949C191.196 199.457 190.816 200.853 189.741 202.123Z" fill="#DDA7BC"/>
<path d="M95.0601 110.457C95.3763 112.107 95.0601 113.504 94.3011 113.694C93.5422 113.821 92.6567 112.678 92.3405 111.028C92.0242 109.377 92.3405 107.981 93.0994 107.79C93.8584 107.663 94.7439 108.806 95.0601 110.457Z" fill="#DDA7BC"/>
<path d="M101.322 131.024C101.638 132.675 101.322 134.071 100.563 134.262C99.8037 134.389 98.9182 133.246 98.602 131.596C98.2857 129.945 98.602 128.548 99.3609 128.358C100.12 128.231 101.005 129.374 101.322 131.024Z" fill="#DDA7BC"/>
<path d="M92.4036 178.317C92.7198 179.968 92.4036 181.365 91.6446 181.555C90.8857 181.682 90.0002 180.539 89.684 178.889C89.3678 177.238 89.684 175.842 90.443 175.651C91.2019 175.524 92.0874 176.73 92.4036 178.317Z" fill="#DDA7BC"/>
<path d="M168.869 188.665C169.186 190.315 168.869 191.712 168.11 191.902C167.351 192.029 166.466 190.886 166.15 189.236C165.834 187.585 166.15 186.189 166.909 185.998C167.668 185.871 168.553 187.078 168.869 188.665Z" fill="#DDA7BC"/>
<path d="M131.048 207.836C131.364 209.486 131.048 210.883 130.289 211.073C129.53 211.2 128.644 210.058 128.328 208.407C128.012 206.757 128.328 205.36 129.087 205.17C129.783 204.979 130.668 206.185 131.048 207.836Z" fill="#DDA7BC"/>
<path d="M131.048 238.878C131.364 240.528 131.048 241.925 130.289 242.115C129.53 242.242 128.644 241.1 128.328 239.449C128.012 237.799 128.328 236.402 129.087 236.212C129.783 236.085 130.668 237.227 131.048 238.878Z" fill="#DDA7BC"/>
<path d="M187.148 283.822C187.464 285.473 187.148 286.87 186.389 287.06C185.63 287.187 184.744 286.044 184.428 284.394C184.112 282.743 184.428 281.347 185.187 281.156C185.883 280.966 186.768 282.172 187.148 283.822Z" fill="#DDA7BC"/>
<path d="M137.941 290.869C138.258 292.519 137.941 293.916 137.182 294.106C136.424 294.233 135.538 293.091 135.222 291.44C134.906 289.79 135.222 288.393 135.981 288.203C136.677 288.076 137.562 289.282 137.941 290.869Z" fill="#DDA7BC"/>
<path d="M110.556 285.663C110.872 287.314 110.556 288.71 109.797 288.901C109.038 289.028 108.152 287.885 107.836 286.235C107.52 284.584 107.836 283.188 108.595 282.997C109.354 282.807 110.239 284.013 110.556 285.663Z" fill="#DDA7BC"/>
<path d="M67.358 241.544C67.6742 243.195 67.358 244.591 66.599 244.782C65.84 244.909 64.9546 243.766 64.6383 242.116C64.3221 240.465 64.6383 239.069 65.3973 238.878C66.1563 238.751 67.0417 239.957 67.358 241.544Z" fill="#DDA7BC"/>
<path d="M153.943 280.585C154.259 282.235 153.943 283.632 153.184 283.822C152.425 283.949 151.54 282.807 151.224 281.156C150.907 279.506 151.224 278.109 151.983 277.919C152.741 277.792 153.627 278.934 153.943 280.585Z" fill="#DDA7BC"/>
<path d="M59.0726 282.68C59.3888 284.33 59.0726 285.727 58.3136 285.917C57.5546 286.044 56.6692 284.902 56.3529 283.251C56.0367 281.601 56.3529 280.204 57.1119 280.014C57.8709 279.887 58.7563 281.093 59.0726 282.68Z" fill="#DDA7BC"/>
<path d="M179.748 223.579C180.064 225.23 179.748 226.626 178.989 226.817C178.23 226.944 177.344 225.801 177.028 224.151C176.712 222.5 177.028 221.103 177.787 220.913C178.546 220.786 179.432 221.992 179.748 223.579Z" fill="#DDA7BC"/>
<path d="M120.106 83.1597C120.296 84.8102 119.79 86.2068 119.031 86.2702C118.272 86.3337 117.513 85.0641 117.386 83.4136C117.196 81.7631 117.702 80.3665 118.461 80.3031C119.157 80.2396 119.916 81.5092 120.106 83.1597Z" fill="#DDA7BC"/>
<path d="M146.859 83.1597C147.935 84.4293 148.377 85.8259 147.808 86.3338C147.239 86.8416 145.911 86.2068 144.772 85.0007C143.697 83.7311 143.254 82.3345 143.824 81.8266C144.393 81.3188 145.721 81.8901 146.859 83.1597Z" fill="#DDA7BC"/>
<path d="M129.087 101.696C130.162 102.966 130.605 104.362 130.036 104.87C129.466 105.378 128.138 104.743 127 103.537C125.925 102.267 125.482 100.871 126.051 100.363C126.684 99.8552 128.012 100.426 129.087 101.696Z" fill="#DDA7BC"/>
<path d="M178.285 246.448C181.758 274.336 162.408 299.734 134.622 303.718C106.837 307.204 81.5322 287.782 77.5629 259.894C74.0897 232.006 93.4403 206.608 121.226 202.624C149.011 199.138 174.316 218.56 178.285 246.448Z" fill="#75C4C0"/>
<path d="M142.562 285.79C114.776 289.276 89.4715 269.854 85.5022 241.966C84.5099 235.492 85.006 229.018 86.4945 223.042C79.052 233.002 75.5788 245.95 77.0673 259.396C80.5405 287.284 106.341 307.204 134.127 303.22C155.462 300.232 171.835 284.794 176.797 264.874C168.858 276.328 156.95 283.798 142.562 285.79Z" fill="#5CADA7"/>
<g opacity="0.37">
<path d="M113.784 228.521C116.761 228.023 119.242 227.526 122.219 227.028C123.707 227.028 125.196 226.53 126.188 226.53C127.677 226.53 129.661 226.53 131.15 227.028C134.127 227.526 137.6 228.521 140.081 230.513C141.073 231.509 142.562 232.007 143.554 233.003C144.546 233.999 145.043 234.996 146.531 235.992C148.02 236.988 150.004 235.992 149.508 234V233.502C149.012 231.011 145.539 232.008 146.035 234.498V234.995C147.027 234.497 148.02 233.999 149.012 233.003C148.02 232.007 147.027 230.514 146.035 229.518C145.043 228.522 143.554 228.024 142.562 227.028C140.081 225.036 136.111 223.541 133.134 223.043C131.646 223.043 129.661 222.545 128.173 222.545C126.684 222.545 125.196 223.043 123.211 223.043C121.723 223.541 120.234 223.541 118.746 223.541C116.761 224.039 115.272 224.538 113.784 224.538C111.799 225.036 111.799 229.019 113.784 228.521Z" fill="white"/>
</g>
<path d="M111.34 270.364L99.0809 241.664H107.855L118.187 266.51H113.021L123.599 241.664H131.635L119.335 270.364H111.34ZM143.401 270.938C141.05 270.938 138.782 270.651 136.595 270.077C134.436 269.476 132.673 268.711 131.306 267.781L133.971 261.795C135.256 262.615 136.732 263.299 138.399 263.845C140.094 264.365 141.775 264.624 143.442 264.624C144.563 264.624 145.465 264.529 146.148 264.337C146.831 264.119 147.323 263.845 147.624 263.517C147.952 263.162 148.116 262.752 148.116 262.287C148.116 261.631 147.815 261.112 147.214 260.729C146.613 260.347 145.834 260.032 144.877 259.786C143.92 259.54 142.854 259.294 141.679 259.048C140.531 258.802 139.369 258.488 138.194 258.105C137.046 257.723 135.994 257.231 135.037 256.629C134.08 256.001 133.301 255.194 132.7 254.21C132.099 253.199 131.798 251.928 131.798 250.397C131.798 248.675 132.263 247.117 133.192 245.723C134.149 244.329 135.57 243.209 137.456 242.361C139.342 241.514 141.693 241.09 144.508 241.09C146.394 241.09 148.239 241.309 150.043 241.746C151.874 242.156 153.501 242.771 154.922 243.591L152.421 249.618C151.054 248.88 149.701 248.334 148.362 247.978C147.023 247.596 145.724 247.404 144.467 247.404C143.346 247.404 142.444 247.527 141.761 247.773C141.078 247.992 140.586 248.293 140.285 248.675C139.984 249.058 139.834 249.495 139.834 249.987C139.834 250.616 140.121 251.122 140.695 251.504C141.296 251.86 142.075 252.16 143.032 252.406C144.016 252.625 145.082 252.857 146.23 253.103C147.405 253.349 148.567 253.664 149.715 254.046C150.89 254.402 151.956 254.894 152.913 255.522C153.87 256.124 154.635 256.93 155.209 257.941C155.81 258.925 156.111 260.169 156.111 261.672C156.111 263.34 155.633 264.884 154.676 266.305C153.747 267.699 152.339 268.82 150.453 269.667C148.594 270.515 146.244 270.938 143.401 270.938Z" fill="#202774"/>
</svg>
